<mxfile host="app.diagrams.net" modified="2023-05-30T06:45:42.764Z" agent="Mozilla/5.0 (Windows NT 10.0; Win64; x64) AppleWebKit/537.36 (KHTML, like Gecko) Chrome/113.0.0.0 Safari/537.36" etag="Y8kVlupOpFjEt6ljy5vL" version="21.2.1" type="github" pages="2">
  <diagram name="miner_process" id="NgeiZRPoPSFg08oIT05F">
    <mxGraphModel dx="2049" dy="1263" grid="1" gridSize="10" guides="1" tooltips="1" connect="1" arrows="1" fold="1" page="1" pageScale="1" pageWidth="827" pageHeight="1169" math="0" shadow="0">
      <root>
        <mxCell id="0" />
        <mxCell id="1" parent="0" />
        <mxCell id="wjWw7rBW3KYlUSdWjyjX-1" value="" style="rounded=1;whiteSpace=wrap;html=1;fillColor=#FFBFCC;fontSize=18;fontFamily=Comic Sans MS;" parent="1" vertex="1">
          <mxGeometry x="196" y="280" width="240" height="220" as="geometry" />
        </mxCell>
        <mxCell id="wjWw7rBW3KYlUSdWjyjX-3" value="A" style="ellipse;whiteSpace=wrap;html=1;aspect=fixed;fillColor=#fff2cc;strokeColor=#d6b656;fontSize=38;fontFamily=Comic Sans MS;" parent="1" vertex="1">
          <mxGeometry x="211" y="400" width="80" height="80" as="geometry" />
        </mxCell>
        <mxCell id="wjWw7rBW3KYlUSdWjyjX-4" value="B" style="ellipse;whiteSpace=wrap;html=1;aspect=fixed;fillColor=#d5e8d4;strokeColor=#82b366;fontSize=38;fontFamily=Comic Sans MS;" parent="1" vertex="1">
          <mxGeometry x="343" y="400" width="80" height="80" as="geometry" />
        </mxCell>
        <mxCell id="wjWw7rBW3KYlUSdWjyjX-10" value="" style="shape=image;html=1;verticalAlign=top;verticalLabelPosition=bottom;labelBackgroundColor=#ffffff;imageAspect=0;aspect=fixed;image=https://cdn4.iconfinder.com/data/icons/computer-and-web-2/500/Done-128.png;fillColor=#1919FF;shadow=1;opacity=50;fontSize=18;fontFamily=Comic Sans MS;" parent="1" vertex="1">
          <mxGeometry x="288.5" y="372.5" width="58" height="58" as="geometry" />
        </mxCell>
        <mxCell id="wjWw7rBW3KYlUSdWjyjX-5" value="" style="endArrow=classic;html=1;rounded=0;exitX=1;exitY=0.5;exitDx=0;exitDy=0;entryX=0;entryY=0.5;entryDx=0;entryDy=0;fontSize=18;fontFamily=Comic Sans MS;" parent="1" source="wjWw7rBW3KYlUSdWjyjX-3" target="wjWw7rBW3KYlUSdWjyjX-4" edge="1">
          <mxGeometry width="50" height="50" relative="1" as="geometry">
            <mxPoint x="396" y="420" as="sourcePoint" />
            <mxPoint x="446" y="370" as="targetPoint" />
          </mxGeometry>
        </mxCell>
        <mxCell id="wjWw7rBW3KYlUSdWjyjX-13" value="Tx" style="text;html=1;strokeColor=none;fillColor=none;align=center;verticalAlign=middle;whiteSpace=wrap;rounded=0;fontSize=18;fontFamily=Comic Sans MS;" parent="1" vertex="1">
          <mxGeometry x="285.5" y="349.5" width="60" height="30" as="geometry" />
        </mxCell>
        <mxCell id="wjWw7rBW3KYlUSdWjyjX-14" value="1 发起交易" style="text;html=1;strokeColor=none;fillColor=#FFFF66;align=center;verticalAlign=middle;whiteSpace=wrap;rounded=0;labelBackgroundColor=none;labelBorderColor=default;fontSize=21;fontFamily=Comic Sans MS;" parent="1" vertex="1">
          <mxGeometry x="266" y="300" width="110" height="30" as="geometry" />
        </mxCell>
        <mxCell id="wjWw7rBW3KYlUSdWjyjX-15" value="" style="rounded=1;whiteSpace=wrap;html=1;fillColor=#FFBFCC;fontSize=18;fontFamily=Comic Sans MS;" parent="1" vertex="1">
          <mxGeometry x="520" y="280" width="240" height="220" as="geometry" />
        </mxCell>
        <mxCell id="wjWw7rBW3KYlUSdWjyjX-18" value="" style="shape=image;html=1;verticalAlign=top;verticalLabelPosition=bottom;labelBackgroundColor=#ffffff;imageAspect=0;aspect=fixed;image=https://cdn4.iconfinder.com/data/icons/computer-and-web-2/500/Done-128.png;fillColor=#1919FF;shadow=1;opacity=50;fontSize=18;fontFamily=Comic Sans MS;" parent="1" vertex="1">
          <mxGeometry x="681" y="398.5" width="58" height="58" as="geometry" />
        </mxCell>
        <mxCell id="wjWw7rBW3KYlUSdWjyjX-20" value="Tx" style="text;html=1;strokeColor=none;fillColor=none;align=center;verticalAlign=middle;whiteSpace=wrap;rounded=0;fontSize=18;fontFamily=Comic Sans MS;" parent="1" vertex="1">
          <mxGeometry x="678" y="375.5" width="60" height="30" as="geometry" />
        </mxCell>
        <mxCell id="wjWw7rBW3KYlUSdWjyjX-21" value="2 交易通过P2P网络传播" style="text;html=1;strokeColor=none;fillColor=#FFFF66;align=center;verticalAlign=middle;whiteSpace=wrap;rounded=0;labelBackgroundColor=none;labelBorderColor=default;fontSize=21;fontFamily=Comic Sans MS;" parent="1" vertex="1">
          <mxGeometry x="525" y="300" width="230" height="30" as="geometry" />
        </mxCell>
        <mxCell id="wjWw7rBW3KYlUSdWjyjX-24" value="" style="rounded=1;whiteSpace=wrap;html=1;fillColor=#FFBFCC;fontSize=18;fontFamily=Comic Sans MS;" parent="1" vertex="1">
          <mxGeometry x="845" y="280" width="240" height="220" as="geometry" />
        </mxCell>
        <mxCell id="wjWw7rBW3KYlUSdWjyjX-23" value="" style="shape=image;html=1;verticalAlign=top;verticalLabelPosition=bottom;labelBackgroundColor=#ffffff;imageAspect=0;aspect=fixed;image=https://cdn3.iconfinder.com/data/icons/energy-and-power-glyph-24-px/24/Hard_hat_mine_cap_mine_hat_mine_helmet_miner_hat-128.png" parent="1" vertex="1">
          <mxGeometry x="878" y="360" width="128" height="128" as="geometry" />
        </mxCell>
        <mxCell id="wjWw7rBW3KYlUSdWjyjX-27" value="3 共识算法" style="text;html=1;strokeColor=none;fillColor=#FFFF66;align=center;verticalAlign=middle;whiteSpace=wrap;rounded=0;labelBackgroundColor=none;labelBorderColor=default;fontSize=21;fontFamily=Comic Sans MS;" parent="1" vertex="1">
          <mxGeometry x="907.5" y="300" width="115" height="30" as="geometry" />
        </mxCell>
        <mxCell id="wjWw7rBW3KYlUSdWjyjX-29" value="" style="shape=image;html=1;verticalAlign=top;verticalLabelPosition=bottom;labelBackgroundColor=#ffffff;imageAspect=0;aspect=fixed;image=https://cdn0.iconfinder.com/data/icons/world-issues/500/pickaxe-128.png" parent="1" vertex="1">
          <mxGeometry x="885" y="310" width="128" height="128" as="geometry" />
        </mxCell>
        <mxCell id="wjWw7rBW3KYlUSdWjyjX-31" value="" style="shape=image;html=1;verticalAlign=top;verticalLabelPosition=bottom;labelBackgroundColor=#ffffff;imageAspect=0;aspect=fixed;image=https://cdn3.iconfinder.com/data/icons/strokeline/128/revisi_05-128.png" parent="1" vertex="1">
          <mxGeometry x="995" y="361.5" width="80" height="80" as="geometry" />
        </mxCell>
        <mxCell id="wjWw7rBW3KYlUSdWjyjX-39" value="" style="rounded=1;whiteSpace=wrap;html=1;fillColor=#FFBFCC;fontSize=18;fontFamily=Comic Sans MS;" parent="1" vertex="1">
          <mxGeometry x="1170" y="280.5" width="240" height="220" as="geometry" />
        </mxCell>
        <mxCell id="wjWw7rBW3KYlUSdWjyjX-42" value="4 区块通过P2P网络传播，验证合法性" style="text;html=1;strokeColor=none;fillColor=#FFFF66;align=center;verticalAlign=middle;whiteSpace=wrap;rounded=0;labelBackgroundColor=none;labelBorderColor=default;fontSize=21;fontFamily=Comic Sans MS;" parent="1" vertex="1">
          <mxGeometry x="1175" y="300.5" width="230" height="49.5" as="geometry" />
        </mxCell>
        <mxCell id="wjWw7rBW3KYlUSdWjyjX-44" value="" style="shape=image;html=1;verticalAlign=top;verticalLabelPosition=bottom;labelBackgroundColor=#ffffff;imageAspect=0;aspect=fixed;image=https://cdn3.iconfinder.com/data/icons/strokeline/128/revisi_05-128.png" parent="1" vertex="1">
          <mxGeometry x="1325" y="372.5" width="80" height="80" as="geometry" />
        </mxCell>
        <mxCell id="wjWw7rBW3KYlUSdWjyjX-48" value="" style="rounded=1;whiteSpace=wrap;html=1;fillColor=#FFBFCC;fontSize=18;fontFamily=Comic Sans MS;" parent="1" vertex="1">
          <mxGeometry x="1495" y="280.5" width="240" height="220" as="geometry" />
        </mxCell>
        <mxCell id="wjWw7rBW3KYlUSdWjyjX-51" value="5 交易写入账本" style="text;html=1;strokeColor=none;fillColor=#FFFF66;align=center;verticalAlign=middle;whiteSpace=wrap;rounded=0;labelBackgroundColor=none;labelBorderColor=default;fontSize=21;fontFamily=Comic Sans MS;" parent="1" vertex="1">
          <mxGeometry x="1537.5" y="300.25" width="155" height="30" as="geometry" />
        </mxCell>
        <mxCell id="wjWw7rBW3KYlUSdWjyjX-53" value="" style="shape=image;html=1;verticalAlign=top;verticalLabelPosition=bottom;labelBackgroundColor=#ffffff;imageAspect=0;aspect=fixed;image=https://cdn4.iconfinder.com/data/icons/computer-and-web-2/500/Done-128.png;fillColor=#1919FF;shadow=1;opacity=50;fontSize=18;fontFamily=Comic Sans MS;" parent="1" vertex="1">
          <mxGeometry x="1575" y="336.25" width="28" height="28" as="geometry" />
        </mxCell>
        <mxCell id="wjWw7rBW3KYlUSdWjyjX-76" value="" style="group" parent="1" vertex="1" connectable="0">
          <mxGeometry x="1555" y="358.75" width="120" height="120" as="geometry" />
        </mxCell>
        <mxCell id="wjWw7rBW3KYlUSdWjyjX-56" value="" style="shape=waypoint;sketch=0;fillStyle=solid;size=6;pointerEvents=1;points=[];fillColor=none;resizable=0;rotatable=0;perimeter=centerPerimeter;snapToPoint=1;strokeWidth=5;" parent="wjWw7rBW3KYlUSdWjyjX-76" vertex="1">
          <mxGeometry x="71" width="20" height="20" as="geometry" />
        </mxCell>
        <mxCell id="wjWw7rBW3KYlUSdWjyjX-57" value="" style="shape=waypoint;sketch=0;fillStyle=solid;size=6;pointerEvents=1;points=[];fillColor=none;resizable=0;rotatable=0;perimeter=centerPerimeter;snapToPoint=1;strokeWidth=5;" parent="wjWw7rBW3KYlUSdWjyjX-76" vertex="1">
          <mxGeometry x="30" width="20" height="20" as="geometry" />
        </mxCell>
        <mxCell id="wjWw7rBW3KYlUSdWjyjX-58" value="" style="shape=waypoint;sketch=0;fillStyle=solid;size=6;pointerEvents=1;points=[];fillColor=none;resizable=0;rotatable=0;perimeter=centerPerimeter;snapToPoint=1;strokeWidth=5;" parent="wjWw7rBW3KYlUSdWjyjX-76" vertex="1">
          <mxGeometry y="70" width="20" height="20" as="geometry" />
        </mxCell>
        <mxCell id="wjWw7rBW3KYlUSdWjyjX-59" value="" style="shape=waypoint;sketch=0;fillStyle=solid;size=6;pointerEvents=1;points=[];fillColor=none;resizable=0;rotatable=0;perimeter=centerPerimeter;snapToPoint=1;strokeWidth=5;" parent="wjWw7rBW3KYlUSdWjyjX-76" vertex="1">
          <mxGeometry x="30" y="100" width="20" height="20" as="geometry" />
        </mxCell>
        <mxCell id="wjWw7rBW3KYlUSdWjyjX-60" value="" style="shape=waypoint;sketch=0;fillStyle=solid;size=6;pointerEvents=1;points=[];fillColor=none;resizable=0;rotatable=0;perimeter=centerPerimeter;snapToPoint=1;strokeWidth=5;" parent="wjWw7rBW3KYlUSdWjyjX-76" vertex="1">
          <mxGeometry x="71" y="100" width="20" height="20" as="geometry" />
        </mxCell>
        <mxCell id="wjWw7rBW3KYlUSdWjyjX-61" value="" style="shape=waypoint;sketch=0;fillStyle=solid;size=6;pointerEvents=1;points=[];fillColor=none;resizable=0;rotatable=0;perimeter=centerPerimeter;snapToPoint=1;strokeWidth=5;" parent="wjWw7rBW3KYlUSdWjyjX-76" vertex="1">
          <mxGeometry x="100" y="70" width="20" height="20" as="geometry" />
        </mxCell>
        <mxCell id="wjWw7rBW3KYlUSdWjyjX-62" value="" style="shape=waypoint;sketch=0;fillStyle=solid;size=6;pointerEvents=1;points=[];fillColor=none;resizable=0;rotatable=0;perimeter=centerPerimeter;snapToPoint=1;strokeWidth=5;" parent="wjWw7rBW3KYlUSdWjyjX-76" vertex="1">
          <mxGeometry y="30" width="20" height="20" as="geometry" />
        </mxCell>
        <mxCell id="wjWw7rBW3KYlUSdWjyjX-63" value="" style="shape=waypoint;sketch=0;fillStyle=solid;size=6;pointerEvents=1;points=[];fillColor=none;resizable=0;rotatable=0;perimeter=centerPerimeter;snapToPoint=1;strokeWidth=5;" parent="wjWw7rBW3KYlUSdWjyjX-76" vertex="1">
          <mxGeometry x="100" y="30" width="20" height="20" as="geometry" />
        </mxCell>
        <mxCell id="wjWw7rBW3KYlUSdWjyjX-64" value="" style="endArrow=none;html=1;rounded=0;strokeWidth=5;" parent="wjWw7rBW3KYlUSdWjyjX-76" source="wjWw7rBW3KYlUSdWjyjX-59" target="wjWw7rBW3KYlUSdWjyjX-56" edge="1">
          <mxGeometry width="50" height="50" relative="1" as="geometry">
            <mxPoint x="50" y="80" as="sourcePoint" />
            <mxPoint x="100" y="30" as="targetPoint" />
          </mxGeometry>
        </mxCell>
        <mxCell id="wjWw7rBW3KYlUSdWjyjX-65" value="" style="endArrow=none;html=1;rounded=0;entryX=0.501;entryY=0.624;entryDx=0;entryDy=0;entryPerimeter=0;strokeWidth=5;" parent="wjWw7rBW3KYlUSdWjyjX-76" source="wjWw7rBW3KYlUSdWjyjX-60" target="wjWw7rBW3KYlUSdWjyjX-57" edge="1">
          <mxGeometry width="50" height="50" relative="1" as="geometry">
            <mxPoint x="50" y="120" as="sourcePoint" />
            <mxPoint x="91" y="20" as="targetPoint" />
          </mxGeometry>
        </mxCell>
        <mxCell id="wjWw7rBW3KYlUSdWjyjX-66" value="" style="endArrow=none;html=1;rounded=0;strokeWidth=5;" parent="wjWw7rBW3KYlUSdWjyjX-76" source="wjWw7rBW3KYlUSdWjyjX-61" target="wjWw7rBW3KYlUSdWjyjX-62" edge="1">
          <mxGeometry width="50" height="50" relative="1" as="geometry">
            <mxPoint x="91" y="120" as="sourcePoint" />
            <mxPoint x="50" y="20" as="targetPoint" />
          </mxGeometry>
        </mxCell>
        <mxCell id="wjWw7rBW3KYlUSdWjyjX-67" value="" style="endArrow=none;html=1;rounded=0;exitX=0.457;exitY=0.601;exitDx=0;exitDy=0;exitPerimeter=0;strokeWidth=5;" parent="wjWw7rBW3KYlUSdWjyjX-76" source="wjWw7rBW3KYlUSdWjyjX-63" target="wjWw7rBW3KYlUSdWjyjX-58" edge="1">
          <mxGeometry width="50" height="50" relative="1" as="geometry">
            <mxPoint x="120" y="90" as="sourcePoint" />
            <mxPoint x="20" y="50" as="targetPoint" />
          </mxGeometry>
        </mxCell>
        <mxCell id="wjWw7rBW3KYlUSdWjyjX-68" value="" style="endArrow=none;html=1;rounded=0;strokeWidth=5;" parent="wjWw7rBW3KYlUSdWjyjX-76" source="wjWw7rBW3KYlUSdWjyjX-62" target="wjWw7rBW3KYlUSdWjyjX-57" edge="1">
          <mxGeometry width="50" height="50" relative="1" as="geometry">
            <mxPoint x="10" y="80" as="sourcePoint" />
            <mxPoint x="60" y="30" as="targetPoint" />
          </mxGeometry>
        </mxCell>
        <mxCell id="wjWw7rBW3KYlUSdWjyjX-69" value="" style="endArrow=none;html=1;rounded=0;strokeWidth=5;" parent="wjWw7rBW3KYlUSdWjyjX-76" edge="1">
          <mxGeometry width="50" height="50" relative="1" as="geometry">
            <mxPoint x="80" y="110" as="sourcePoint" />
            <mxPoint x="110" y="80" as="targetPoint" />
          </mxGeometry>
        </mxCell>
        <mxCell id="wjWw7rBW3KYlUSdWjyjX-70" value="" style="endArrow=none;html=1;rounded=0;entryX=0.578;entryY=0.594;entryDx=0;entryDy=0;entryPerimeter=0;strokeWidth=5;" parent="wjWw7rBW3KYlUSdWjyjX-76" target="wjWw7rBW3KYlUSdWjyjX-63" edge="1">
          <mxGeometry width="50" height="50" relative="1" as="geometry">
            <mxPoint x="110" y="80" as="sourcePoint" />
            <mxPoint x="140" y="50" as="targetPoint" />
          </mxGeometry>
        </mxCell>
        <mxCell id="wjWw7rBW3KYlUSdWjyjX-71" value="" style="endArrow=none;html=1;rounded=0;entryX=0.578;entryY=0.594;entryDx=0;entryDy=0;entryPerimeter=0;strokeWidth=5;" parent="wjWw7rBW3KYlUSdWjyjX-76" edge="1">
          <mxGeometry width="50" height="50" relative="1" as="geometry">
            <mxPoint x="9.930000000000064" y="80" as="sourcePoint" />
            <mxPoint x="9.930000000000064" y="40" as="targetPoint" />
          </mxGeometry>
        </mxCell>
        <mxCell id="wjWw7rBW3KYlUSdWjyjX-72" value="" style="endArrow=none;html=1;rounded=0;entryX=0.578;entryY=0.594;entryDx=0;entryDy=0;entryPerimeter=0;strokeWidth=5;" parent="wjWw7rBW3KYlUSdWjyjX-76" source="wjWw7rBW3KYlUSdWjyjX-59" edge="1">
          <mxGeometry width="50" height="50" relative="1" as="geometry">
            <mxPoint x="9.930000000000064" y="120" as="sourcePoint" />
            <mxPoint x="9.930000000000064" y="80" as="targetPoint" />
          </mxGeometry>
        </mxCell>
        <mxCell id="wjWw7rBW3KYlUSdWjyjX-73" value="" style="endArrow=none;html=1;rounded=0;entryX=0.578;entryY=0.594;entryDx=0;entryDy=0;entryPerimeter=0;strokeWidth=5;" parent="wjWw7rBW3KYlUSdWjyjX-76" edge="1">
          <mxGeometry width="50" height="50" relative="1" as="geometry">
            <mxPoint x="110.06999999999994" y="40" as="sourcePoint" />
            <mxPoint x="80" y="10" as="targetPoint" />
          </mxGeometry>
        </mxCell>
        <mxCell id="wjWw7rBW3KYlUSdWjyjX-74" value="" style="endArrow=none;html=1;rounded=0;strokeWidth=5;" parent="wjWw7rBW3KYlUSdWjyjX-76" source="wjWw7rBW3KYlUSdWjyjX-60" target="wjWw7rBW3KYlUSdWjyjX-59" edge="1">
          <mxGeometry width="50" height="50" relative="1" as="geometry">
            <mxPoint x="70.06999999999994" y="150" as="sourcePoint" />
            <mxPoint x="40" y="120" as="targetPoint" />
          </mxGeometry>
        </mxCell>
        <mxCell id="wjWw7rBW3KYlUSdWjyjX-75" value="" style="endArrow=none;html=1;rounded=0;strokeWidth=5;" parent="wjWw7rBW3KYlUSdWjyjX-76" edge="1">
          <mxGeometry width="50" height="50" relative="1" as="geometry">
            <mxPoint x="81" y="9.930000000000064" as="sourcePoint" />
            <mxPoint x="40" y="9.930000000000064" as="targetPoint" />
          </mxGeometry>
        </mxCell>
        <mxCell id="wjWw7rBW3KYlUSdWjyjX-77" value="" style="group" parent="1" vertex="1" connectable="0">
          <mxGeometry x="550" y="360" width="120" height="120" as="geometry" />
        </mxCell>
        <mxCell id="wjWw7rBW3KYlUSdWjyjX-78" value="" style="shape=waypoint;sketch=0;fillStyle=solid;size=6;pointerEvents=1;points=[];fillColor=none;resizable=0;rotatable=0;perimeter=centerPerimeter;snapToPoint=1;strokeWidth=5;" parent="wjWw7rBW3KYlUSdWjyjX-77" vertex="1">
          <mxGeometry x="71" width="20" height="20" as="geometry" />
        </mxCell>
        <mxCell id="wjWw7rBW3KYlUSdWjyjX-79" value="" style="shape=waypoint;sketch=0;fillStyle=solid;size=6;pointerEvents=1;points=[];fillColor=none;resizable=0;rotatable=0;perimeter=centerPerimeter;snapToPoint=1;strokeWidth=5;" parent="wjWw7rBW3KYlUSdWjyjX-77" vertex="1">
          <mxGeometry x="30" width="20" height="20" as="geometry" />
        </mxCell>
        <mxCell id="wjWw7rBW3KYlUSdWjyjX-80" value="" style="shape=waypoint;sketch=0;fillStyle=solid;size=6;pointerEvents=1;points=[];fillColor=none;resizable=0;rotatable=0;perimeter=centerPerimeter;snapToPoint=1;strokeWidth=5;" parent="wjWw7rBW3KYlUSdWjyjX-77" vertex="1">
          <mxGeometry y="70" width="20" height="20" as="geometry" />
        </mxCell>
        <mxCell id="wjWw7rBW3KYlUSdWjyjX-81" value="" style="shape=waypoint;sketch=0;fillStyle=solid;size=6;pointerEvents=1;points=[];fillColor=none;resizable=0;rotatable=0;perimeter=centerPerimeter;snapToPoint=1;strokeWidth=5;" parent="wjWw7rBW3KYlUSdWjyjX-77" vertex="1">
          <mxGeometry x="30" y="100" width="20" height="20" as="geometry" />
        </mxCell>
        <mxCell id="wjWw7rBW3KYlUSdWjyjX-82" value="" style="shape=waypoint;sketch=0;fillStyle=solid;size=6;pointerEvents=1;points=[];fillColor=none;resizable=0;rotatable=0;perimeter=centerPerimeter;snapToPoint=1;strokeWidth=5;" parent="wjWw7rBW3KYlUSdWjyjX-77" vertex="1">
          <mxGeometry x="71" y="100" width="20" height="20" as="geometry" />
        </mxCell>
        <mxCell id="wjWw7rBW3KYlUSdWjyjX-83" value="" style="shape=waypoint;sketch=0;fillStyle=solid;size=6;pointerEvents=1;points=[];fillColor=none;resizable=0;rotatable=0;perimeter=centerPerimeter;snapToPoint=1;strokeWidth=5;" parent="wjWw7rBW3KYlUSdWjyjX-77" vertex="1">
          <mxGeometry x="100" y="70" width="20" height="20" as="geometry" />
        </mxCell>
        <mxCell id="wjWw7rBW3KYlUSdWjyjX-84" value="" style="shape=waypoint;sketch=0;fillStyle=solid;size=6;pointerEvents=1;points=[];fillColor=none;resizable=0;rotatable=0;perimeter=centerPerimeter;snapToPoint=1;strokeWidth=5;" parent="wjWw7rBW3KYlUSdWjyjX-77" vertex="1">
          <mxGeometry y="30" width="20" height="20" as="geometry" />
        </mxCell>
        <mxCell id="wjWw7rBW3KYlUSdWjyjX-85" value="" style="shape=waypoint;sketch=0;fillStyle=solid;size=6;pointerEvents=1;points=[];fillColor=none;resizable=0;rotatable=0;perimeter=centerPerimeter;snapToPoint=1;strokeWidth=5;" parent="wjWw7rBW3KYlUSdWjyjX-77" vertex="1">
          <mxGeometry x="100" y="30" width="20" height="20" as="geometry" />
        </mxCell>
        <mxCell id="wjWw7rBW3KYlUSdWjyjX-86" value="" style="endArrow=none;html=1;rounded=0;strokeWidth=5;" parent="wjWw7rBW3KYlUSdWjyjX-77" source="wjWw7rBW3KYlUSdWjyjX-81" target="wjWw7rBW3KYlUSdWjyjX-78" edge="1">
          <mxGeometry width="50" height="50" relative="1" as="geometry">
            <mxPoint x="50" y="80" as="sourcePoint" />
            <mxPoint x="100" y="30" as="targetPoint" />
          </mxGeometry>
        </mxCell>
        <mxCell id="wjWw7rBW3KYlUSdWjyjX-87" value="" style="endArrow=none;html=1;rounded=0;entryX=0.501;entryY=0.624;entryDx=0;entryDy=0;entryPerimeter=0;strokeWidth=5;" parent="wjWw7rBW3KYlUSdWjyjX-77" source="wjWw7rBW3KYlUSdWjyjX-82" target="wjWw7rBW3KYlUSdWjyjX-79" edge="1">
          <mxGeometry width="50" height="50" relative="1" as="geometry">
            <mxPoint x="50" y="120" as="sourcePoint" />
            <mxPoint x="91" y="20" as="targetPoint" />
          </mxGeometry>
        </mxCell>
        <mxCell id="wjWw7rBW3KYlUSdWjyjX-88" value="" style="endArrow=none;html=1;rounded=0;strokeWidth=5;" parent="wjWw7rBW3KYlUSdWjyjX-77" source="wjWw7rBW3KYlUSdWjyjX-83" target="wjWw7rBW3KYlUSdWjyjX-84" edge="1">
          <mxGeometry width="50" height="50" relative="1" as="geometry">
            <mxPoint x="91" y="120" as="sourcePoint" />
            <mxPoint x="50" y="20" as="targetPoint" />
          </mxGeometry>
        </mxCell>
        <mxCell id="wjWw7rBW3KYlUSdWjyjX-89" value="" style="endArrow=none;html=1;rounded=0;exitX=0.457;exitY=0.601;exitDx=0;exitDy=0;exitPerimeter=0;strokeWidth=5;" parent="wjWw7rBW3KYlUSdWjyjX-77" source="wjWw7rBW3KYlUSdWjyjX-85" target="wjWw7rBW3KYlUSdWjyjX-80" edge="1">
          <mxGeometry width="50" height="50" relative="1" as="geometry">
            <mxPoint x="120" y="90" as="sourcePoint" />
            <mxPoint x="20" y="50" as="targetPoint" />
          </mxGeometry>
        </mxCell>
        <mxCell id="wjWw7rBW3KYlUSdWjyjX-90" value="" style="endArrow=none;html=1;rounded=0;strokeWidth=5;" parent="wjWw7rBW3KYlUSdWjyjX-77" source="wjWw7rBW3KYlUSdWjyjX-84" target="wjWw7rBW3KYlUSdWjyjX-79" edge="1">
          <mxGeometry width="50" height="50" relative="1" as="geometry">
            <mxPoint x="10" y="80" as="sourcePoint" />
            <mxPoint x="60" y="30" as="targetPoint" />
          </mxGeometry>
        </mxCell>
        <mxCell id="wjWw7rBW3KYlUSdWjyjX-91" value="" style="endArrow=none;html=1;rounded=0;strokeWidth=5;" parent="wjWw7rBW3KYlUSdWjyjX-77" edge="1">
          <mxGeometry width="50" height="50" relative="1" as="geometry">
            <mxPoint x="80" y="110" as="sourcePoint" />
            <mxPoint x="110" y="80" as="targetPoint" />
          </mxGeometry>
        </mxCell>
        <mxCell id="wjWw7rBW3KYlUSdWjyjX-92" value="" style="endArrow=none;html=1;rounded=0;entryX=0.578;entryY=0.594;entryDx=0;entryDy=0;entryPerimeter=0;strokeWidth=5;" parent="wjWw7rBW3KYlUSdWjyjX-77" target="wjWw7rBW3KYlUSdWjyjX-85" edge="1">
          <mxGeometry width="50" height="50" relative="1" as="geometry">
            <mxPoint x="110" y="80" as="sourcePoint" />
            <mxPoint x="140" y="50" as="targetPoint" />
          </mxGeometry>
        </mxCell>
        <mxCell id="wjWw7rBW3KYlUSdWjyjX-93" value="" style="endArrow=none;html=1;rounded=0;entryX=0.578;entryY=0.594;entryDx=0;entryDy=0;entryPerimeter=0;strokeWidth=5;" parent="wjWw7rBW3KYlUSdWjyjX-77" edge="1">
          <mxGeometry width="50" height="50" relative="1" as="geometry">
            <mxPoint x="9.930000000000064" y="80" as="sourcePoint" />
            <mxPoint x="9.930000000000064" y="40" as="targetPoint" />
          </mxGeometry>
        </mxCell>
        <mxCell id="wjWw7rBW3KYlUSdWjyjX-94" value="" style="endArrow=none;html=1;rounded=0;entryX=0.578;entryY=0.594;entryDx=0;entryDy=0;entryPerimeter=0;strokeWidth=5;" parent="wjWw7rBW3KYlUSdWjyjX-77" source="wjWw7rBW3KYlUSdWjyjX-81" edge="1">
          <mxGeometry width="50" height="50" relative="1" as="geometry">
            <mxPoint x="9.930000000000064" y="120" as="sourcePoint" />
            <mxPoint x="9.930000000000064" y="80" as="targetPoint" />
          </mxGeometry>
        </mxCell>
        <mxCell id="wjWw7rBW3KYlUSdWjyjX-95" value="" style="endArrow=none;html=1;rounded=0;entryX=0.578;entryY=0.594;entryDx=0;entryDy=0;entryPerimeter=0;strokeWidth=5;" parent="wjWw7rBW3KYlUSdWjyjX-77" edge="1">
          <mxGeometry width="50" height="50" relative="1" as="geometry">
            <mxPoint x="110.06999999999994" y="40" as="sourcePoint" />
            <mxPoint x="80" y="10" as="targetPoint" />
          </mxGeometry>
        </mxCell>
        <mxCell id="wjWw7rBW3KYlUSdWjyjX-96" value="" style="endArrow=none;html=1;rounded=0;strokeWidth=5;" parent="wjWw7rBW3KYlUSdWjyjX-77" source="wjWw7rBW3KYlUSdWjyjX-82" target="wjWw7rBW3KYlUSdWjyjX-81" edge="1">
          <mxGeometry width="50" height="50" relative="1" as="geometry">
            <mxPoint x="70.06999999999994" y="150" as="sourcePoint" />
            <mxPoint x="40" y="120" as="targetPoint" />
          </mxGeometry>
        </mxCell>
        <mxCell id="wjWw7rBW3KYlUSdWjyjX-97" value="" style="endArrow=none;html=1;rounded=0;strokeWidth=5;" parent="wjWw7rBW3KYlUSdWjyjX-77" edge="1">
          <mxGeometry width="50" height="50" relative="1" as="geometry">
            <mxPoint x="81" y="9.930000000000064" as="sourcePoint" />
            <mxPoint x="40" y="9.930000000000064" as="targetPoint" />
          </mxGeometry>
        </mxCell>
        <mxCell id="wjWw7rBW3KYlUSdWjyjX-98" value="" style="group" parent="1" vertex="1" connectable="0">
          <mxGeometry x="1201" y="370" width="120" height="120" as="geometry" />
        </mxCell>
        <mxCell id="wjWw7rBW3KYlUSdWjyjX-99" value="" style="shape=waypoint;sketch=0;fillStyle=solid;size=6;pointerEvents=1;points=[];fillColor=none;resizable=0;rotatable=0;perimeter=centerPerimeter;snapToPoint=1;strokeWidth=5;" parent="wjWw7rBW3KYlUSdWjyjX-98" vertex="1">
          <mxGeometry x="71" width="20" height="20" as="geometry" />
        </mxCell>
        <mxCell id="wjWw7rBW3KYlUSdWjyjX-100" value="" style="shape=waypoint;sketch=0;fillStyle=solid;size=6;pointerEvents=1;points=[];fillColor=none;resizable=0;rotatable=0;perimeter=centerPerimeter;snapToPoint=1;strokeWidth=5;" parent="wjWw7rBW3KYlUSdWjyjX-98" vertex="1">
          <mxGeometry x="30" width="20" height="20" as="geometry" />
        </mxCell>
        <mxCell id="wjWw7rBW3KYlUSdWjyjX-101" value="" style="shape=waypoint;sketch=0;fillStyle=solid;size=6;pointerEvents=1;points=[];fillColor=none;resizable=0;rotatable=0;perimeter=centerPerimeter;snapToPoint=1;strokeWidth=5;" parent="wjWw7rBW3KYlUSdWjyjX-98" vertex="1">
          <mxGeometry y="70" width="20" height="20" as="geometry" />
        </mxCell>
        <mxCell id="wjWw7rBW3KYlUSdWjyjX-102" value="" style="shape=waypoint;sketch=0;fillStyle=solid;size=6;pointerEvents=1;points=[];fillColor=none;resizable=0;rotatable=0;perimeter=centerPerimeter;snapToPoint=1;strokeWidth=5;" parent="wjWw7rBW3KYlUSdWjyjX-98" vertex="1">
          <mxGeometry x="30" y="100" width="20" height="20" as="geometry" />
        </mxCell>
        <mxCell id="wjWw7rBW3KYlUSdWjyjX-103" value="" style="shape=waypoint;sketch=0;fillStyle=solid;size=6;pointerEvents=1;points=[];fillColor=none;resizable=0;rotatable=0;perimeter=centerPerimeter;snapToPoint=1;strokeWidth=5;" parent="wjWw7rBW3KYlUSdWjyjX-98" vertex="1">
          <mxGeometry x="71" y="100" width="20" height="20" as="geometry" />
        </mxCell>
        <mxCell id="wjWw7rBW3KYlUSdWjyjX-104" value="" style="shape=waypoint;sketch=0;fillStyle=solid;size=6;pointerEvents=1;points=[];fillColor=none;resizable=0;rotatable=0;perimeter=centerPerimeter;snapToPoint=1;strokeWidth=5;" parent="wjWw7rBW3KYlUSdWjyjX-98" vertex="1">
          <mxGeometry x="100" y="70" width="20" height="20" as="geometry" />
        </mxCell>
        <mxCell id="wjWw7rBW3KYlUSdWjyjX-105" value="" style="shape=waypoint;sketch=0;fillStyle=solid;size=6;pointerEvents=1;points=[];fillColor=none;resizable=0;rotatable=0;perimeter=centerPerimeter;snapToPoint=1;strokeWidth=5;" parent="wjWw7rBW3KYlUSdWjyjX-98" vertex="1">
          <mxGeometry y="30" width="20" height="20" as="geometry" />
        </mxCell>
        <mxCell id="wjWw7rBW3KYlUSdWjyjX-106" value="" style="shape=waypoint;sketch=0;fillStyle=solid;size=6;pointerEvents=1;points=[];fillColor=none;resizable=0;rotatable=0;perimeter=centerPerimeter;snapToPoint=1;strokeWidth=5;" parent="wjWw7rBW3KYlUSdWjyjX-98" vertex="1">
          <mxGeometry x="100" y="30" width="20" height="20" as="geometry" />
        </mxCell>
        <mxCell id="wjWw7rBW3KYlUSdWjyjX-107" value="" style="endArrow=none;html=1;rounded=0;strokeWidth=5;" parent="wjWw7rBW3KYlUSdWjyjX-98" source="wjWw7rBW3KYlUSdWjyjX-102" target="wjWw7rBW3KYlUSdWjyjX-99" edge="1">
          <mxGeometry width="50" height="50" relative="1" as="geometry">
            <mxPoint x="50" y="80" as="sourcePoint" />
            <mxPoint x="100" y="30" as="targetPoint" />
          </mxGeometry>
        </mxCell>
        <mxCell id="wjWw7rBW3KYlUSdWjyjX-108" value="" style="endArrow=none;html=1;rounded=0;entryX=0.501;entryY=0.624;entryDx=0;entryDy=0;entryPerimeter=0;strokeWidth=5;" parent="wjWw7rBW3KYlUSdWjyjX-98" source="wjWw7rBW3KYlUSdWjyjX-103" target="wjWw7rBW3KYlUSdWjyjX-100" edge="1">
          <mxGeometry width="50" height="50" relative="1" as="geometry">
            <mxPoint x="50" y="120" as="sourcePoint" />
            <mxPoint x="91" y="20" as="targetPoint" />
          </mxGeometry>
        </mxCell>
        <mxCell id="wjWw7rBW3KYlUSdWjyjX-109" value="" style="endArrow=none;html=1;rounded=0;strokeWidth=5;" parent="wjWw7rBW3KYlUSdWjyjX-98" source="wjWw7rBW3KYlUSdWjyjX-104" target="wjWw7rBW3KYlUSdWjyjX-105" edge="1">
          <mxGeometry width="50" height="50" relative="1" as="geometry">
            <mxPoint x="91" y="120" as="sourcePoint" />
            <mxPoint x="50" y="20" as="targetPoint" />
          </mxGeometry>
        </mxCell>
        <mxCell id="wjWw7rBW3KYlUSdWjyjX-110" value="" style="endArrow=none;html=1;rounded=0;exitX=0.457;exitY=0.601;exitDx=0;exitDy=0;exitPerimeter=0;strokeWidth=5;" parent="wjWw7rBW3KYlUSdWjyjX-98" source="wjWw7rBW3KYlUSdWjyjX-106" target="wjWw7rBW3KYlUSdWjyjX-101" edge="1">
          <mxGeometry width="50" height="50" relative="1" as="geometry">
            <mxPoint x="120" y="90" as="sourcePoint" />
            <mxPoint x="20" y="50" as="targetPoint" />
          </mxGeometry>
        </mxCell>
        <mxCell id="wjWw7rBW3KYlUSdWjyjX-111" value="" style="endArrow=none;html=1;rounded=0;strokeWidth=5;" parent="wjWw7rBW3KYlUSdWjyjX-98" source="wjWw7rBW3KYlUSdWjyjX-105" target="wjWw7rBW3KYlUSdWjyjX-100" edge="1">
          <mxGeometry width="50" height="50" relative="1" as="geometry">
            <mxPoint x="10" y="80" as="sourcePoint" />
            <mxPoint x="60" y="30" as="targetPoint" />
          </mxGeometry>
        </mxCell>
        <mxCell id="wjWw7rBW3KYlUSdWjyjX-112" value="" style="endArrow=none;html=1;rounded=0;strokeWidth=5;" parent="wjWw7rBW3KYlUSdWjyjX-98" edge="1">
          <mxGeometry width="50" height="50" relative="1" as="geometry">
            <mxPoint x="80" y="110" as="sourcePoint" />
            <mxPoint x="110" y="80" as="targetPoint" />
          </mxGeometry>
        </mxCell>
        <mxCell id="wjWw7rBW3KYlUSdWjyjX-113" value="" style="endArrow=none;html=1;rounded=0;entryX=0.578;entryY=0.594;entryDx=0;entryDy=0;entryPerimeter=0;strokeWidth=5;" parent="wjWw7rBW3KYlUSdWjyjX-98" target="wjWw7rBW3KYlUSdWjyjX-106" edge="1">
          <mxGeometry width="50" height="50" relative="1" as="geometry">
            <mxPoint x="110" y="80" as="sourcePoint" />
            <mxPoint x="140" y="50" as="targetPoint" />
          </mxGeometry>
        </mxCell>
        <mxCell id="wjWw7rBW3KYlUSdWjyjX-114" value="" style="endArrow=none;html=1;rounded=0;entryX=0.578;entryY=0.594;entryDx=0;entryDy=0;entryPerimeter=0;strokeWidth=5;" parent="wjWw7rBW3KYlUSdWjyjX-98" edge="1">
          <mxGeometry width="50" height="50" relative="1" as="geometry">
            <mxPoint x="9.930000000000064" y="80" as="sourcePoint" />
            <mxPoint x="9.930000000000064" y="40" as="targetPoint" />
          </mxGeometry>
        </mxCell>
        <mxCell id="wjWw7rBW3KYlUSdWjyjX-115" value="" style="endArrow=none;html=1;rounded=0;entryX=0.578;entryY=0.594;entryDx=0;entryDy=0;entryPerimeter=0;strokeWidth=5;" parent="wjWw7rBW3KYlUSdWjyjX-98" source="wjWw7rBW3KYlUSdWjyjX-102" edge="1">
          <mxGeometry width="50" height="50" relative="1" as="geometry">
            <mxPoint x="9.930000000000064" y="120" as="sourcePoint" />
            <mxPoint x="9.930000000000064" y="80" as="targetPoint" />
          </mxGeometry>
        </mxCell>
        <mxCell id="wjWw7rBW3KYlUSdWjyjX-116" value="" style="endArrow=none;html=1;rounded=0;entryX=0.578;entryY=0.594;entryDx=0;entryDy=0;entryPerimeter=0;strokeWidth=5;" parent="wjWw7rBW3KYlUSdWjyjX-98" edge="1">
          <mxGeometry width="50" height="50" relative="1" as="geometry">
            <mxPoint x="110.06999999999994" y="40" as="sourcePoint" />
            <mxPoint x="80" y="10" as="targetPoint" />
          </mxGeometry>
        </mxCell>
        <mxCell id="wjWw7rBW3KYlUSdWjyjX-117" value="" style="endArrow=none;html=1;rounded=0;strokeWidth=5;" parent="wjWw7rBW3KYlUSdWjyjX-98" source="wjWw7rBW3KYlUSdWjyjX-103" target="wjWw7rBW3KYlUSdWjyjX-102" edge="1">
          <mxGeometry width="50" height="50" relative="1" as="geometry">
            <mxPoint x="70.06999999999994" y="150" as="sourcePoint" />
            <mxPoint x="40" y="120" as="targetPoint" />
          </mxGeometry>
        </mxCell>
        <mxCell id="wjWw7rBW3KYlUSdWjyjX-118" value="" style="endArrow=none;html=1;rounded=0;strokeWidth=5;" parent="wjWw7rBW3KYlUSdWjyjX-98" edge="1">
          <mxGeometry width="50" height="50" relative="1" as="geometry">
            <mxPoint x="81" y="9.930000000000064" as="sourcePoint" />
            <mxPoint x="40" y="9.930000000000064" as="targetPoint" />
          </mxGeometry>
        </mxCell>
        <mxCell id="wjWw7rBW3KYlUSdWjyjX-119" value="" style="shape=image;html=1;verticalAlign=top;verticalLabelPosition=bottom;labelBackgroundColor=#ffffff;imageAspect=0;aspect=fixed;image=https://cdn4.iconfinder.com/data/icons/computer-and-web-2/500/Done-128.png;fillColor=#1919FF;shadow=1;opacity=50;fontSize=18;fontFamily=Comic Sans MS;" parent="1" vertex="1">
          <mxGeometry x="1635" y="336.25" width="28" height="28" as="geometry" />
        </mxCell>
        <mxCell id="wjWw7rBW3KYlUSdWjyjX-120" value="" style="shape=image;html=1;verticalAlign=top;verticalLabelPosition=bottom;labelBackgroundColor=#ffffff;imageAspect=0;aspect=fixed;image=https://cdn4.iconfinder.com/data/icons/computer-and-web-2/500/Done-128.png;fillColor=#1919FF;shadow=1;opacity=50;fontSize=18;fontFamily=Comic Sans MS;" parent="1" vertex="1">
          <mxGeometry x="1675" y="381.75" width="28" height="28" as="geometry" />
        </mxCell>
        <mxCell id="wjWw7rBW3KYlUSdWjyjX-121" value="" style="shape=image;html=1;verticalAlign=top;verticalLabelPosition=bottom;labelBackgroundColor=#ffffff;imageAspect=0;aspect=fixed;image=https://cdn4.iconfinder.com/data/icons/computer-and-web-2/500/Done-128.png;fillColor=#1919FF;shadow=1;opacity=50;fontSize=18;fontFamily=Comic Sans MS;" parent="1" vertex="1">
          <mxGeometry x="1675" y="422.25" width="28" height="28" as="geometry" />
        </mxCell>
        <mxCell id="wjWw7rBW3KYlUSdWjyjX-122" value="" style="shape=image;html=1;verticalAlign=top;verticalLabelPosition=bottom;labelBackgroundColor=#ffffff;imageAspect=0;aspect=fixed;image=https://cdn4.iconfinder.com/data/icons/computer-and-web-2/500/Done-128.png;fillColor=#1919FF;shadow=1;opacity=50;fontSize=18;fontFamily=Comic Sans MS;" parent="1" vertex="1">
          <mxGeometry x="1635" y="468.25" width="28" height="28" as="geometry" />
        </mxCell>
        <mxCell id="wjWw7rBW3KYlUSdWjyjX-123" value="" style="shape=image;html=1;verticalAlign=top;verticalLabelPosition=bottom;labelBackgroundColor=#ffffff;imageAspect=0;aspect=fixed;image=https://cdn4.iconfinder.com/data/icons/computer-and-web-2/500/Done-128.png;fillColor=#1919FF;shadow=1;opacity=50;fontSize=18;fontFamily=Comic Sans MS;" parent="1" vertex="1">
          <mxGeometry x="1565" y="468.25" width="28" height="28" as="geometry" />
        </mxCell>
        <mxCell id="wjWw7rBW3KYlUSdWjyjX-124" value="" style="shape=image;html=1;verticalAlign=top;verticalLabelPosition=bottom;labelBackgroundColor=#ffffff;imageAspect=0;aspect=fixed;image=https://cdn4.iconfinder.com/data/icons/computer-and-web-2/500/Done-128.png;fillColor=#1919FF;shadow=1;opacity=50;fontSize=18;fontFamily=Comic Sans MS;" parent="1" vertex="1">
          <mxGeometry x="1527" y="422.25" width="28" height="28" as="geometry" />
        </mxCell>
        <mxCell id="wjWw7rBW3KYlUSdWjyjX-125" value="" style="shape=image;html=1;verticalAlign=top;verticalLabelPosition=bottom;labelBackgroundColor=#ffffff;imageAspect=0;aspect=fixed;image=https://cdn4.iconfinder.com/data/icons/computer-and-web-2/500/Done-128.png;fillColor=#1919FF;shadow=1;opacity=50;fontSize=18;fontFamily=Comic Sans MS;" parent="1" vertex="1">
          <mxGeometry x="1527" y="381.75" width="28" height="28" as="geometry" />
        </mxCell>
        <mxCell id="wjWw7rBW3KYlUSdWjyjX-126" value="" style="html=1;shadow=0;dashed=0;align=center;verticalAlign=middle;shape=mxgraph.arrows2.arrow;dy=0.6;dx=40;notch=0;fillColor=#60a917;strokeColor=#2D7600;fontColor=#ffffff;" parent="1" vertex="1">
          <mxGeometry x="436" y="364.5" width="84" height="52" as="geometry" />
        </mxCell>
        <mxCell id="wjWw7rBW3KYlUSdWjyjX-127" value="" style="html=1;shadow=0;dashed=0;align=center;verticalAlign=middle;shape=mxgraph.arrows2.arrow;dy=0.6;dx=40;notch=0;fillColor=#60a917;strokeColor=#2D7600;fontColor=#ffffff;" parent="1" vertex="1">
          <mxGeometry x="760" y="364" width="84" height="52" as="geometry" />
        </mxCell>
        <mxCell id="wjWw7rBW3KYlUSdWjyjX-128" value="" style="html=1;shadow=0;dashed=0;align=center;verticalAlign=middle;shape=mxgraph.arrows2.arrow;dy=0.6;dx=40;notch=0;fillColor=#60a917;strokeColor=#2D7600;fontColor=#ffffff;" parent="1" vertex="1">
          <mxGeometry x="1085" y="364.5" width="84" height="52" as="geometry" />
        </mxCell>
        <mxCell id="wjWw7rBW3KYlUSdWjyjX-129" value="" style="html=1;shadow=0;dashed=0;align=center;verticalAlign=middle;shape=mxgraph.arrows2.arrow;dy=0.6;dx=40;notch=0;fillColor=#60a917;strokeColor=#2D7600;fontColor=#ffffff;" parent="1" vertex="1">
          <mxGeometry x="1410" y="364" width="84" height="52" as="geometry" />
        </mxCell>
      </root>
    </mxGraphModel>
  </diagram>
  <diagram id="vxU6KvP0ZhlDNp8yyGgi" name="architect_overview">
    <mxGraphModel dx="1687" dy="1040" grid="1" gridSize="10" guides="1" tooltips="1" connect="1" arrows="1" fold="1" page="1" pageScale="1" pageWidth="827" pageHeight="1169" math="0" shadow="0">
      <root>
        <mxCell id="0" />
        <mxCell id="1" parent="0" />
        <mxCell id="84pqxxeoyV_ZSP_-_f0e-2" value="" style="rounded=1;whiteSpace=wrap;html=1;" vertex="1" parent="1">
          <mxGeometry x="10" y="670" width="900" height="80" as="geometry" />
        </mxCell>
        <mxCell id="84pqxxeoyV_ZSP_-_f0e-22" value="" style="rounded=1;whiteSpace=wrap;html=1;" vertex="1" parent="1">
          <mxGeometry x="10" y="760" width="900" height="80" as="geometry" />
        </mxCell>
        <mxCell id="84pqxxeoyV_ZSP_-_f0e-23" value="" style="rounded=1;whiteSpace=wrap;html=1;" vertex="1" parent="1">
          <mxGeometry x="10" y="850" width="900" height="80" as="geometry" />
        </mxCell>
        <mxCell id="84pqxxeoyV_ZSP_-_f0e-24" value="" style="rounded=1;whiteSpace=wrap;html=1;" vertex="1" parent="1">
          <mxGeometry x="10" y="940" width="900" height="80" as="geometry" />
        </mxCell>
        <mxCell id="84pqxxeoyV_ZSP_-_f0e-25" value="" style="rounded=1;whiteSpace=wrap;html=1;" vertex="1" parent="1">
          <mxGeometry x="10" y="1030" width="900" height="150" as="geometry" />
        </mxCell>
        <mxCell id="84pqxxeoyV_ZSP_-_f0e-1" value="" style="shape=image;verticalLabelPosition=bottom;labelBackgroundColor=default;verticalAlign=top;aspect=fixed;imageAspect=0;image=data:image/png,iVBORw0KGgoAAAANSUhEUgAAA6QAAAGcCAYAAADOCW00AAAAAXNSR0IArs4c6QAAAARnQU1BAACxjwv8YQUAAAAJcEhZcwAADsMAAA7DAcdvqGQAANADSURBVHhe7N0FYBzXnT/w78zsrpiZyZYMMjNjnDiGcNKkbZo0SXvXu/Z/2Ou1vcL12isc9bjXpm3SMDgOOI6ZmS3LMgosZqaFmf+b3ZG1klZoOSs730/vnWbeohz95r3fvDdvJE0AERERERER0adMNn4SERERERERfaqYkBIREREREZFXMCElIiIiIiIir2BCSkRERERERF7BhJSIiIiIiIi8ggkpEREREREReQUTUiIiIiIiIvIKJqRERERERETkFUxIiYiIiIiIyCuYkBIREREREZFXSJpgbI+68ooqY4uIiIiIiIjuBnGx0cbWreMIKREREREREXkFE1IiIiIiIiLyCiakRERERERE5BVMSImIiIiIiMgrmJASERERERGRVzAhJSIiIiIiIq9gQkpERERERERewYSUiIiIiIiIvIIJKREREREREXmFpAnG9qgrr6gytojodgr/5OfGFhHdCeru+6axNTyMdaI7y0hjnWisi4uNNrZuHUdIiYiIiIiIyCuYkBIREREREZFXMCElIiIiIiIir2BCSkRERERERF7BhJSIiIiIiIi8ggkpEREREREReQUTUiIiIiIiIvKKsZ+Qqm1oabEbO6NFRVtNBWo7VGPfnQrVU/WI2cT/bo2jvgyljZ7+DRyou3ENxXUd4lsTERERERHdWcZ8QmorPYOP3nkXW45cM2pGgaMBlw5txaa3NmHrsQI0uWdz1kLse+NlHLvRYVR0GVlSrDZewmtvb8fZ8pGmpZ24cW4ftm5+H229s05HIwpOi8c2vYFNh2+gzagemAOt7R3o7OwcdmlpH+0TA0RERERE9FkmaYKxPerKK6qMrZHqQP7eTdh1TULa4vuwekKYUX9rrMWHsGlbHlqC0rFo5UJMjPI1HhHsZTi0aSsyHn4OsSajrqMaeccOIGzBw4i1GHVDYkfZ0c346EogFj2wBpNDhp//qw05Ihk9hlI5Gs8+vRFmo96p9SK2vn0YJf4Tcd/GRUhy+zX614pf/fo1Y3t4YmY9ig0zw6AY+zR2hH/yc2OLiO4Edfd909gaHsY60Z1lpLFONNbFxUYbW7duTI+QOmov4UJhGyyJ0zA303My2lReiIIbxSguLnErxSgqvIGqPkOKLhfPXUOzKRrTly3GxJA2XM+5ajwiSBb4iKwvzJmMtqPqyjF8vPkjHLhSh0tFrcOaGuuozcWpyw2IRilOHb6IOofxwJB1oDjnIsrs/kifv6JnMip0lJWjyiYhIj0L8UNKRnVmyL6JmLlsBVYuH3pZMTsVsskEyXgXIiIiIiKiWzWmR0gv73wN+wvaYAoIQaClVyqkqbBpMZgfVYJd19r6JopyJGY9sBGzI3uP56l4+TevIXL+/bg3OwQNZ7figxM1eOqFZ+CjP+yoxckPNiMyKxtXL11FkcgiA+PHYdLkiZiaEu58hyFx1CN3xxYcLg/Co/P98NGhMvhNWon7FybD33jKYOxVp/DhlrNoS16GjSvGIajX6YOru17BnsIATN+wAXOju4ZzB2PFr187inseW4rU3hnuAOzlR7G1OhvrpgZyJawxiKMmRHcWjpCOMXoXY9R6Q4GQkrMgWSug1pYDtuGcynYjhwJ+rUDrra5EQd7EEVK6W43mCOkYTUhVNF/bj7fOmLF6/SKk+OlVzfjNlnw8vm4agt0yoqL9r2NHaSLueXQJUowEqyN3K145asPMh9djZpjbk22VOPXxJwhf/UWkBXTX69d5vvhxBVZuWIoMv3pnQhq98mkkhwwjY7vJjtqLe7HtSBG0pIW4f9VEhOk5saMBl/dtw8F8Kx5/9osIGmTea2Pedrx/uA6Jy9Zj+ThXElh96n18cLoKDksMZt17H859+NKACybJgRPwwpNLjL0uVvzfr1+GLA83rdQQpU/ZnR7ChHQMYieV6M7ChPTTpMA0bx00e1diKEHqvAz7hSvGfgiUtX8Ldce3xHOMqqCJkCMsRpIqslVLoPMyGbWszvnwwHwhr/wOTOG5sG9+A+oIl1+QV/wApmQLtGvvwH70NDR9llXm87AsGAft3C9hO9sM86NPQ933Gziqra4XDZcUBilrNiTZ0+tlSCYztIZzUG9UGnU0XExI6W71GUhIdVZcr5WREWGM/NmL8ephFY8vTekxdXWoCam16jJOHD+FvAoVS5fMhs1mg91uv/kz50Ie/NOXYeOyMFz+cDOmPvQcel4uascH+/Iwa9ZkJAT2n5KVnd2GvaeKYY+egdX3zOo5ldZej8sHd+FURzoWL5qG5AGy0m2v/Bb1ySuxcWnqzRHV7a/8BoWOKExduRpzY+rx4ttXsHT9AiT1vq5Va8HFHR/gjC0bLzw6z6jsYsWvX96OSdNTETzM+bdKWBomJAYwIR2D2En1PmXlNyD7DRZUGrTSj2E/ew3IeAwmn8OwXyw1HvNMmvIl0SkNgHrxZTgKWgDTVJjvXSFC+Rrse7Z0d6D7E7FCdManQpI02Lb8u1FJ3saE9NMkw/Kln4iY6TQSTNGK3Xgd1sMXnY/qI5rKvd+FY9u3jH0h6gH4rHM/oeuAevrnsJ2vNfYHIhLSFd+GKSwHtvffdiWSI2B+6hcicT4J2wdvQus6+zzuWVgWpkE9/BPYr5lgefr7QMsZ2LeLxLfFw0hs1HwoUSKp7P2QbILkK5Ls6uvArGdgCu2nZRcHGPXcv4rklwnpSDEhpbvV3X8Nqa0Qh97fgpyDH2Pz+x+4ykdH0Fl6Clu69vWyefOQr+mU1QaUVbbBobVjz/4DOHjkGI6fOocLl67ielEpIgIVtBYcx/GC/s4yWlFx7TrKO/rP3+2NN/DJiRKocbP6JqM6Uxiylt4HtfQ0tm3+CPsvlKLZQ2eyoyIXN7RYjItTUXblMvLyLiL3wnkUdfghZe5yzE3yRf3Fs4jMmoKMED/4+/Uqvib9vCak/kZBTcFImJiNKVOGVyYxGSXqlxSeKEokJB9/YIAimYyTbHXNkDOmizh17fZHTp8EKUwkurXGOtpyEOSoJMjxs6Ak6dNHBmKGlDHb9XxRiD6bRE9Bq4Tjkx/C+sb3YX1HT/B6r6Tfi8MOx9Ffwrr5n2HdshuqwwHNOrS17EeHiF1zJ7TLe7qTUZ0qsltJHENM+smvFtjyyoCgGTAtWe2s7iNkIkxzH4B5fq8ydx1MUxdDjqiHY8eP0fn7v+pTrGeLRf7eCq2+wXgzIqLbY2zmF+Ko6hsQiKCg7uJj7xDVfgh0qwsMDBzyIjum6ImYPXsGFixZiUce/Ry++KVn8cJzz+CZL34en//cY9iwchrGjZuCSfEWSOJNLxWWoqyiAhWVFSgvK8b1s0dgictARnjfUU1r/Q1cOLIN7763HeGTlmPdmhn9LzIkB2LjqmlIMNXh0pGteHfTJzhwrsB40EVur4baUYpTe3dh174DOHD4GI4dPwG/lNlYkBUiGoc8HDtfgamTo+DxylFNE/+nJ85D/dcholHRngv7B/8I26b+yk9hO3nJ9dyGs0BoJmTnnP7+yfrq3DV5cDR3n37T2htFjAdCTp1q1PRDSYecGCW+l3j+UM/eEX0miDYyZiVMK5+BafmjkINl8fNLYv85mCYkOttRdFZBayiH1tLuen7/56NHX8AsoOkM7Jd6zTSzi+xUk0Wy6poapZ18HfaSZiBa/C7zZ/Rt9m9sQucr33aVdz+GalehXX1J7H8XnW/+HDb9/VsbIWUug5yUKjpLxut0Pj7iA0RCOur3gici6mmM3/YFUNtKcXLnLpxrjsVDs/2w7+hlNPqlYc7SRZgS64vCfa9jR76EqJgQdK17pLXVoqwhEDMf3IBZEe6dvQ7kbXsD+2/0vfJSiZiBBx6YjSjn060ozC+GzW6HQ9WTO/G4XzgyU/sOTX/8yoso08KROmk6Zk1Jw/E3XkaVyQKz0n+u77B2wJS2Ao8sToC16irOn8lB0JwHMTncU3ppR+WpLdhy1oovP/eY+GoNKCksRFGlhEVLpqCl+AoqfNMxLspt3q6xMNNZaQaef3CmUdnFtajRmseWIkUqxdEth1DsGPj7OmkO+GfegzWTAo0KGks4jc/7TI/+HDJOD+uaMfPnfwGpaR9sWz7ynDAq42F5YiXs7/8KaqtRZ1kEy33hsOUnwDwrSXRI/xW23BrjQXe+kJf+NUxJ1XDsK4O8cglsL/+18Rh5G6fsfrosT/85HB/+Eo56EWimbJhntMJ2outksIcpu2H3wxS6C/aCTsBvBcyProZ2/B9gv6wnp0LGYzBnRon2tm/gSrEZkOSuDokKtTzfte1OMQONR2E7fMKocBO7EebVS6Bu/zYcVb36K8H3wvzgKuDKr2E76naHgLBEcSwpGWB6sAXSwr+COb0Bjs3/C0ev6b3KQz+HYt/f41gkr/4xTFHXYH/nd1D7dptoiDhll+5Wn5FrSIHWshwcPXQa+e3hmL5qNeYk+KGj8jz27jqBG9ZQZM5fhnEtp3G+RoOiD2t2EUdTu8MHyfOWYkqPVXZtIoF9G9rcRxDvnn9pLfjDrnI8uS4bAWojzm/fipbx6zA/I2jQIeS2mkp0BMYgfMi3XfFEP/p7/iRb5Sls2ZoDx4R78Mj8BKPWxVF9Gh9+dBo1vmlYvHY5JoQav6ujBic+eB/n5Jl4/oEZrrqbREL6+jGscbvmlu587KR630gSUuXeH0OJroXjY9FRrvXQk4x7FJbsClh3HDQqhK6EdFcdlI0PQG7cCdvW7c4TZz34zIbpwcch134A67lwmNcyIR1LmJB+uixfEv9uDhGYzjiRoF35v1tLSPulX6/6U/FZ4oNsjeLAEArrq8P4b23OhLL2GShhZji2ekhIzQtheuxByMWvwnrgnFEpmMIhxWdBjkmD1PAh7FebjQcMpokwPfAs5HbPxwvTE+L4VbsZ1p2HjRpxfFr7Uyj+p2F7/63Br1WnfjEhpbvVZ+A+pJ2oL87Du1uPocAWg9mr73EmozrfmKlYfe8CpFiaUV3ficTZa3D/fffi3nvXdJf77sO6dSt6JaMukkhcZZMPfHzcisWkP+Ca6SJbIKttiIzvlYzaG0Qq15d/5K0mo7p+/jO038CxA+fREDEdS2b3TEZ1StREzJoYCaWlAEd2n0TxzXbSNarbL8UEc+9pPUT0qXMUF4vwj4ac2je+ndeQpY6HeiPH2O+l/RzUijYgYjJkD5cSIHkqZJ92qEVunVaizyqtEerl/XDkinLxrFF5G5jGiy7MdahVIpG1FcBR3gZ5gIUQe5DCIM9/RCSjDmhF143KXrR6vYskOh/xkNNEcrr8qzA/8F1YnvxbmFc+AtOkGZBCYl3PdZc0G3KAHVrJOY/9A0mfZNXW61pRvaPQ2SIOVMY+EdFtMiYTUrWtBtfOnIQpbhpWr1+FpKYz2Lv/AA4cOOgsRy7WwTc8GoGdBTfrXOUAThUNdvYS2PXq7/G737uVl98zHtEpUGQJ4TdnwNrQUHQGOzd/gINXm4a8iNIts1Xj/J4DuNSZgHlLshHSVo3TR/dj+5b38N7BQiM59kPSnGWYn+IPe+0F7D9kLGGvtzZ6g+M+anyTFZLZLDqyV3Ah9yIu5uUNq+Tm5qLA00gOEQ1fUS5UmwIpYWrfxY1MGVDiw0RC2WhU9NYCteCqiPNYyOnJRl03OTUN6LgmXt9rpIToM6kN2rXtcJz9BI6cXKNutMmQJqyEVnDAmOJqh3r1IpSJ6c5HBxYAacYXYUoPA8p3w17QJGLbBwhNEseHGZAnrIYy73Mwr39UJJYSpLhVMC99CFKQSeTa1+C48DHs+34L6+a/h+2k21RenRwvvsME0S+ohdYaId5vEuSMBaKMM54gSJp4rOfUf0m/DsraOvAJbiKiUTBmp+w6GgpgDU0TKZcDdac+wqbTDQgJCzAe7Ye9A2GzH8fqcb3vg9LFhqL97+BG0CQE9cjVbDhZ5oen7p8Mf5Gw5X3yKqJXfx5y6SXk5FzEtfIW2CUzpsxagglT0133FfXEXozfvrIHXZeODEhzQEleiidWZvS6vYxOxY5Nr6GwtgOKX5D4N2hHS7sNmmyBf2AIEqevxNKs4JtnE9TWQhzcshuXGs147oUvQrFX4dj7HyLHMhvPb5hmPMvgqMaL2ypxT/glbMupH0GCbUHasiexJrO/f2PyBk7j8z7nlF1zhUgSC/vvwFUfhSO/zNjRhUBe/Vcwxde7pu3WuJ3sSXgCllWzYe09zbZryu5HH4pjwiSYHngGsnoM1vfeNZ7gYv78zyEVvQLrwfNA1EZO2R1jOGX309X3GlIZatB9kP3bRdst6kJTgIZC8UzRwFtUqHlFkOw7hjdl128WTOufgPrx94G5f+u67csHh8Rr18L+4Yvd14F7IE3/GsxT04D2i7B/8hLUsM9BseZCWvJ5KPp908VBRbO3QC29Ir7rVMh+hXDseEMcM/o7YeVmvH6rmMl9zlFrVdtg3brDeQLb8vSPoB7+MezXulcfNn1OHNMq3oJ170mjhkaCU3bpbvWZuYbURUXTuY/x1kkZzz93v1Hnmb3kEA7a5mJ5Wn8XR7oS0lx7HHx7HJgdyG+P7ZGQnrGmYlxmFiaMi0ewx6VsPRCJ4G8+LsNj66dDXxizX9ZL+OTVQ6jLuAePLU3ucV/VLgW5l6DEpiAhwk9vHoegEyWnTyB+5mLI9goc2bwFub5z8fz6KcbjLmr9GXxYlI4N00VH2KjTqc2XsGPzQdxQkjFv5WJMjfWHvbEQOUUSMrNToLeHNHaxk+p9zoRUOgf71o+cd2bwSHQoYev1oM88mB56BHLbAVeSqZ8lEh1m04NPQ1YuwPrmy67ndXFPSPXnRm2A+T6RbP7BrdMjJ8CycS5sH77nWuSECemYw4T002V5+u+gXT3nGrmU9BO6h7qvIQ29D+aNq+D44G+gNhinaYd7DWn8QzCvXAip6SCsH2zrcR9SadWPYIpuEAnkf8BR2d+t5SxAUADQXO/aTX4KSsfbfa8h1U34Cixzo6Hu/TnsN/p7P4N5HCxPfdW1XbVVJKC7nZumR8TxquVjWLftFXsKLF/6PrTKnosiyfHjgaYiqC02SIoJtk/+y3iEhoMJKd2tPgPXkHqgNWLv3n0DloO5FcaTB9bS2IDGHqXJeKTbvetWYO6EYSSjoyxt8gQke0xGbWiurEBtn1uo+SBRT0ad25rz/zxN2bVW1SAsvO/9REvP56DYGoTMBYucySjUJlw9egAnjh/AvtxacD0DoiHQe3Mdjc7brHgsvZNRXecFqJVtrlvAdK0KHj8FsghDlPdz/ai7mlNQ6xyQfYx9XfhMaCVnBlhxk+izRLR4kj+k5BlQMkRJzzTqDdGJkNSq7mR0uHyzYZo7FxKq4Di13ajspp49Ck2LhTJ/vXMWrmcisexKRgdTJRJHBEGKiDQq+mFJh7LiKaD+ErTWgcYe9Gm/DeLfyORMPLuKVlkArV2FZImAFNP3sgAiotFyB417OdDe0TFw6Rxa2jRv/YN46EG3snGl8cjA7GWXkVPkeXGj287WjFOHduL9N17Hm1vPiWZvAKJRUfR+bZ+EtAOlpVWIi+6bZR+/3IzAzHmYk2ZMi5aDkbVwEbKCbSg5uR8nSga5iTgRjVAr1KJ8Ea/RkFOSxL6P+Klf29Us6i86nzEgrQKOGyWQU0OMCjOk9IlQ84uNfaLPOtEgdl6GfdMPYX1TlHffMup1vpDjEkSSdxymjX8OU9IwVymUIiHPfxByiAbt0vtwlHoYQa3aAfvlciB0Lszz54rXGPUj1ZQPrUUSh4wso6IftlrnMcRx7MjNW7l41gnb5n+Bbet/w/aJh3JOHJ94ISkR3UZ3TkIqhWPtffcOWO6ZmWg8+fZorryMYzu24FD+7U9J6ytLkH/pPE4c2oNPPngHr7zyFk5dLEajHIrE8amIHuiWLaLl0RsffUVhd2pLIa6VtCO+V3vraLyGprBsLJmTCn1QposclI5FK2YhXqlF7oHupeCJaJQV50BtFx3M+KmAaQLk2CCg7RrUUn05zcGIYM/PEQmpcVN8JR1KYiTUeg6PErmIhNTa4jkp88mGHCNBLTgDmGMhZ802HhgaadYXYEoJBir3wH7GWFiwDyu0s+/BUW0DUh+Aec4ko36E7PlwVDYCkYMkpFojtMvvwFEzwpHfLj56p8HD1GEiolFy51xDerx8SCuPZ61+ZsBrSAv2vg0segr6U9TGKzhytAjtcieKbKn43P3ZCIAd5Uc348OcRihmC8wmGbKsQJYcaGmTkb54HVa6LSjUg70Kv/rd+8bOYCQEZa3p5xrSDry+eT8SEhOQlJyMxOggj9eZ3uSowfm9x1Di8IVirUOFaKg6ND+MX/EIVmboDYmK5usH8PHeq2gOmYLnH53nep2tGAfe3Y6Lze6NlegUyyYEBQXBx+IDi49F/BT/DlIzSuwZuH/lJIR7aRoz9Y/XlXnfSO5D2kPyk7Asnw57YStMqTaou/4Z9lIPJ796X0Nq0O99qJ3/XziCnoYpoRzW139tPCLwGtIxh9eQfopMs/SwgXXfKWNfX9SoFbZTGpR1L0Cu+C1sJ66Lf9y1MK9bDlz5DWxXxndfQxqwCuaH7wFO/wS2XOMSH1Mc5LmfE7HWDMeFKkgJEaJN7Qp80Y5GToTkUwe11LiUSBJJsbkJ6sU2KEtWQqrfD/vhrVCb++nZDHQNqU5OgLL2T6Dt/jbUwW4uoEyA6YEvQ27/pO81pHnx4rgzs+8q3zq1Bvad/wo15o9hnmKB9WX+7Y0EryGlu9VoXkOq/EAwtkddS8sAS8oNmYaOiiu4WOGLe9cswbhx4/otGZEO1FlSkNbvMrg2VFw6C3vKDETptx41q6jIOY6L5S0YP2sBxkX4imZERlBUNJqb2+HvJxIysw98/f0RFByGKfOXY3Z6cP+LDKktOFfui9WLp2O8h+93s6QFoKWwCp3hachODfXwfiZMmZCBlPhohAX49P95XWTxPZuu4MTFYtS3OuATGouMqfMxNysc+qrtalMhzp3PR1WLCWkLFiM1zFghVwmAj9oqOrAJmDptOrKnTMPMmbMxb/5sTJs8CRMnZCJzfAYy0lORmpaMs2fzEZWciHCfW51vRKPN79ohY4u8RZ50jzh+lEO9dGGQ6XH9aNUgZUyHHGyB1JED+6kc/fDXl5IMZZwf1CtXejwuZa4Rr42FFBYFqWovHAWlxiNCQBaU8SlQz+0wKsjb2seJDGkEGOsjEDUfsuUS1ArjFkhyNJQ4GVrcOpiSHNBKmkRCOR2mSdmQ/AIgBSjQbnRACgmBNH4plIkiLvW6kgMiRxNJZ8ximJY9DiUxHI6dv4RDngIlNUEkoP6QfANFEe8hfkIRbaUs4lmv8xPFxwrt3HsiyZSgTF8JOX2ySASbxXtW9Y31kCmQ7RehtfZzMNGaoXVGwzzJDMcN9/Uz9Myy15vJkZAnzIDkHww5PhtyxizIISKBbrsKx9Ur0BrzoRbkQC260LOU5UOrrgTiF0OJ6ITj3DHjDWk4RhrrRGNdUOAgdz8ZhjtghNQ1YvlRrgUvPLfRqPPMXnYKR9omYsk494mn7mxoLC8DIlMQ4hxyVNFWX40mmxmx0eHOZ9wSexne2F2PtasnD7zKbkchThy4guboKVg6LU6kn7dOba1AYVk7IpOSEezrOYW1trZCCxBJqLE/XG1WwJ93exmTOGrifc4RUks11OISz4lkl458OE4f85C0io7rwr+CZXyoSGr/D7Zj14z6XvoZIZUW/C3MWRHioN4Mx/6fw17gNmzCEdIxhyOknxYF0sxvQKn9b9iLjCnw+gjpnCRoySug+InGWgSS1lkHx6Uj0PQVrifFQD1/Bmg6CW3in0CJFIll7WHYd74PVc2Aslgko0miz9B4FtbNr7reswffHqvselpczLTh7yEHNkA99wHseSLWex8zBhsh1UmhsHzxz6CdfRm28/lGXRTMi6bCfnYPtBbjANE1QmqpgdbQ4qySItLE7/QxrJ/sce73zwfy0m/BlFwB6yu/MupoODhCSnerz9gquyaETVyGjesHP8Nkip81QDKqMyMkrisZ1cnwD4sZnWRUZ4rH59YMkozqfFMx5541WDlKyahODohF+vi0fpNRneUWklEdk1GigUmWGCgZs6CM67/IKan9HHmt0AqvQNNEUltYZNQNnZafJ/rVGrS2KyIpHmwOH9FnhJwEOVEkmJXu12OL7M9+BY4Lp+DI/Ri27f8E6xs/hePsPqi5p6HWl4kkUrTOWg0cJ1+D/RPx+EciGdXX9rNeh2PP/8B+fDNsn3hKRofGvvU/YdvyX7Bf9JCMDpXWAEetSLinPw3zvFnOWcHwSYeUmAzJ5n62yvjZePrmQkVqp/hQWXSGBp3wJP4dfETj39n3bgRERKPlDhghJaLBcNSE6M7CEdJPScrnYVk2HdY/fAtS8mLIAaLL45sucrFDsB27ajzJg/B1MIXtgv36SFaYH3yEdFCpX4DS/iYclYMsJuSbCWXJ41Dig4FWkUjbQiHVvQfrgXPGEwTTLJgeeQJy2z6RBG9xzqyQxi+GZC+BWlBoPKmXkHGQ/H0hRc2AMmUqpIadsG7ZZjxIw8ERUrpbjeYIKRNSorsAO6lEdxYmpF5gyoCcnSESt1KoV3ONyn7EiIQ04hjsF2uMiuEIg7L2b6AE5sD+3qsjW+Qs7QEo1q1weFrYrD+mSEhx8dCKzxsVt8IC04pHoFVfhnr9rPN+pDQyTEjpbsWElIh6YCeV6M7ChPRu5gNEJEFSWqBVuS84RJ9FTEjpbvUZu4aUiIiI6E7RCdReYzJKRDRETEiJiIiIiIjIK5iQEhERERERkVcwISUiIiIiIiKvYEJKREREREREXsGElIiIiIiIiLyCCSkRERERERF5BRNSIiIiIiIi8gompEREREREROQVTEiJiIiIiIjIK5iQEhERERERkVdImmBsj7ryiipji4iIiIiIiO4GcbHRxtat4wgpEREREREReQUTUiIiIiIiIvIKJqRERERERETkFUxIiYiIiIiIyCuYkBIREREREZFXMCElIiIiIiIir2BCSkRERERERF5xW+9DSkRERERERNQfjpASERERERGRVzAhJSIiIiIiIq9gQkpERERERERewYSUiIiIiIiIvIIJKREREREREXnFbV1lt7yiytgiIiIiIiKiu0FcbLSxdes4QkpERERERERewYSUiIiIiIiIvIIJKREREREREXkFE1IiIiIiIiLyCiakRERERERE5BVMSImIiIiIiMgrmJASERERERGRVzAhJSIiIiIiIq+QNMHYHnXlFVXGFhHdTlsOPmxsEdGdYt3iTcbW0DHWie48I4l1orEuLjba2Lp1HCElIiIiIiIir2BCSkRERERERF7BhJSIiIiIiIi8ggkpEREREREReQUTUiIiIiIiIvIKJqRERERERETkFUxIiYiIiIiIyCuYkBIREREREZFXMCElIiIiIiIir2BCSkRERERERF7BhJSIiIiIiIi8ggkpEdEAJMnYuEWKKdDYGgWSYmzcJrf7/YnGMikQ/kGpxo6XMdaJ6DOACSkRURdTkLFhkGdi7qodWJe9GBZnhYKQ5BecW8Miz8LMpa8gwmTs3yL/8f+Opze+h/VTl8HXqLtlpoWYkLlebFgQPvnXeHrDJmyYusL12ACUiC9j6bTPIXaUfjeiT5XPVMRHJIrI7uKLuGm/wefW/JOx7123K9ajffXfuDvWh/LeKxb9jLFORLeFpAnG9qgrr6gytkZCxbUaG8ZF+hj7OgdqTn6AzefbESMOzvfMTug+iFqvY9ebe5Gw4VlMCB2NPFtF49ktePtEJcwJ87Dx3ikI6/dEogPtLa1QFQtM8vCGUzSHFXbJD4F+PMLTyG05+LCxRSMmz8fCe36KthPrcbauxaibjfmr/xm5O5ah2ThSmsOewtMrnkBp7o+w+/JJWF3V/fJP+C7un3svgq0n8dstfy5qgpC18B0sjg/AgEcL9RrO7HoOpxodRkU3U/wP8dj86ag49nnsKTW+qyCH/wUeXP4wwj0dAtUC/GbTF42d3qKQueD3WBJbjRffewYBWb/C49kRuHrwaRysbDOe04+AF7AxZQ8+vHgNt60xuUutW7zJ2Bo6xvookrIwc/l/Y0bIDZw/8A2cqG026jMwdcn/oO3oGlwbMMAt+NzaV+BQXX/5iiUaAaZ22ORASB0VaLPr9RLyj38VDWm/wOQQFWqvLpfim4ZI/0q82E9sjiTWz+9aieP1/X1xV6wHX3oIJ8VzumL9d+8+ajzevw0P74V06XnG+giMJNaJxrq42Ghj69aN2RFStfkKdn/4PrafLUWr2lXZjoqqRiAkA3OmuSWjgr2hFvWdwLgBk1EVrXXV6LDaYbf3LTZrO5rralDfrn+gDL/AAJjFz4ik9AGSUV0Hru17B6+88gf8/uWXh1VeevUt7MwzGkEi8hrfxAeQGujA+a5kVCdHwc+socOt92Wrfw15jT5IyP4h1kxeNODIgm/017Fq5hqEqNeRe+pHRm0zCk6/gDfeX4nfvLPYY3lx0zq8uvVbuNDcNxkdiNpWh0440Fz2Bxw6/R9G+W9crG0VHcj+e9ZS8IPIjAmCrXavc3/gzqaC6eMfQVpEsqsBUcXx8vad1yS6bUzRj2BcmAnNxS/jXFcyqtOu4/L1Y5iYMXmQTpIVb2x9HG9ve0KUZ3G4rE7E4H5UOhyovfYNo/5xnKqvx/XTz+ODPV/BR3u/6la+jsOllSLehhfnuq5Y747z7li32/p/v65Yv9rgOh4MFLkhCc/0iHXncxnrRHQbjNmEVA7KREZQB4pObMeHu3NRWX8DFy/lIL/agcBQH9Rfv4S83PNoNJJVa00dmhCIgccZ7ag4uw0vvfQ7vPi7vuW3L72C1zZtx7kK18Fc9vGBRRLdL5PZud8/M3wsCmTfRKxcvmLIZcXsVARKEmQTR0eJvEqeisnj5sK38zS6zn85WeIRYNGPHD0dPvgjnK0FIpNWI859Eoeb4MRv4b75jyFaLkTeye/geEWd8Yg4XnXcQKut/wRRUxvR3l6Bzh5fZggcVucIjK35KPLy3zTKh6hu149p/b1ZJNKy1iJaEc/wXYh1S/8HK1OSROMQisTJ/+zcd5blv8bK8ZNEvYKZU7+MTHEcZteU7lhSBiZkLkGgPRd5V/b3OV3TWfYHRGV8GeP9Bzwb7T1GrF++GefdsW4M2HrQHeuLl7jiuivWb8a5W6z7RKxmrBPRp2LMJqT6V1u14T4sSAtAW+EZnCupxuHj11AvWdBZmoPjx0/g2LHjRhfLiorKWjh8Y5x7/ZOgKAoW3LsW99/nodx7D1YvnY2Mrjkwijy8fyAlAOPHjxtySY8NEqms/q1GadUUIhoBBaHpz2FCmIzG4reNOhdzeBqCpba+nbHOQzh16C/w4cGfoaDTqHOnjMf6uesQrl1BzvFv4khpqXgPZZATZgOT5IE7xsqghxHPCalP7AuYmRgJe/NZlDZUorWjBm02m/i+Dtg6a537rR216LB2iI6u/h4iudVKUVF2lZ1UumP5JT6L7CgfNBS9hDxPMxFE7DaYZmPW9EcRMkBs+YctQkLkFIT6RxqX7Jic/QZJDoG/byJCQmYMu4UfMNYl30FjXVM9j5C6x7orrrtjvWvfPdbtDjtjnYg+FWP4GtJerFew6YSE6XFdXToVdZcOY+r9X4RcfhSbtlxC4LwHsXxc13CFCltrM1q0QCREda1uaUPR/neABU8iZbBBT8Feehjvbr2E4EVfwNqJriVNPLPiyo7XsbfQBlkeTgqrQVUlxMx5BA9MDzHqiIaP15WNXEDKz/DArNmQ2yrQ0tkMm8M4JEr+CA5Ph7+jHBUNta66fkiKH87vfwY33PqBsUG+qGjuMPYsiM7+P6yJuoJTOS/hUo2eoA5HIBIzv44kSyM67HZEpT6FpIAOVBduxo1WFZJkRlv5r3G59VGsXf8V+F37f9iUc854bRAyF7yNJXHX8eKmPzHqugQhKHIpkgNrcK3wGLpya/+sX+GJfq8hVfDsw/+Jk1v+GDn6C/yew8bUvfgw7zo7rcPEa0i9RJ6ELz/wPVw5+qc4WF5jVHqgJ6RLfozpYR0oyfk77L56XvQieoqd9jruT2tGzrFX0Jby55gbfhk1lvlQCn6ME5UZmDr3c9jxwfI+syxcLIia8iI2jHfgt5ueMeq6Y73dbkJ06sM9Yt3i44vGov+9Gevb3lvudqrJFeuWU/fhQp8JGAPHuqdrSMMm/w4PZnXcjPX1D++FnPccY30EeA0p3Y1G8xrSMZqQtqOu1obwiGBjXxAJ6a9fPtjzFgyaiqef/xKqDm7C1rwmD+f/JfimL8eXVo0z9l0JaV3SAoR5OsOonxG0dkALCkVDWRnQVoaLl6thictArL+KZtEpbWmXkbxkIxYnu2e0roR0X3kE5s8Y3lLxmmqHKWI8JiUGGDVEw8dO6q0IR6C/Ay1tjca+ixz6dWxc+Rj8S3+K1459bNSOjBT0Rdy3/HnkbFuGkv5n6g7Z2gf2I8FUj+tHey50AvNTHhPSrIVvY3HMNbz43p8adQbTBMRHhsDe0dLjKjZL4l/ivqxQFJ76Ac43GI9IFvj4mtFaeQoPP8iEdDQwIfUCKRUZs/4R2R2/xNYLR/tM1e1NCnoCq5f8MZJ9W1B55Rf46MI+4xGXmKmvYl16DY5s+WvUTfod7k+4hjLLUpjznsRH1+di9dq/wN4Ph5OQuvH7PNau+eqAsd47IdVj3XTiPuT2zpwHifUPdv2dUSMYsd4e/sdMSEcJE1K6G93lCalI/K7uxQf7y7D2i19AeNfApEhIt1xJxLpsf6PChvw9byFxwQIcfHcPCgMmYtGUGHQUnsDx4kBMWTQREZoNDr9YTEgKvfkaPSHdfqXV2BcJof7bi+TUmZ+KbU1sRU5fgrrcY/BRHOjosMMcFImwQAtM7dUobQrD7IfXYWaPVY6MhLQ6DS88tdSoI/r0sJM62hSETfo/PDgxFsUnv4CdRfVG/QhImZi86F8xL6IK+4o1TA1VYR/yYdeEG2e+inPGAiQuCr70yD6YRbeyo24z9h/5d9zoMLqY/Sak72Bx9GW8uPkbRp2LFPRH2HDPFxA9xIkdmv0UDm/5C8zfwIR0NDAh/ZSZsjFx1t9hbmIMLlzfDrO9EdZ+prfqJNkHJnMQHG3NiMl8GLEWO3ZsXYMbbd2v6U5I/wb1IiFdG38JZT7LeyWkqxAw7u+xPDnGed2nO8U3BRF+nlfZDc36FR7InjxgrPdNSN+BcuJeXOyVkI4k1jddDWZCOkqYkNLd6C5fZVdGQHwWJqf44IOP9uFilTHlTVNhbalCcXGJUcrR2Kmi9nIeitotSJgwDVkZGYj0lSFZghGbmoHxmRPcktFua770PF54/nk8u3YSQuRQTFn/jHP/hReexTNPPYIVE5PxzDNfxJMrMhEkyYiech8eWH8/JkWZIUkW+I3VRQ6IaHTI2RgXnw7ZdhXl9QEI9E/sWQIyEBY2D7EhkcYL+hOE2MnfwqyYADQW/hdURwestlZYrf2X6LBo8bld+y3omkF8kzwdJs0hOqEKfCMewvLFf41Uv65jkuo8ySbJnq5W7TuHRGs/hLMn/g5bdv8J3t/VXbZevio+txr5p77RXb/nr7Dj5Nso77//TjRmWcIeweKlv8CCxFjYa95ASOIaTBz/MKZkPirK45g+8QvGdnfJFo9npy9DhO332HnkFZR1KFi16ndYkbUEgX1mWZng5+MP2LtW63XvXol4NUUjPCwFflrPeG9vuYaqfi4JyErO7BPr3Vyx7omn6sFi3b2uK9aJiD4tYzAhFV8qIAHTV29AQNNVHNy6C2drxQG5rR1VOTvw8SdbjbINx4s7cDSnHPbAVExId015tTlEb8lsgY+nKbkG92m/+oho961DFVgCQhEW6OtafEQ8oP8Dac6FPESTor+3Yhp4QQF7NS7s34mdu3Zj1+7By86dO3Esv914MRGNBaaoDUgLNkGyzMaCNW/gc/f3KmtfwiMrv4WsAH2IsD++iBj3Q6zIHA+LONK0t15FwbmvYcuB/4dth/6sn/ItaI7ruHy0a//ruNDYc1KhX+JjqKk4j3atAaWFx9ARdD+WLtTvb6qTXce3Xj1VSa80jmM92HNwo3gPyuvOobq+u9Rb9c90wNp2qbu+9ihulBxEg4e3IRrr5s/9GrLC/NFZ8zp2H/lf7NmyHL97bxVe2rwaL+98EzUiZl4X2/p+V3kj54JI+zpgsznE636NHQf/Q8RnI1paKtDZO+uT4kXfIRiO9lIRfhL8g2YjJioNfkYHw+GMv0aU5X3bLd5FOfA1fLj7z5zP6S0j2NEn1pNvruptxHoveqx7XGV3kFh3r+uKdSKiT8uYTEhdfPHYM8/jK19ah+kRCuSwGfjqC0/joYXpCFEUBGfdgy+98AKWL1uD9TPt2P+H93GqzoG6+naYwyMR0c9ylqqq3vyltU4rbOJ/tdfP4PiJEzh+/BiO5JSK5sd4XByobSI1tfi43qyz0wb4+MLX07+a3jLoxRSF7KWrsXrVSqxaOXhZvXo15qX7GW9CRN7mG/99PLxoFdT87+PDE+/hRvX2XvcJXSM6lzXIP/4V7Cvr5x7CPvPwpUd2YON4O84ffx91/YxkDI8voib9Bo/NmYGthfotZBzoKP8h3nr/KzjT7JoJooQkIEByoK2t0LnvIjqu+kUJquer2HSW1H/CFx85iOcfdZWnpkyGIsViwpLtN+uef+QDrEjsWiCO6M6yf9sqvPjuMry6739RLnIw93M2prA0BIm46R0hfhbRNmttzkt3dPbGd/H7j7+OE6VXRd/AjUhGJy7/L0wPPI+TZ97Bjm3fxNmmGMQEmPtM0R0aV6w35PxRn1gP8nVdx9QV6z3PD7lifaBzRv3F+s04Z6wTkReM4YS0m70qB3u378a+/ceQV2tGWIgP5JZCHNu/H8eL2uEfG4lQqRG11TY0twL+gYH9/GIaHA63hFRPOLVONJSXoKS4CFdyc3C5ovXm4472DnTCB75GBmrXj/KKyXmrlt5U8b76Y0R0Z5s9ZTkC2w/idN5xSMHTEB+5pMfxRAl/Fvbq93C6pNqo6c0fMalPAs17cOjgd5Hndr3ZrbBEfRULx2dCbtzWs8OpXkLO8e86N5XAWPHpTWht6zqtZnAOpfTfTdWc9zSsw43z38O2g9/B7mv5Yr8Ghedc+zvycmDVOmC1dnXZebMqultYEBKaIFr6tj4RYpJN4u/cCruz8R+AVo2Sgl24nPsrXGp1QOs4jitXfo3zhVf6jqQOQVesn752rU+s5xozJrpivQ8R6wN9ZFes63HtHutd+4x1IvIGz3nbWKE248qZXNTZrWhtaUHZ9Su4XloPh384gqR2tLa2orXDBtU/FjGhdlRXVKCh3YTQsDDXlFsP7HaH8ZjD2WlTlTjM3PAQHt64EGkBMnz8/Ix/FDuaRHbrkPwRFOKqcdg1SCLpNPU5OlthtamQzGZcyL2Ii3l5wy4Ftbwwi8jrpFSMD6hH/oX/Qn5nCyry/gd5jRKmhRuLqZkXY/bMB3H+/Oto6LfX14bKy3+Jbft/iCvNPafbjpQU+DAWz34QkUo1CvJ+b9T25ovIsESYtArU1/e8VYvzkOVpym4PdnQ0H0VxxT5UtLeLTq3Yb3Ltl4vjb/evq4j3M8Nk5rX0dBeQkpAYEQ/JUWBUdDMp+ulnm7PfMCApBEGWBrT7LMX0SX+EmV0law6CBr9BcA/usV7Rb8h2x3pv+qcNngPbnXHtHutd++6xrjgTcsY6Ed1+YzohdTReR97ZM8hpz8a6hzcizkdGcMYCrFm7Fvcb5eHV2QgzhSExLgjtZcWoRygio/u7yagrcTQ7f2sVTS2tgJ8/RB4qjuBW2OziH+TmDaltqK1vBvxDEOZnpKh646AofRNSRzs6rCJZ9fHFkcOHcODgwWGXq0xIibwsConZ30Nj/r/jaLHR0bMfwcnTb2Ha3O8gM3gasuf+FSaFdCKnx6q3njhQ0bUa5ihQUIYb+btwo/A1nC7Tp/B5II9DQngM0HwZFb0vbdVHTQZNSIfu2o3zaBpeP5toTJJD7kNKmBn2uuNGTTeTc9aTFXbbILEsRyM2+R6MT+lVkqcjaJi9LPdY75dbrPcxyAjpcNgbTzLWiehTMaYT0iPbT6E5dSEWZbiu4q9qAzpuHMVH73+AzaK8/cpvcdXZLzQhfs4SZJuvwG/ibEwJ7efXslaiul5zNRCdRbha2IbApDTE6W2Oow1t7RpMZlcyay06gdPFKmInT0OSkd92is+SfPzg3+vt1aYSlNVLiIxPwgsvvICvupUXPrcEckAKFmz4/M3H5s5bgy881/N5azK77m9DRJ8mU/B6LFj+AZ595B0sCz+OTWf33ryOXOeo+z8UqvOxZM1/YV6MirK8Xw4w+fX2sLccxbXL/4Adp99Fcz+9zXFzfowpwYU4f+q/Ud3rCzon3Wn6FLxwxMYvHXYnGZI+KtrFiv0nf4lrzTyJRnc2/4Qf4NGVTyC08U18fPAlo7ZbkF8o0F6Ght739OzNcRGndz6CN7f2Kjt+jTLbUNLDIDz38CuYG2bpEeueRfWI9d70WHetzH3rsd5w45eMdSL6VAz3UPWpym8JQlpmMnydew40KTGYumY9Hnxgoyj3YXqcuXuBITkQIUH6LVn83DpOPTma6tFolZ2/tLWsBBVWH0TFRjmn8KqdNujdNVnWFwUACq/eQJsSjZSUoJv/SK5Fdt07Zi7Wqho0aP4IC3et9NutE6Xnc5C5YBGmxvq73kdtwonjB7Avt9b5eUTkTf54eOU3MSkiGB1Vf8Cuw/9r1LtIPjORNe0/kO5bjoIrm1HU7I+EiX+HRZmrEdbfRAwvmREfhs7KLbjkYfTWtcquOIBJQYjN+gEevu8XmDSk21eZsXTOz7Bm4lSxJd6jv4Mr0R3GJ+qPsXLmSgSp+cjLeanPSRxduOhTaO0lqBssH5OikTDhG5iT3atMXIDgHlN2+0lO5WTAXonG1sGn+PvGfXXQWHd+ilusD0Vk2l8x1onIa8ZuQuqohzU8HZmxxtWgjjoo0clIDez6ynZ0dtrh7zxoqmgtPIkzxZ2ozDkmDtKeWg8VbeVVaICeYLajuKAU7T6xSIp3jUxqIttUxRFYVvRrJoALNzrgkzgeGcb1ozqHx7XUO1BaWgWbJQpx0cZ3NVjLzuL45WbMSXNLVOVgZAXbUHJyP06U9Fp4hIg+ZW3IKclFReG/4ZNDv0GFcyQkECHRj2HWnP/BY/f+KxZnjMeu3V/G7vP/hJ27voqdFw9iwtTv46G1b2H9/L/FzIx7ERMQ5Hy30SGOOcPsDCohTyFYvYK8vPfR0ucw5TqGSYq/+H9R8DXrlx1Y0WF1O05K+nMU5wm5nmyITFqIaJ821JV9iKs1Ho5Z6uCdaKKxJRzrFjyJGHM9Si78FCerW4z6brIlC6kBGhpqT4mjxCDkCETFL0JqQq8SPxE3uyyqXSSKwYiIX4/kiCkI8Y9FQEAWYuKfwNz530Nj8UcoGEIoLZ2xetBYN+vHD7dY78GI9d7qmtRBY91jF4iIaBT07n2MGR0lOYjJGIcI53FTRcv180jOGofgrm9sb0Fbu+q8ntNRfxmHjl5HW1Amoh0lOLHvDMp6H0vVRlwvrIQjIFbktpeRW9QBv8R0JHfdccWhik+R4ePrA9legxotDJnZ6eg55ikS1l4dNrWlENdK2mGOSUC8ayjXydF4DQcP5KIpLBvGcig3LVoxC/FKLXIPHMZV0QgQkffknfxjbDn1MewRD2LKpL/GI+s245El/w/TkzOAhm04euDLKGoxOnVqEW7kfRt78/aj2haG6IR1mDnj77Dhvi24d/xkzwdUYwqcJHkaUlUQGLUe4xOWIyF6CVLTviqe55rFMRD9OcYW/GP+GGsWvYCqK/+Jc/WeerSqOLzZAZ8FePTeH2FikITO+tOocJuiobbnorDoGGo9TE38ZNtjeOX9jXjv6MuoMnLYsKTnMXvy1zAr+y+weNZ9+tcgGvvkWMSk/AlWrPg9wpQaFOd8H7uvXRIR4iIFfh73rtuFZx7ai2c2/Abmlj04d02/F2n/nLGoXsX5PU/g7W29yq6XUS7iTA+Pthtv4UJVC0LTv441K/4Hj93/Dp5c+yI2LPxTTI7UsPPcHniK3t6xnuTXOWisL1zzZo9Yd9cV672ptb/2EOuWHrEeoX8VxjoR3QaD9Xu8w1GDi+fykZkR6vyCjoYrOHyiEFPT/GCtuoZzZ8/i5JHjuFIvDtBthTi6+xgKO8MweeFcLJmdCKX6HHbvFklpu+vtdJ0lubhUqSIwIQWXjl9ApRqK8ROT4WutwrULF3Hk6GXUIgQR4SpKTh1EYMYMTHVeXNpFRUWnjJDw8B4r+JbnXECx1ReJ6SlG8tqJ+sLT2Ln1AK53RmPKrAxUV1WhorwcpSXFKCoswLUaBbFxwUBLPg7tOYVSDpQSeZkVVikV6eM3IFipQ1Xx69i/5/N4e/9PkFtdZjyn2/Xc7+DDT57E+8d+i4slF1DfacWZ67keO66yxR8mSYLZEmHUuHOgQ56KGfP+AWuX/iNWz3oMDTc+RuEg16xJJl/xnmbIplQkJMxDhB+w/9JZ8W6eNCL/8qvIrymBotWhpvRNHDi7uceoj6P6Dzh06ifIER1mPUk2Oxd3U6D/aGutgLXXyEhTRyTSsp7EjAkPY0JcAvJuFI7aQipEt40pGbFJa5AWHoqzR7+BHVfP9rifqNbyHnKLr6G5+bpos/fgwz0/RH6756jq4lyJVwqCv7+HdSC0SlSW7nEdFzr34eSBR/Dqx1/FRwd/gF1H/xF7jv49tu15Fq9/9Dk09JP19o71lpJfDRrrHaqpR6y764p1l+5YB5o9xLq1R6xrjbsY60R0W0iaYGyPuvKKKmNreDpqruNCTilmr1iM5rJLyMm5hpa4hVgzNVI8qrpuv2KS0HxlP97cX4zYGauwZla8ca2pYK/HpX3bcaQyCBNmzcKCrEi01ZagsEJD3IRU1J4/DyUjG2nGcGtnYw0UHw1Xjx3AsSt1sPrE4itPrxeP2FC0/x1sv9wqWh0/rHjgCYwL705H1aYCvPrucSQtW4/l6V1jqXZUnD+E3EZfhIYEITAwELHR0QgIFI2K8Yxu7Sg68BH2VcXh6UcWG3VEw7fl4MPGFhHdKdYt3mRsDR1jnejOM5JYJxrr4mKjja1bNyYT0iFzNGFvbhvmT43tTka72JtQ3+aPsOC+aaAn9sYy5Bfk41phM6JmLcOcJNdEW3trAxqtCgKCguDr4a2sra3QAgLgWgd4BKztaIMfPJ1cJRoqdlKJ7jxMSIk+G5iQ0t1oNBPSsTlld6iUYCz3lIzqTMFDTkZ1ppB4ZE5fjPsfXHszGdWZAkIREeY5GdVZbiUZ1VmYjBIRERER0WfTnZ2QEhERERER0R2LCSkRERERERF5BRNSIiIiIiIi8gompEREREREROQVTEiJiIiIiIjIK5iQEhERERERkVcwISUiIiIiIiKvYEJKREREREREXsGElIiIiIiIiLyCCSkRERERERF5haQJxvaoK6+oMraIiIiIiIjobhAXG21s3TqOkBIREREREZFXMCElIiIiIiIir2BCSkRERERERF7BhJSIiIiIiIi8ggkpEREREREReQUTUiIiIiIiIvIKJqRERERERETkFbf1PqRERERERERE/eEIKREREREREXkFE1IiIiIiIiLyCiakRERERERE5BVMSImIiIiIiMgrmJASERERERGRV9zWVXbLK6qMLSIiIiIiIrobxMVGG1u3jiOkRERERERE5BVMSImIiIiIiMgrmJASERERERGRVzAhJSIiIiIiIq9gQkpERERERERewYSUiIiIiIiIvIIJKREREREREXkFE1IiIiIiIiLyCiakRERERERE5BWSJhjbo668osrYIupp//6DxhYR3UmWLl1sbA2OcU505xlqjDO+ie48w2nDBxMXG21s3TqOkBIREREREZFXMCElIiIiIiIir2BCSkRERERERF7BhJSIiIiIiIi8ggkpEREREREReQUTUiIiIiIiIvIKJqRERERERETkFUxIiYiIiIiIyCuYkBIREREREZFXMCElIiIiIiIir2BCSkRERERERF4haYKxPerKK6qMrdvJhrbmTsh+gfA1GVUDaS+D1S8eFmN3dDjQ3tIKVbHAJEtG3dBoDivskh8C/Yby5e8e+/cfNLbIa0zxmL44E5GKsW/QVAdsne1oaahB6Y1iVLY4jEd6knwjkJaZgZT4SIQH+cAkSdA0Fbb2JtRVliH/6nUUN9iMZ+tkrFo1H5U5R3GhSjXq3MmInDgX2eZCHDxfAbtR604OHYd5MxNxZvdedBh19OlaunSxsTU4xvkYIWJ99bJMY6fbSGI9OtjXWece6/tOXHLWeeQTgfSJ4zFzfBwUcYzQaZoDN3KPI/dSOZo9HQrIq4Ya44zv20SOwOoVU4wdNyLm7LZOtLc2i7grxdXSRuOBbtOXL+/TpuvcY/30xUKjtq+uWJ+RleBs03VdsX7y4IFebXovItZXr1qA0ADzzVjvbK5BRdFVxvoYMpw2fDBxsdHG1q27gxJSO3738juInb4aa6ZG4ma8qU04u+UdHK8KRNaq9ViW6m884IkNpUc245h9GpbPz0S42agW2vJ2YtOpaihmBZ5TSvHPFDsHDy9L95DMtiJny5s4XOa5MR+YjJhZD+PBmWHG/mcDG7IxwJyGpRumI7ijVf/rvkk2+cDHxyQaFPFXb29Ded5pHMirNh7tImP1xo0I9xFR1VKHqmpRmmzwDQhCWGQkokL9oDja8MF729Dh9uYPPfYg2q7sw45z9ejTNskhmLJqBSaai7B/2xlU9AknCQFZi3Hf1AhsfnszRhJtdOuYkN6BRKw/vnES2tptbrEui1g394j19zdtQ6fxaJfglOmYOy31ZqxfyS+FVTP1iPXqi4dw/GJVj1jXKaHpmL9wChICJBRfv4rGlg7YZR8EBIdhfEoUOqsv4fChS6geoI9Lnz4mpF6mxOHxB2ehvd3ao52UZBPMFgvMiixaQxW5B7cht7y9R/u99OGHECtZB4z1spyDOC7a9J6xLotYn3oz1ksLrqGhub1HrMcGaai4fGbAWI9y1KKyuv5mrKdljkeIj8RYH0PGakKq/EAwtkddS0ursTUaNJw6WYSshdMQ7+uWMkoSGgpzcMORijnzMxAy4CRkBcFRUTiyezuulnYgKDYO4b7GC5pv4MLVOvglpCMxKhShoSE9S4iCRikOk5ODRdj21ViUixsdcVixeBbSUtOGVFIjgZryJvgmTUFWjDgCfIYUFd0wtshrlDCkZMXi5EdbcP7KdVy96ipXLl/B5aIatKq+CAkPQ3hMFHIvXjNepJMQmDYHU+NUFJw7joPHL6GgrAp1tbWoqihDUX4+iuocCIiIxbiAepRUtt5MHuMnTkQoWlFYVIve7ZLkn4LJk6PhZ5HQUVaEyt4tHixInDAZiUFWXOjxfejTlJKSbGwNjnE+RohYnxTfhn3bj7jF+rU+sR7aVoiSRve5CRJWr16AEDTejPXy2vo+sT5z9jREmxp6xDrkMExeNAcZwXZUXTyKg+cLUS1eW1tTjYrSYiAqHbHR0YhQ6lBQ0dajU03eNdQYZ3zfJnIQJqdKOLbtIE67t81XruJS3jUUVNajHX6Ykp0O/5YKlDd1t6Ypoo0NaMkfMNazJqYhoLWkR6zrbfrSWck3Y/1obpEzXt1jPTRlEuITEwaM9S0f7EJhefXNWL9eVAeExTLWx5DhtOGDCQoMMLZu3YDp25gj+8DPr+9XlmUZktkytGm4vtFYMyMOcs1F7NmyDSdutDjPQEkmBYpkQcS42Vgwf37fMisVJtMg02qVAIwfP27IJT02CPogrST+RzSWOFprkH/+CPadq0CnPqXc/RxQUDpmTU3ApcMHceJ6XZ8RFYiIaqu4gsP7TiJs/HRMi++OzNpmDXJIBGLcZid0scREIERqRzOCEBnj1zcqlAhEhYoX2hqMCiK6Ve6xHp+e3CfWA9T6QWM9v0nqE+tKTBpSwxTYqq7g5MXeMyyAiyfyUN4pIzgpFfEejgdE5IkdbbVluHzyIFqkQKRNn4o0/6H1IbtiXW/Te8e63qa7x3pfqrNNHyzW+1xK01HNWKchubMSUmNO+q1KnH0P1i5MQ6C1ATVNnc6E1Ls5Ic8X0VikoaWoGJWihQm/OUfehNiscYi2OHChauC5N1p7GZq0ACRPSL85c6Gqvh0whyCyz0UuJkRHh8Fkb0B9h4SQyOg+J5j0RDbMTzSqDbVGDRGNDlesK4EhfWK97srZQWP9zJnCXrEuITAiBH6SeN/aSrR6aOK0tlKU1Yn39RHHg4GnNhFRHypOF7RA9Y1F5vjw7svYBqU52/Tesa636YPFut6mu8e6S89Y94SxTkMxdv8yHLW4kJuL3JvlEjS1FZWX3ev0cgUVrSo0kVwWXzLqLlzA+XNXUC76vp5ZEDlpFT737OexNjtChOIosTchJ+fCkEteTSAmzJmJjHAGKI1RmgOq6ExajQ6lEjcVs9L8YSs96zqRM4j9OdVARBbmTAhynvMpz72OKoefaMzG9Tg7K4dPwKRECxqu5eHCtTrIseORHe0eFxakTkxFiD7d9+J1o46IRo2IdTjsfWJ9X27DoLHuqDrfI9b1Tm9zeTWaHBLC0qZgXKin7rIV+Qc/wlvv7MSZmqEcTYjIXcWZw8it0RA8bgomBA19VEVv03vHut6mDzfWXZ/YM9Y9Y6zT4MZwQlqHI0eO4LBb0Rw1uHysZ93hI0dxudoBreUGzhw16o4exdGTl1De8Sn/4ZuCMWVK9rDK1GnTRUd89OZgE40eCX6JSYjxA2qdF4tI8A0Ngq/eANUPbZSys64RrZqMwNAw14mfjmrXtN3gcETfnLojwT8mAkEi2aytakZ7ZR1a4I/wmKDuA5QSgcgw8YLOelTVsUEjGl2uWG+vreoT655Wu/bEPdZ1au0VnM9vgt03BtOXLUPokK6pIaIh0zpQ39QuevL+CPJ40scTydmm9451vU0fbqx3Dea4x/qCyQmMdRqRsZuQmhLx7PPP44Wb5VnI5hQsfdq9Ti9PY1mqGXL4VGx8pqvuy3jmieXICjJ+Pes17HnrTbzx1tt4Uy9vvonXt5yByGOJyBNzEBImzMbSGQnw66wyFiCSEOTvIw4aVrS19r2azBNHc7tzNT6znz989NOparNIKNugmUMQFdXVgPogNioYskg2q0WyqTZVQzwFwRHRokPsIodGIlzs2BpqUDXUVpOIBucW65cvlfeJdWMQZVDuse5iRfnZwzhysQKtcgjuWXcf7lkyC9MnpCA2hD1WolunorVDj1EzfLsW6ByIEet6m9471vU2fbix7mzTnbpjPWny3B6xPvRxW/qsG7sJqex3C1NpZVgCgxHQ9QaSj7NzGxefgKTERPhYm9EqOrWm2xEp9mpc2L8TO3ftxq7dg5edO3fiWH6/c4uJbrv5q1fh3jXdZe39a/HQxtVYNEUko20lOHv4hPFMGWazHlQO2Lrm+gxGtcGun/gxiQbTGW8qaqsbRPPli7CoUNcByByF6FATbPVGsumoRXWDDYpIQmONfqt/dBgCJRWNNdXitUQ0XFJg0qCxfqWxa/ZBd6wPmVus36S1ozz3CLbtOIS6DgUhscnImjoLS9esxeysWASO3R4I0R1Ag82uQpMkKCLuurq0g8W63qb3jvUht+k6I9bdb3jRFetnrpT1iPWNaxYx1mlI7qD7kDrwm9/vxpKn7kFWj5OrVlzZ8Tr2N03EhgfmImYIWezBN17E5dCF+MJ9E9F1s5XOS9vx6oGiPreicBcwfjWeWJ7mXBm3J/Eddr6BfdVpeOHJJUYdDYT3LxsDjPuQ5mx+D/VDmgUrIXjyMtw7KRjVZ7dh79XBR0nlsMlYvSoTgZVn8eGBAld8SUHIXrkSk4KqcOrjI2ictBorxqm4vGsvzhtfRAqZhNWrM2HKP4jtZ2owe/1DSNGKcOCT0yjnzAav4n1I70Ai1h9bEYCdOy8MO9bffvsDo25g7rG+ScT6YKYsWYPM2ADI7aU4secECj2tfERewfuQepl+H9L74nHwk1MY+Pb2MqKmr8Ty8X4oP7UVB/PtzvuQxrRcHXasz7QeGVKbruuK9T3vvDdgn1lnCk7AxGmTGetjyFi9D+ln8pyFfkG3rCg9phJIkVlYtGyFCLJVuGfVag9lFeZkGCM6HqgOEfnKyMd0icY+DW2NreiEcvM6scGYw4IRIGlobWrsHmvRWlHpnLYbisgoE2IiAoC2elQ1dbeeWnM1atuAgIgo5+JHYb765aM1qGEySvQp6I71oV6Z5h7rQ5Fz8CBOlbQDfvGYmBkxjFVCicjFjOAgP0hau4i7IWWfHrhiXW/ThxvrQ2mO7U2lfWKdyJPPZkKq544iIXVniUxBVuY4ZKSnIz09zUNJR1ZSfwFrhdWmQjKbcSH3Ii7m5Q27FLiuLica0+w1Nai3iXYlIsaoGVhsTJhoMttRV9XotnqfivrqetHZ9UFYVAiiQmRY66p7Jpuqfj1pJ+TgCMT4yiIpdaChuutaViK63bpifWiLwFt6xDrkUIybNQ+L5oxDRH+v19pwI68YjZqEgLCIntP/iGhwlmjEhJmAzkbUNIw0IXXFut6mDzfWnZ84glgn8mQMJqQqGq+fxIGDh3DwkHs5Cs1Rj/zjveuP43q9A1p7BXKP9nrs4EEcyq0w3rebnpD2HiEdkMM+8JkgRzs6rBokH18cOXxIfPeDwy5XmZDSnaCjDMVVVkhB8UbFwNJifKC1VOBGZc+/b3t1LertEgLDIxGq2FFfU91rhT87qmoaYVNCERXjB1ltQm3l0KYTEdEoMGI9I6Hrwpb+SUHJfWLdPzwOCckJiBngpv2qVbStxuy923fxENHdKTg9FSLs0FZZgvJbWexPxLrepg831rsMN9aJPBmTCWlHXRlulJShtLRnCQ6S0FTWu74cTQhCsKUT1b0fKylGcXWr8b7d9Cm7+gipK3REZ7jObYqRtRRHPvwAjUZwOxquYf/7m7A9p8ZV4YmjGS1tgE9AIB576mk899wL+OoLXeUZKOZgxE9chkefda/vLs9/6fOYk8jpvnQn6ETxlUI0OHyR0LUEbn+kIESbrai8eh1VvU/eWqtR26hCDomERSSbNZV9lyqyVtaiSTUjLCYNWmsdKlvYmhF9elyxnjh50qCxnj5tfM9YV5tRXa/fjiIE8akh/XY0fGPCoC+G39HcKD6NiIZjdlYkzLYaXL9cOeRbtnjW6WzTB4110aa7x7pTr1jvj3usE3lyBy1qBOTtfAOHCjoRNmEJVi9KR4j4476y6w3sF3Wh4+ZgyfxJiBmskyx88tsX0ZK9AQ9k1mPv1oO4oWTiuceXwFGfi20fHkG5/yQ89+hC49l6x/gMtm07haT7voTp3TdPvKnj8g68caAW6WsexdJk98RSNOiHPkB+/P1Ylmbca1R0vv/vtx8gcd5arJkScQsrCd/ZuBjCGDDsRY3cSL7Y8PBa+DpaUFVSgpLyahTXtiMgJAxRMXFISo5DhJ+Gne99iLp+WkolfhbWLkoBCg9j64kKD7MQFMTPuQeL0/xRdvIjHMzn+rpjARc1ugMNe1GjbnFTlmB2ZuTNWD97MR/tqqlHrFtqLuDYyfxesS4jbPw8LJoaC3+tDSePnhAd1xZ0OBT4BYdi9vy5iPSzozbvOPZfqOZ0/DGEixp5mb6o0cbJKC/VL23ppph84OsfgKDgAPiaJOSf2IUzBU092s7hL2pkEG16XPacm7F++sQZ1NQ394j16VmxaC7OHTDWW4vyUFRWdTPWk8dPQkpaImN9DBmrixopPxCM7VHX0tJ3dHLE7HX4YE8O/JOmYe6MdET5m5xnXf38gLbaCpSVFOJ6cRNmTEp1PX8AV06fgSMyDPXnj+O6IwmL1ixBlKUBuXv3I685DFNXLkNCUPfVokpgDOL8G7HzWAXCUxMRanGfltCBovMncb01BlPmjkOEW4ZpLTuFPcdKsGzlvO6VeSUftFw7hYKiStij0pAU/NlMSYuKbhhb5DVKGFJEA1N16ZLznmLDY8eN6k4ofsGIjE9ASmoqJmaNQ0ZqPGLDfOFoLMe186dxo6H/cQ+t04LojDi0559DkcfrXzR0+kQiPT4IN87mooat2JiQkpJsbA2OcT5GiFifnGZBfn7VsGO9papYxHrHzVifNDGrT6zvOHgRrX1CWENHXSlKRM/VHBCCyZOykJmViYkTxmN8WhLQVIZr507hxLX6WxzdodE21BhnfN8mchCys8chKDQUYW4lKMAXZtmB9sYalOZfxqmr1SLKekqZOBGB1roRxLq9R6xnT56A8ZkiXt1iPffofhzX7ys8QKxPnjoZSalpN2M9LjIAaK5grI8hw2nDBxMUaAy2jYI7YoRUbS3B6b37cNk0DWtWZiOq9yClvR7XTx7CkdwKJC1+CAuzIroTQA82v/gb1Ih0VrPEYs6a1ZgeY0Hp8c3Yfr4ZUXPW4r5pkR5GLjvw21+/CkvKImxYPcE5OqtTWy5hx6aDKI9ZjMfunYCu/zSOxmvY98l+FFmy8exDc41aF3v1eXyy9TgqzOlYtm45xgcbb/YZwjOrdxHZB8HhYYgMMqOztRn1dQ1oY6tz1+II6WeYiPXk5DiYJMewYz0iNgFB/hYocMDa3ori8lrjERprOEJKwZGxCA30HXasS+YAhEeI5NmI9erSEjR1DnNaBt1WY3WEdIxnQnY0Fp7Etg934HSZDWtXeUhGdaYwZMxfi42rpuLyga34+Fghmvv9+7ejVtWgKuGYsnyFMxkFrNhzvhY+6fOxdIqnZFTni2kxJrQVncCBC7U3z/KU51xAsdUXiekpRjLaifrC09i59QCud0ZjyqwMVFdVoaK83HlNa1FhAa7VKIiNCwZa8nFozymUdjhfSHRnUjvRVFOB/IJilFYxGSW6a4lYv1FYOKJYr60oRWF+Aa7n32AySjTG6W36SGJds7X2iHUmozRUY3SE1I66vH14+2ABLCFpmLF4PqbGBwwte24vx+k9u3G6JhSz196L6VEe0kt91VzFBEUkolXn92DHiWLMffTLGN817NkvB+ounUa+Tyamp4VAbirAq+8eR9Ky9Vie3jU2akfF+UPIbfRFaEgQAgMDERsdjQD9TJPxjG7tKDrwEfZVxeHpR0bvjMWdgGdWie5MHCElurtxhJTo7jVWR0jH8JTddmw/UoyZMzMROfhK1D1Za1Fe74uYmKEksSpay64jIH68sT881tZWaAEBGO5XvMnajjb4wV8fqP0MYUNGdGdiQkp0d2NCSnT3GqsJ6RiesuuHNQtGkIzqLBGIG1IyqpNHnIzqLLeSjOosn71klIiIiIiISDeGE1IiIiIiIiK6mzEhJSIiIiIiIq9gQkpERERERERewYSUiIiIiIiIvIIJKREREREREXkFE1IiIiIiIiLyCiakRERERERE5BVMSImIiIiIiMgrmJASERERERGRVzAhJSIiIiIiIq9gQkpEREREREReIWmCsT3qyiuqjC0iIiIiIiK6G8TFRhtbt44jpEREREREROQVTEiJiIiIiIjIK5iQEhERERERkVcwISUiIiIiIiKvYEJKREREREREXsGElIiIiIiIiLyCCSkRERERERF5xW29DykRERERERFRfzhCSkRERERERF7BhJSIiIiIiIi8ggkpEREREREReQUTUiIiIiIiIvIKJqRERERERETkFbd1ld3yiipji4iIiIiIiO4GcbHRxtat4wgpEREREREReQUTUiIiIiIiIvIKJqRERERERETkFUxIiYiIiIiIyCuYkBIREREREZFXMCElIiIiIiIir2BCSkRERERERF7BhJSIiIiIiIi8QtIEY3vUlVdUGVtEPYVv/4WxRUR3kro1f21sDY5xTnTnGWqMM76J7jzDacMHExcbbWzdOo6QEhERERERkVcwISUiIiIiIiKvYEJKREREREREXsGElIiIiIiIiLyCCSkRERERERF5BRNSIiIiIiIi8gompEREREREROQVTEiJiIiIiIjIKz6bCanNCpux2ZcDjeU3jG0iGpNMvsaGJwqkuKnGNtEdzDfC2OhFDgB8htd8SyGhI2vxTcbP/ki3sRtxO9+baEyziPj3M7bHAMY53WbKDwRje9S1tLQaWyOgtqKiuhFtrW1oHXZpRlNjB6QAf1gk4/3clB5/H1vP1UEOikBkkAU9nmKvxOlt23DOGoeUuKBB22IXB9pbWmB1aNBUBxyOoRe7tR0ddgUW82crIP2uHza26K4lhUGKjhNxKH4Ou0SJDnSQOIg0Gm/WkzT3z2DJTgJay6C1dBi1BiUTplVfguJXDLWi1qik0dKescjYGhzj/FYokKZ9FaawGqjVdUadIXo9zOuegJIQBVRfgtapGQ/0z/zo38OUFQ+t8Bw0m4ihuBRIXY2f7CP+Y4VCismEHDcRcsosKFlLoExbByWkFmpJlfFEDyZ/FebkVqjlNUbFLTKL7zAxVcR+JaTsr8OydBVkvzqoZdXGE/oRvRKmeUshRwaK5xYblTQSQ41xxvdt5DMHpge+AtO4TKDjOjTRpx1U/FrIUv6QjgfDxji/awynDR9MUGCAsXXrJE0wtkddecUAjdhgrPn41Uu7jJ3hkwOycM9jS5FqNirc7H/9RVzqCEb6rIWYn52AQLdc0F5yCO98koc1zz6PcMWoHFQrcra8icNlDmN/OGTEzHoYD84MM/Y/G8K3/8LYoruWeTZ8nnzC2Bk+re0s7JtfhWo3KtyYHvmZ6EPXQ73wPuw5eeLJxgO6xCdgWT4Ltte+CU016mjU1K35a2NrcIzzW6CMg7L+eeDkT+EobTAqDRO+AsucDGhXfwfb0UtG5cBMnxMxU/EurHuPO/eVdT+GEtHrhKyTfmJVZKydrdDam6E1XIV68hOo/fWH078Ek/Qm7NfdnmAKEdmK+NnZCajuQWgSHW1fUS8SbA9x7STez7JoMtB4AtaCGFimh0Hd/3PYi8R7DSTsfpGkL4NU9AasB84YlTQSQ41xxvdw+UBe/BcwRfeKOtkC+/s/gB52N2U8A8vCyaKTXgP7rn+Fo9xqPNCfQMjz/ki8dxHse96F2qLHnejcxs+HbGpxPWUgkugs+4ugLTsCtdFDX5ZxftcYThs+mLjYaGPr1o3dhNReipd31mDFlMhhzjJSUX5mJ852TMaGB+cips8Qp4qXfvMyQmbcj/WzonuNgLbj2q5N2JPfgVmzZxp1Bs2BsPEzkRbk6dtYcWXH69hXEY3l88cbdYPTWgpw4lQxguY+ho1Tg4zazwY2ZKPENBXKyuWiwTH2u+hhLTI5tfws1IJT0JoHaMyiJkEOFn9/dtH5rMsXz+3V8xSfYV6z3Nhx47BB62wUrynw/BmmybCsSIT94o0e+eLgTJCnPAnF5wRsH72nh14vMixf/BG03N/Cdvq6UdclGPLyP4cpyQ+OnH1GnUE0uNq1j6A2M0u9FUxIPyUpn4dlySRYX/mOUdFFJJEL/wrmdAccu/5FdFT7vwDFnenxn0Iu+QOsh3NdFTHzocQEi+OEFZpNxK6tA6aFa6Ee/A/YC5tczwmIA1rLXdv9SX5SdFQ39exIRm2E+d4lkD01l2o57Ft/CUetpxO4QSJ+RYc9oRGOT/4Djrg/Eh3VYKi7/xn2skE65IH3wPzgKiDnX2E7V2lU0kgwIb1dzJAmbIASIrm1iTLkhNlwfPA3PU6+yqv/HqZYkbg6LOI/yHbYduwa/ASrFAnLF74JNBwXSewmqG0SpFn/D5bJIo6HQhVxt08khcUeYo1xftdgQjpcIiH9wwErPrciTYRwN/0kjMc/fsF1PsiKy9tfw4GWbDzwwGxE9RjlVNFwYRtO+S7FinEBkNUWXD5yFHURU7BgvA9yt3+Iw+X+yL53AxYkiIOAkx3lR9/Hlgt2PP98f6M9RkJanYYXnlpq1A3OXn4Um7ZchJ9ISDcwIaWRsCyC6ZEHIDfvh/Wjj4zKbvKs56FkZUKSm6AeFh3NfGMKrJwgGoRnRYMQAMfB30CtrBNtRAqk5NkwZUZDPf4b2K8a8Ss+w7ImDLaPP+rbIAaNg5y53PkZ2tEfd7+/zjQRloX+sO4/ZVQY9JPDAx51/CCv+i5M/sdg2/JBr8+UIWV/FUrHG7BfqxfvFQ55wUOQ6/bBfqUVyuo/ghLVAsfe/4SjtN14jejAz/0zmDPNonP/Y6OORooJ6acg/lGYV84ALvwv7NYVMKWKxNHe1bHzhRQlOpjWSmiNbUadIInGTmmA48BrHk+6OBPSYpGQHjESUv1U7ziR9M6bBNx4F9aDJ2H5/Leh7v0n2EtEpzBqHcz3LIFj2z9ArR1ghCVJdFTlXh1VyxKYH10HXP4f2E4VGZW+kJd9C6akGjg2/zcczhGcnuTF34YpLQRougGtXTzuFwMpWPQA6kqc04xdT1Kg3XgP9osVorP9Z1BaX4X9UoVInleJjuo9oqP6L7Cdv4W+BzEhvc3Mj/4tUH8e9sNboHXEQFn751A/+VZ3W6cnlk9+EY4d/w5HY6Z4/Gko/rWwvv5PxhMG4JsN05qnIAeJNn//v4nksu/UBnnRd2CKL4L9vVc8zkDyyMtxbp4UCOsffsg4HwVjNSHtJ7UbKzR0Vl3GkYPn4ZytYK/A8fdfw9tbjuB6swOdtQXdswFsRTj07rso7xigp9tehLM5ZZiZJpJRsas2F+DqlULkHD2E2otHcKrUhtDMiQgu3HXzfR01F3DiUj0sSYMvkqK1XsFvXvztkMvvP85Fg/i6ao+pDkSjRz31W9FQXBYNXDDk8bONWpHUTdwoktEgoPgDOAquQ2urh1Z5FuqJ34ioC4U8bY0+i2hwzddufobz/fvM/xMV0YugLFzjnBGkX9+prP8ezPc9JhpM0YGOmOV6ms40HaaN34Tk2+dNuvnNgDIhFY58kYzqgmdBSc2CPOMhSJMehBJjgVZwHEh5xvW4LnIlTBkRQMUBo4JoDJMToUydDqnzMhx5xSKIRSLqLHbRYRUtk0XErSx+tjY7928Wh/4c97bER3Q8vwnLQ9+EecNfingWrV7SBtGZ+zYsDz8tHhfPvfY2bFeqgcTFUCLdTv1K0eIYMFd8h9y+yWh/Z4S7OAN9AM7ZG57bPCUlVHRSxTGltkEck5qgWfWW2CE67WJb33fWic6A8zy6/j7isWKRjBLdSXxFMlZ3RiRjYluPFxFS3SdexU76Omj52+GoFjFtzYPj6AHxJx8NJVG8bjAdF2A/+hEch3/nMRkdsjEW51BH6dpVGrMG+YvzPq2jFqVXT+HQ6VLnfPS6hjZ0WCIQ41eP3IN7cdU4E6y21KG2oQH+5v46s1aUnj2N6x2RCHOOmtpRmXcFFQ5fpMxbhb0nS2EPm4yFs8LRVlWJi7UiQOzVOH/kPCqlWEydlel8l4FIPrGYN3fuMMo8zJ87E+Mj+8wrJholIj6un4aqn6gJNqbtyEmQ01PE33chHKePuercOCpFQ+CXDjnex6gZjOsz9PeXPV137RsPOXU5TDMnij6y2A4KgGQtg9omOt7zHxH7xmEoKF7kzSJxtOqNkCd+kKauEh3rCqPxtkCaMAOS0gb17B9gmprmvB7FfqYMCBfvHSEaTFMalDmLRFpcAsfZQ853IRq7ZEiZa6FEidiztkATzZB26VXYPvkf2Hb+GnZRHPWic2YvhmPfb5z73UU85xP30VEVWmMJ1LpyaA2VYlfElWhDtbpS0bergmnhI1Bm3QNZq4RaIWIm+T69EYOUep+Iy8dgirWIeGqDMvshmBaJODUSVnn1P8Dy+Z90l6XTIS/+vrH/U1EGOPvuXEVJfL+ur+guYLaI0yo4jr0E+8FXXaW4XvwDtEPLe7u7bvf/wZ4nvq9O77CKfw6iO4v4u7U2uzYlX5GhuTadIpbDPGsSHGe6ZjIIlZ/AduwMlCV/BFP2ePEao74/VYfhKLi16axjLs49vhndTcZ4QirBN3kOFk+JQPPFY7BWVqFWJJDxojMdaIrE5JlZOJ9TLlJNoKOiGvUIR4inDrFIPuuvHMaBiw3wSxmPosJ8XL10CievNMAcPw2zI2+gVorG1MUzkeAXixni58k9h3Hy0H6cETEdO20+siM9vnFPpmBMmZI9rDJ12nRMShy9VaqI+lAbXKvuKcYZTb8MyMEi9Buue5zap9XrU2H9RXIYbNQMgfgM5/v3aSjF5974APbLVZDGrQdikiHJ7VCLzoiOZBEc589CyZ7gempMonh5tduZYnci+cx8DOZxImEtOy0S3NmQJ6wX+abYrzoAR42++EOZaOS2iHbtqvi5D8riJ6AseAxKpPgWFz8Qz2HPlca4kEVQpozrXv3WAzlWxGX9Nahtg3XQbNAuvAb7vj/AfkCfmidiseoQ7PtFR3D/bshJU6Ckz4CSJo4HkROhTFgiPlfEfdp8KIkirjrbgbDJ4vGpkBPFc/xcX0orPQVH3n4Ru3tEOSS+hwatYJ9rP0f8vHzO+TzP9PcQz9f7l721XoD92GY4KvQWnehuZodmNeam6ieBurqXoQthWnqP2K+A2mNtHxHrBW+KuAmHPOPLsKx9CkpKvPHY7cE4p0/bmB8h1S8Cj50+H1MjmnGltBId5hgkGiM3PknT0XT1HC43dKCsvAqOkARnfR+OBhTkFaBJVdF8/RA+2bELuw+cR7lDJLWzJyIiagpWrFiM6TGuDrspKhtBTVdwSiSsPqnzsXRq5BBv/0I0BsmBkPSZA53G1DuL6KhWF0KtKPbcYOi9YT0rtPVoEQcmPkN/f4/vh05o50RC2BACJT5RtMWlUMuMa9+Kt0FKXQ4lNFB0tEUD29x7kSKDHAd5vEhcFRlS8nqYlz4B89wFIrmtgOPMfvH77IL98DtwVBrfuXontMCpMKWKjnXpJ7Cf77q+hWjsUhbcA9mnDWqDccs0KRjKxCWQJyzuLv6i3mqGlOVW514mrXK9dkBWWN/8Aaxv/72rHLsoYtchioh7UbQbm2F9x3js7R+K53YvdKLlvgvH6U9Ep3QHHPnNoj8ti87rXtf++a1wnNjifJ5HzpxWHCQ8HSfM4dDqOiCFJ3YXi95TFy/yj+2ui0iFJBJk3rqQ7lSSflGYfoLIueMnOp3iZ8JamFdvhBzQCvXCVtdjPaiw7dsNtcUBRMwQies3RHzo9X6Ql/4NzOv/DOb7vwHzA9+EKVO0x26kqZ+Dad5GKMlRRs3gGOf0absz/lObojHrgSdx9FInUhcsQdbNewX745EZwKl3XsHugmDMWOF2PZo7JRIzH3gWX3nhBXxVlDkxFijBE3Hvkw9gdrQr1RyfEu48JljrruHIR69DGr8cD6yZipDKg3jzpbfwyYlrzucNSnS2j77/Ft7etBmb3/9g4LL5Pbzz1pvYfnEIS3ITjYCc/QWYH/0CZOU67Hs3uSrrD8C+/b9hP5Pn2u/BH+aJEdCuvgpbnrHS5kAsIlE0PkN/f32KoUf2fDi2/AOUdF+op1+H2rXeEBphuyBB2fA9mBIa4Dj4gVHfi1okXv9tWF/+a3SKYq8RSW7zKdg3/SscVa4zzWpRifMnwudBWft3QNEmWPcfhhaxAeYn/xbm2fNcjxONOYGQZv8ZlIArsL/3U9iru0YPrFBLz0O9dtxVbogAK/tI/F3v7K67WY5BvXJExIGnuDYoEZAX/Bksn/+Waz96lYjdn8IyLxSOT74nOpCNUPf9A2wV42B+4mewiHazX0oalJVrIZk0KMt+BMv6h0Wy3NWlEEmt/qN3b1I/2aVfD+aR6JQqoujz/ruKc6hYFH0I6Wa9SMYVniKmO1m7azEfnX+kK7GsPAf7kf+A9ZWfwF4XCWXiMsi9ihJuh3rsn2D9g2gH//AtaM7DRDvU/T+D7aN/g+3jf4cUZBZVPUcfpaAMyClh0Mrd7vFpioE88yEoc42y4FHIxqBMD4xz+pTcGQmpkyz+8K2oKi2D27qCCJ+YjfQACVJoLBI9z9ftxYGcah+MmzsTKb5Gla6zFtdP7cL7H+5FTpUJaxeNQ2zKHKzduBqzEiSUn92Lj/efQl5RNVo8dbr1gNKLKQHzH3gcjz38IB58YOPA5cGH8OjjT2DNpJ5ns4iGLWiGc+ESV/kL18+HvgvTjGxIrTkiWXwFqn7t2UBMiaKz+lWgeh/sp9yuX9GJ9zet63p/4zPE+1se+/ObnzHo+zsv9vJx3njfnZZ3wDkdCC1FUBsGew+dIhpm0Qif3drz3og+SaKB/TLM9z7sbLhth45CK3rfeV2do1KDNPERmBevFw1zmuuMNNGY0QLtsj7q8D7UVrdhBa0DWlMjYBcdTLtoeFKmisTzpLHfu9hcncBW47qrPkT7lLoOpiQJas4WSOkiHpavEX3JYjgOvAq1Trze2SEUn1+0CbZdW6Bq6bDc/7ToHE+B5NurfU1ZAiVEdEhLr0O9LpLgkHkwrdjgvCROb6+dfcw+RKU+jcLtV7zJVgytughajVvp1Btb0XFvLe2uq74qku7L/UztJ7oTiPbILxVSzDhRREIqaqS4WEgOfYaP+MMuPQhH3j6ovYojdxfUsl73JO6jb3xp+vXjvSlhkJMmQekqqdmQgz30oRnn9Cm5cxLSjmL4hwSjs+Asciq6M0JrZTHKRAOu1RfgcungK4o56i/BnD4Hc1L0eU86FR11N/DeO+9j1+lCtAVmYP596xFg/MsoQcmYteYBPLhqOkovn8b+7e/j3W3nUN0rKVUdImp4NofGCv0O282lIhH9d1g/FMlolftpnN58IWU8ANP6P4JpXDRsez7pXnp9IOL91au7b37GoHymin636FwnLoOiL5jSJXai6/q0INEoDuV66rClQPEO2Au7bjEjgjV8GswbvwbT5CyRHOfBsee/uhvD5vNw7Po3kaAegJS2DOZlfwzL6nshMVxpLGm+DMcNY6ETT4JmwTQxHY7im9MLhi5qIWQfEWM1B2D76JewX7fCvHCe6EyWwHHoddEuiuf4+MNx7pBIiM3ObTSdhH3nb0VsZcM054swr/+Ca7qwzpQBZfIEoO0CHIXN0Eregu1CsXjuQphnTwfMxoJodvdp/1091wF6mIEpomOeASk6zVV89SAV8R2Y1F0XNwGSx/uBE90JRHzJ0VCWfAWWe78Ky/xpkGQFlhVPQEkJM54jSKGQskS7PHuOUSHIMZASk4yd/vSTCPbWeQn2938M67tGef1H4rjQ+x7kjHP69Cg/EIztUdfSYlwHMxJqM87fcCA7LQwKHKjNOQTzlBnwL8nD9QY/pGVEQ787RN6hvSgwpSDdrwYFlTJmTIhB7fUc3LBGY8KE+JuJpZO9Bjl7DyBt4VLE6o2zztGC4gvHkVtrQUxsLFJTY+Fna0J1TY1bqUeLw4z4mFBxKAnB5EVzkOLfFXS6dpRduoAyxMOiNqCm1v21QystcjjCbk6DuPv5XT9sbNEtUZIhTxIH7uZjoqP5kmvKnl6uHoOafxZa0wAdXIOy8q9ciZzSCDX3HailbtN6dOIzlKQG2D9+CY7LxvvrRby/Wnqt/8+Qo8TrzHAU6TfWVyBNeUQE7B4gYS6UUKt4faHzacr8JyCrV6F2xop2Wjz/Sj6k9KWQzXrCe7ln4ypiXVn6MNSjr0HrWo1XjoA8eT2UsE5otcVQiwuhWUTDHZXqVhJFAmqFVlMHTaqD49j70PRRWRq29oxFxtbgGOcjIWIlaSGUgBoRZ3nG338o5KXPOleOlhMmQ8mc37dkLYKSvRiyVgC1Rr8MRLQnUXOgzHkc5hmiU6uPklTsg6NhsvO2S85b81tE+5q+BKbsFc4ix46HMn75zX3TJPG6htNw5JdBK9oBtVJv080ilp8UoegH7cJbcLSnQZZyRawWAcH+4hiyG5rvFCjj4p0njtSarrNb4nV6XPvXQc0TxyZP/dXkh2FZtham8eJ7jxMlKlgkzb6QE2e79vWSPh6oFsefBhVSrEiqa465LhWwpEOZkAFUicec35NGaqgxzvgeCRVqwRnYcw/AkaePhLqKPEH8m1cchlrRJNo5kehpgVBmPQwlwRfatdOuv/GA+TDf+wRMqQkiLvOgtfadUaRMXQytQMRAc/djUpI+ytkM9dI5Z9xJySIOg0R7f+m8WxyK40GPJnFsxbkS7YAj5yTjfBQMpw0fTFDg6C3KOvYzILUFV3e/hU2nOzEzJg1LNyxCrPgjfef9k6hsKcTR5vG4d+NKrHrgXkywnYV+P+++VDTlfIzf/u49HC3rwKEP3sE7mz/Clk92YNf+s2iMX4Xnv7ABs0NqkXO2ApaMiZg00b1kIqrlEtS0uVizbhkmhPb6Z7NWoaZBg294JBJTM5CZ5f7acTh87Dyu1yqIGe9e312yMlIQaqxgSPTp8IU0+TlYPv9z4PpvYf3DN2F9/aewn+01VXc0SCJhXP5tmLN94ag8BfsnW6CG3wfz+o2QAmaIjncObFt+JxLel6GaRIfaw2Us+qFKyv4TWJ78U5ii/WC6X1/E4Rsw3/M8TIvXQKp4Cda3/gP2phgok9KAa72nOx2EFjAbKHwP9m2vOBs5ojtHA9Sdfwfry98UsfJvfQoC4iCZSuD45J9hv6SfANKJv/EOK7TyzbC++k3XKru6+j2wvfU3sF2qBBzXYXvDdV22XlS1A44jf3dzv/O13wKNV+E49SYc11w3oTc99PcwTwmCuu9nsOW63VpCLXNN/a13QErLhKQWQy3q1WHU5/fp04p7dHzdOESvW6uHY/d3XJ9/ulB0aOvg2Gnsi6JpndA69fgV76Vfa6bfX5XoDqI11QCtdT2LiFetvRaIWAvz438vnlQJx973REyOE23cUufr5GnzIWn6LZ9egaPKY2dXEO/jaYruMI25OB/svqd0xxvjR3IV9RcP4mh+K3ySsp01cmA6Jk3OxJSpcag/fhRJU7MRr/+dmmKQlR6Js5eaPMSAjMC0SZg5fR5W3PcgvvTU43j0wfVYd989WLViCaYnuVZJkuWRJYVqayOaOiUEhYQhNMAHJrd/VbX5OjRLGFLGJSLMmCJ45nwRWt36w4rF/zM1OkrepkCa8AWYZ4wDKrbDUeTqaN4e4rMmPQZTUhBQbpxNbzkB9cp5OC5ehTRnnUgW97jO/tpFx/dGBZQJ0a7n9SAa2YIjcORth23Pf8P69j/C9tG/w7bjN7Dvfw2OYn0BJhH5npf5Jbp7Bc4S/T/RST28ue+tYJrPilgrMHY8kPwgp8yFnOEqkn7iJ2z6zX05NdV4Yjf16mmo13bBXtz/6IQcGS4+u6TnNd5Ooo0dzYvCGq5AG1mzTeRFor8XMh7yhLUwrfw6zLOyRJ1N/J9ov2oPw1HeDkWfrtqZB7VaBFHURMgB4lXRwUB1LhwebtfWTbyH82Hx+vhJI740ZazFuZqfb+zQ3WpsZ0FqMypqbDD5RmOy3nl2siBp1iKMt+bhVEELZo0PMn4JBWHjxiEj1pjT3oscmIrpc6YiM2noy14PlbWqBg2aSCrDew9dd6L0fA4yFyzC1Fh/1/dUm3Di+AHsy63VF/4m+vQFLYJp+nig7gBs+3YalbeJPp02QsRkZykc548Zle1QT78B1bIQpoRgOK7UGPUOaNfPwtHfNJzW03Cc3AG1eIAONtHdTI4xNgw+WVCWPgD12GtwVA3jNk1d5HjnvXrNi1xFki2ik/zIzX3zwpXGE7upF96G/aiI5QHO/chh4uGKi337pHryOGonjcTxIv8jqI2j2PElup0C5sF0/1/C8sQ/wLLxBZhmLYAcJGKqrlSEhpGQohFqwTXIGfp9RluhlhZAaxEZn58iktJOOO/hPWAI6Q+KmAhaANOiz8GUFeeqHqaxFuf2wx8Z+3S3GtsJqRyCics34LHH78O0KPfTPCL5nLgajz+6DpFui4LJIZMxMdrHGQtDonagvuQKzp68ZFSMRAdKS6tgs0QhzriFTBdr2Vkcv9yMOWluiaocjKxgG0pO7seJkj6nlYhuMxlS+nRIpmbXNSC3+6yIWgXH/l/C+t6v4Kh2XylJNDJ5L8L60Ys9G7PGPeIl/Z+R7UMKgJS4EMqsJUYF0d1KgZT9GCz3PQ45OhAwp4lk9AnnitL2Qn3K3wg4CmB/70fofNtVnFN2j//s5n7nu68aTxyOIEhaxc1rxHvSW2dXwEtJE8d6D4RodLUViTwtBOq1nbDv+U9Y3/werO//hwhD/ZpvGzSb0RiWXhTxMdN1N5Urv4ftw5eg1piBTn3l2YFux6a/QCSCWjTkOasg+1jFe45WYtgb45xG1x3xZ2KyWDzepcEcMtwzPw50NFXj/MnD2LX1fbzx6ut4e+s+nLjaaxGXYVBbCnGtpB3mmATEu91GxtF4DQcP5KIpLBtdCxN2WbRiFuKVWuQeOIyrTb1PLRHdTj6QIvRZAuLvLmYVlJnrPJcZojEL9bAE/EjZ+jn50njZ2Bgq8Z2CRUd81uMwrflzWB7/LswrHoKSOtjKg0R3Oge0i29BC50F0+o/g/m+L0KJVaDlvm48PhIqtE7RwW03is4hOsdd+50jGHVNug8oPwZHXd8FV5w08Znihzz5i7A89AzkHisP9kck45kPwrT4S2Jbcl6iRnTHEQmcY/dPYT+1G2rJDfScJmcV8Wb0B22XxHMO9zxZ6z8DKDkNdQghKaWJWIm3QLv8LuxXKozaUcY4p1EmaYKxPerKK27h2jR7MX63ux2fX5MJtxtE9MOB+txd2HqyAm1Wq2hizQibtAzrFqUayaCKlrwdeO9kM0Lj4zFnzmzEBvd+VzvKjryHLZd9MGleJiJ6BUJb8VnIcx/H9BD3oFLx5ou/RXPIFKx/cB5i9azZVowD727HxR5z/EVgySZYfCzwsfggKChI/LTALDWjNL8KWvICfGHNJOO5nw3h239hbNFdyzQFlmXBsO46ZFQMRL/W9MswT02Gayl5K7Rr78J25IzrYf3c2cTnYZkSBq26QDTWH0Jr6n37CzOk+X8Jc5p+j9JTzkVFu8mQ4pcCp34CB6f43ZK6NX9tbA2OcT4SFsiL/hqm6CuwffA2NI/9PT9I49fDNH0WJF877O99H2pLPx3D8OmQowOgzNwAXP8dbMdcJ4GkWSJWJoUB9aIN6jckLJDaD8K656ix70HyUzBJm2C3LYd5wTJI/jZY//A940F3fpBXfUd0lEVD2VYnOtgRooP9Xs/3jlkGJT0KKPwQjnLR89YXMpseDHX3P8NeJo4BQeLY0Nx1uyedAmX6PeKXEd8zLBNyQiS08/8C27nbeV383W+oMc74vgVyAuTsaZAcoh0LyICS0ATb9gooa5dAttt6zXgVfUj/cBE3ta4ZtJJoL02VsL7zW+ej3YJhefq7QNNp2A/VQ1m9FJJ+CzjFTxRxfOg0FkIyiX1Z7Iv+cg/6fYgb9sO6fYdzoLUHL8e5lLoCcpg/43wUDKcNH0xcrKc1P0ZmDN/2pQXFFTYkJ0XAMuhZEhl+IRIaS5oQMW4ypsxdiAWTYtB9NakES3gKJmVPwcRxSQj08TTy40DN9fPIbwjFxGXzMCEmEpGRXSUUqLqM+pCJSHA7y6M2FeLspRqkLViM7AgjwVUC4KO2whGUgPSMccicMAnz5y/AvPmzMXPqFEyZPAmZ4zOQkZ6K1LRkhLQWobDehGmTREf8M4TLxX8GyFGQY32glhQbFQMRrV+TSBoTo6AVHYXjzGY4LrkvYiAer7vgull4fq5oWD3NNTZDTl8OObgWjkOboVbegFbTVcqA6PmQmg7zdi+3iLd9ud1EcpW5EnJAI7Qet2VwJ/7+6y5CLRYdsrBxMI0LgXq91y2SumipUJY9BFkrhnp6p/j7d72hnC4+I1S0Vfv+HfZzR+G8VVTvUmiHMj4YjusDLCgSOQuyXAkkLIWiTyW+ITqZRaXGg+7sztiTgkL0aU9AhYjzE/t7TikU7aFWchFaV3IdOx9KjC+0G4dFeys6rtbew0MaTKu/AiU2BXKQ6GTXn4bj3ElonYzxW8HbvnwKNPG3nP4QTNlToURGwHH0ZaiNZpFwib/j1gaRzDW5FXEsaKwQ8WPstzdBa62EeuO68WYGJRHKxAQ4Dr4iutB+kPxEYlutt38irqqLodWVuUrvfWcph9ZQIxJBcZyocFtVt4uX4xy+M2BZuIhxPgrG6m1fxu4I6afOjqqr53GjKRBJ0zIR02OOsIo20aHtCExEuNu0XJ21tRVagEhCjf1hs7ajDX7wH3wY+K7CM6s0+kRjPn6NaLDqoZ4XiWePnFUWDepESC250Hjp9i3hCOntFgB56kbIgVVwHN81+HXezvv92kTnUHRiPdFvsD9hAVAsktGW7uu4paTFIlbsUIuOi85tf0OkgaKDbIZWX2/se5DxBBT7ZvH5Jkhp40VH9Ww/o7ojkLBMJJuio1qwE2o/UwPl2Q9DstWKDvZlqGW3aXriZwxHSD8l0UugJPtDq70GtaBXcjlCyoRUOC55uq7zFnk5zqGkQclOZpyPgrE6QsqElLyCDRnRnYkJKdHdjQkp0d1rrCak3fNPiYiIiIiIiD5FTEiJiIiIiIjIK5iQEhERERERkVcwISUiIiIiIiKvYEJKREREREREXsGElIiIiIiIiLyCCSkRERERERF5BRNSIiIiIiIi8gompEREREREROQVTEiJiIiIiIjIK5iQEhERERERkVcwISUiIiIiIiKvYEJKREREREREXiFpgrE96sorqowtIiIiIiIiuhvExUYbW7eOI6RERERERETkFUxIiYiIiIiIyCuYkBIREREREZFXMCElIiIiIiIir2BCSkRERERERF7BhJSIiIiIiIi8ggkpEREREREReQUTUiIiIiIiIvIKSROMbSIiIiIiIqJPDUdIiYiIiIiIyCuYkBIREREREZFXMCElIiIiIiIir2BCSkRERERERF7BhJSIiIiIiIi84rauslteUWVsERERERER0d0gLjba2Lp1HCElIiIiIiIir2BCSkRERERERF7BhJSIiIiIiIi8ggkpEREREREReQUTUiIiIiIiIvIKJqRERERERETkFUxIiYiIiIiIyCuYkBIREREREZFXMCElIiIiIiIir2BCSkRERERERF7BhJSIiIiIiIi8QtIEY3vUlVdUGVtEPX2loN3YIqI7yf+l+Rlbg2OcE915hhrjjG+iO89w2vDBxMVGG1u3jiOkRERERERE5BVMSImIiIiIiMgrmJASERERERGRVzAhJSIiIiIiIq9gQkpERERERERewYSUiIiIiIiIvIIJKREREREREXkFE1IiIiIiIiLyCiakRERERERE5BVMSImoD8X4OZBZASaESsbOMCQF+2NFiAWJJqOil6VRfsjs57G+JEyLC8dfpYUizKghouEbSsx74q8MfhDwMQ//3c39vq2E0CEfH4jGPr1N7K89hGQeZpvYV1aQGSHG9q0INX56ZsLMMF9je6QY259lTEiJqAef4DD8+5xEvJgdhqUDNA7fmRKP/50UjInDSkolJEWG4s8mxuJ7yX7OBi452AfpbkeiDelR+MX0GDwVYFQMQvLxweKYQDQZ+7rYAF9MCbL0U3wwPdgXC0J9kMojII1B40L9MNls7AwgQfwtjx+VDpyENZmJ+J/xgUgWe4rZjAk+rkcGJDrLj01MwBOiFzlQVzQ0KhJvTIvAvUN5T53si69PT8KTHo4B5sAQ/Him+K4Tw7ByqO9HNGa52sSu9lCnt4k3mf1utokj9Z3JsfjlpDDc6z+CM8hdREz+7/RofC3S5PHklTkwEM9lRuMBf6NiBNLiovBfM+LxT+NGI32mOw27Y0R3qJXxwfhcXBAeiR1+eVy89sFQxWPDYreqsMoy5PYOHLcblR7YoCK3shl5mlHRLxPuTYvBv2S4WqpOFdC0TuwrbUeD2P9qZgz+YVIoFhod8HDRZlbUNODdVtf+wDS0OsQX0GxwGDV6Az81IRI/yY7rp8TiR5Nj8O2sUCzg2Vgaa0THb31aFH48LRZfCxuoiTZhRUoM/mlm/IhHN9012lXUNbejVPHF8xNi8eNJUXg0cOAOrNnPHzMDZERb5AET0labisKqBuzsNCoGo2niOCHhfJux7yYx1Adx4vhkb23F0aG+H9EY0tUedqWYepvY1R4qfkHONrGrPfT1N91sE0fqhoiT8OAgfE0kpt+NH9lZnIzYEDS1tGFPvd2tre0iY2FsABIlO973ELNDof/ezyX4IkiW0NHBwP4sYkJKdIeaGxeKz6eG45m04ZcvpoTivlCT6NL25RAJnk38bLLanT/7YxfJYNsACWs3B4rFGyVEhjk7zg7xOqiq6ACLHcmCbMmKg2UtOGV8WJj41NM1nRhqk+TMR43tLlZVw2/PluJrZzyXn5Rbnd+js2/LSuRVQaEBmCH6jJW1DXi1XvRUJRMWxwVidu+sU/FBusgCO1tbPHQQh69VxEx1uyrivxOHajvQbPHDF7KijEc9kZAd7Y8UScV/VFmdnen+qA4VtR3ivY39odBjuq13YAsLQywwOTqwv9KKEfZ9ibyqqz38cqTrpLDeFnW1h0+lhzjbxK72MDLAfLNNHKnvnq/Af1d0olE2Y27i8C9u0ZPFZ0Uie6jOIRJbPywKc5U1oWbop5n9g4PxWLgCW1snHowJ7FEejw/ArMFme8gWfF783lNNKi6WVOMnJR3GA/RZImmCsT3qyiuqjC2inr5S0G5s0Uj9+YxkLO2sx7MXmwfsDHbxDQnHt0I68GpJG66Kfm6/zEH42cww+JaW4y9KXCOP+hS+LLOGZpH9deWg/zQjFuevVeLlZtchxE9R4K85kNfu8Njx1But4KZmxKbG4gdRdvzmdC0KI0ORX1nX3bE0B+J3yQ788fV2DLVJSk+MxT8naHjoWKVRI2FeehxCisqwvZ8e8KTkOPwk1oGXTlXhvdHozX+G/F+an7E1OMb58ASFhuNfsgKh1NTgByWdzhNCSb4WTEyMxMN+nfh9ThWeFnHfdSa5a/zSvRGXtA5sPDb8tjcoJgp/aq/BP9Z2vZuM2UkRuFpcjUajxl1afAx+lmxGbn45flilYvW4WDwoteK14nbMEwm01e1LSRZfZInvdcnoZOtMsgyztQ2/K2lHrVF3k+SDr02NwdZzN1BgVLlI2Dw/HscLarHDwwFCkiQEmmXsrh7S9Arqx1BjnPE9cnp7+EyQFZtKO51tYmJxpbM9vN/Uiv8Udc42UbSHP5wejuS66kHbRMUvBP88NQTNje19TtAORXKIHxzVVfiT/I7uzxEJ7MPjo/HFMBkFZTUIjouCX3MjfnWjHTXiQwJkBRPEMeLRYAn5pVX4QakV/zs3CfaGevz4agsKxXPi/c0iUbWiuN8+hwlvz49Dc1M7LnYO8M3Fd1kaLmPf1Ur8s0iMaeSG04YPJi422ti6dUxIySvYkN26ngmpjH8e54f/ud6Kax4jWsLKcfH4gqkJ/3q1GTkDHc89JKRB4qDzUqrfAAuN6DS019fhuUstaDZqIPvhj7KCEO9Q0W58L38/X0z103ClrhN1Yl/vRAaYNJwrqsXxkGg8J7q/m1p6/RJ6R1Oz40STXTSWEl6bHQ+78RRJNIohioYGmwp9fZULheXYERSLuLJKHOmnEUxJiMbfxTjwh5NVeJdt27AwIb19XpiShA2B8s1EU+dobcR3iyR8fUIQFNFh3NtpgU2VMCE2BNPUNmyq6oTVeK4eJ2bJgVdLXQnZ+IggzDCpaHJog45Oyn6BWCc6wx8aJ5i6SJKMEDNQWN2CE10JpckPfzklCgvsjfjehUZcFB3nH00LxzRFxdWyRiRGB6NDxN7NdxLv4Q+1x4innpD6tjfiz3ObUGzU3dQrIdXjWp8JYfYLxqbpg4zwaFZsOFpu7NBIMCG9jUSb+PfjAm62hzq9TfRt73C2hzq9TbxWWuNsD3+ebMblGzUe28S8xu7kUfEJxi+mh+Jvj90Y8uwid9+fk4yEmkp8vcA1O0kx++Lp8RHYGKygrqYW37/WitiUOPxNnAlVFdX4dmEHFscHoLIFmC0SxT1FzbgsvuKGrAQ8ryewpZX4m2LrwN/F5IPPZURguTiO/CS/FTd6/Yo3SWY8khWDxa3V+F5xZ3f/gkaECSmRGzZkt65HQmr2wwezotDQ2IB/udqEs72m0iq+QfiHKWH4+MwNHBhsmq2HhNQnMACPBctosjluNqTPjQvD1ZIG7O9wVaxNj0RsQy2+cqUVoo1yUfzxV5NDMU4SHWLxNLPZhFiL6HCLw05zpw31+puLzqZJfMrhgmZEZERhha/nrNfe3IBviM6v3nn9f2lholMO0cUFfAP8sSJYw9bydtHJBUprGnAjMg4/iB1knpDagdfOVOL1m715GgompLeLjHfmJ6CwrAavNag3k7k48Wd8pM6BVRPi8MVAKx44USniORg/nRoCScTo35b2N7Vewj3jE/CnkcqtX5ujdWJzTgVeNAYeJyfF4ofxMg5eLse/NWiYnByLv4+3oLqyCn9T0NFnRNU/PAJ/otXhF/U9uxv6CS6bUaXP4HhtQoDxe0uQxWOqOE5I+gGiuR5fvtiOpVmxGF9Xjd399HIjI8PxJ6J/9CAT0lvChPQ2Em3i/2aHONtDXVeb2NJhdbWHOvEnf7ygwdkeLhftoecWEfjakaKbJ3MU3xD8YlrIiBPSH4qENL6mCn8q4ld/fVpkGL6aFID4jib89HITLuqNreyDFyZH4x65Ff9zsQnfmBUvDg3tePlyDTYbZ5sU30D8IDscWdYm/CynAad6hrxBQlJYMF5ICcZ0Xw1fPVaBxBAZVxs8Tf1XsDI9Gl+LNuH/HS1GqVFLI8eElMgNG7Jb13vK7pcmJeDBYAUdLU34j8sNOHyzlyphdmosvhOr4NGjJf2OlMTFReMX8WbUWjXEBJggWW2oEL1FWZLwcW45tvZ64evz43Ekrxz/3ug6hOgN2riGGrxwta3fa7u+PzMZMyyiXRMtrL2zA58U1uH/6pwXz2BWSiz+Nk7Bz/JqXE8WQiPCRAdTEkl2o/M6mt211j5nRz1N2Z2dFoeJ9XW4dPPoJmNhSgQCamuxo8U1bOqjiGNUYweu9/cPQh4xIb0dJIyLicQ/RlvxwwuNuOChVQ4MDcVfRqr44bUmZCTG4GfxGt46V43SxDjc1/7/27sP+Laq82/gv6urvSVL3nZiJ7Hj7ElIwl6FMsJKA7SFEsootNBC2YVCKX+g8AJlQ6GUGXYhbAgQVggJ2Ttx7HjJQ5K193rPlWTHQ3LsjNpxnm97PkhX047Pec5zz7nn2HC3JdxrSp9BLoWJ1fiegysZiVS4pyiK2xpCndPyBUL9l/Mc/IEImlnVyTcYcMtoDcw+Fx5rZF1X9tgp5WZMZLX+qfU2fJwhO86WkHYlUarwC0PqQlkxu31GjhSfNDgRZo2FKhrEUmhx6wg565TWY3cL0d3Y0gLcy34vZy5vSR8he4MS0v8NIXn7yzhjMibGw6l4+DyLh0IVmj6iIBkPtzXY8W66AnfEw2U1DiyPibDG7uuMhxJlasruTSsboUjEYU+FuT2SS3hIIjH8bVYpDDYrrug6NViYHcHF4eryXjKZGKYYh2llZlySI0bQ58VL7Pt86Ntdt0fqFFD5AtiU5eT3/IpCnGsUQ8Haps2NNrwhMuBG1vdwtTvxWI0H6ztfx+OYMpaM5kngY/H84m2dp7rJPhiqCSktakTIMPHCljY8bY1ApNbimiojjk0vpicsSDDfLEHc3/fiJ5FIBLW+MEtI48mAGI1GYQ9FYWPFnaEfKYGwKFB/erppYjmmioL4wh5FPB5FS1yGU8fkoZglp3lGAy4TRjRZcFvJksRUCcHLOupcIopvWOB9L0Mymo0w8tLq6XgfoQSwI5RAo8Pfeey7dkpGydAgUapxYZECi2vdGZNRgdfpTCajwnTWk3JkiHn8+Ib9TdsjCWxldSPT9WWOYBg7gjE0h/pTIlCKRXD2ON4UjGKnL5WMJknFyGVJqFqnx03j83DT2FxMliRQ0+rGksxDtf0S8fvwSpObFS8srCMqZnV4SZMLL7Ck9J2QEn8okUMdDcDGSXHphCI8M8GES9IJbIfkvQE0SYQMGhYPLxmt74yJHfHw7hGKZEzsiIeLLIHOmNURD2sdgWRM7BoP49EQvmxwQWoy4enDSvHWYSV4fWbf5Y3DinAX+xyh3rxbY8crrP/QrQqzxLZrMiqQ8DKcW5XHklEet2+w4fuEEpeOL8CdJanvLdjF4m22ZFTwYaMLK7xh/FDblrxWfqvNg6/dcZhYP+BWlqCfLORLIgnOYL+P3+eJ4ba34/+2UzI63NEIKRkUdGZ132Vf1EiE6cVmXFssw8eNAZxUrEDcZsP11X5Y08/oU4Ypu5n8d1Y+Fm9owfPp4dDMI6QcSg06XF6mxURpHL9Y3oSJZQW4NTeG15PTZcV487BcfL+jBQ87wAJyAeqqm1KdctbxvHxSPk6OuXDWxkzLqqR0jJDe0xDD+aog/rbDh/GjCnGeLILdS5uwDrRChkggNR0phQV3jsPzm1v6sXUN6UAjpAfO09MKWccyAZlMkhzZrA/F8fW2ZrzZZQ7eDazez+UD+M+mdixnncWcPDOm2634LJoayYyEI2js0RlUG/VYqOUy1uXkQkBiYHOTE5ewzuATa2z4dAAnaiqL83B2QFgMafeL3jq8FFL2367VSuirdr1f02jBn9kX7flRo4vycE+RGN4YD6MkjmqLDffWBzvbrtLCPDxYKsXWWgv+0tr11RymjyzAbXlRnLkXizqR3WiE9EDicPe0kmQ83NLQhr82RZIxcXSTJRkPTxxlxmU5HOavaEnGwwsVPty1wZmMiZdPLk3Gw2tZPBSurd4bxQY9Hh+twLI6G/7ZFsl4IqsbToQxeiWOzVHhNJMUbS4PXt3lwpddL4JldCoVflWqw/HKBDY7A1jj8OMbRxjWAcVWDqNyc3BzmRK5wpoRDTY83Nz/E9Gkf2iElBDyPxLHqsY23NcQxIISBXRhPxbV9zMZzWK2VooKOQ+TZHcRephifvd9oTEROrc5rDM9SSdFEXvcbDTitopUMrqTdSyDHA9NLIwNrgjcydYniru3WvGksL0F+9514TiqOi795KUoZr1aV6AfF3lyYtxSqgAfiiSTYYWIS17rKlyflirC1OOu91PHoqywm4QMCZevtuB36634ivXzYwEv7lvfjBqzGf8Yl4t7qlip1IFn9UYkUWLhlGI8M62YJW8ynDtJuF2ERyblYkGGvUPFUgmmG5WYmS5H5mk6b88wKDCe1e98PoG4WIIRfW0o2oMw++LCfBle7JKMCpZYXHij3oFX6naXl7vcfrXeieXeDNvA8ArMy5Uh6vZhA0uqX7PFMbLQjL+yDmph+inHGKWQRAJYmvzM7j+rcA05IUOZEBM74uE9TeHOmNgRDz/f2ZaMiR3xUCassp2OiR3xcG+ukFYqlLioogD3V2rx8tZW3LeHZPSEkhzcPi4fz80oxv+rzEkmo9ZACFuDHCpy9bhihKFbOZ89HvOzdxSLMcakxUWV+XhmRhHuHGPE7/Ll6GsDqQ4ymRxHGqTQsmr92tYW3EXJ6CGFRkjJoKAzq/tuj9u+CAsdzTAnr015fZsVi/p1IRmTYYT0v7NHZNyzNKt4EC+tbsUbEQ7jCo2Yx3nxZFNIWHUEj42Sw+/y4OntLqzqMR1IbsjBrVInbmuNQa434omxKrTusuDmll5dV4bDmBwtflGkwSylCIu2WvCOM4oQS43PrirClq0NXUY+Jbh4YgGWbaxPrgRI9h6NkB5oYvx6QiHOhiu5iFdhaS7O03CQyGUojnlxK6uTY7g4fOnQrdLrMMrtwoYEl5xya3d48G1fPU1hyuvEfLy2vr5XZ+/5w0vQkrW+9STGvLH5uFgdxpk/7Z9YLyyWdEeRCMu2tSPEfu6PNzRjakUuLtREsGhjG15nf05PzipFrLkFf2oAzqk0Y+22pvS14hyOGFWI63MimLeC+h77gkZIDyQONxdJk/FQiNv6dEx8aGVjxnj4ZKUSjbWWZEz8N6uf2eNhXzicPrYYl+oT2NnqwJ9q97wtUqEpB3eNUsGUiGGnw4elrR7MHp2HnFgieUI3G30iiId2+GE2qTDHoMAUFfBTTSv+3tZ7NkQnXoLjC/X4Rb4CBXwClnYXbqzJPEVXOOktrNht6etLkD7RCCkh5H+Hl+HCihw0uELwSORYUGnCfFXvkZP+ernWjqeqbXi8SxHOZTVb27sdE8oTO+14rs6Djcnok8Bmix33pIPvibkKaLkEam1erO0RfAVBlx9jc1QoZQG0QieDMRHBVlfvMDbOpMPNrNN+7xgdDmPJqLAK6KJkMspwYuRIOHRbP4UFMeGatPT6S4QMOeosw3sbGq3406Y2fJQ8oZTAJpsH71p9+NzmT5bVQdaBc/rxGTv2bvMektE9aIxxKNHIoE7f70t5ngHn6IWpvg6MVMtxQp4WV4wy4pwMI7T9dVG+FAmPF+91VNR4BO+w9uSxajveSuY+IhRE/figOcw6xRFs8sUw37T7OtLUtlRUyclQluiMh8JJnY6YmC0ebglznTExWzzsD1c0jngshM/q+7dHr8XmwEPb23Dd6iZcu8OJxe4Ybl5twWXrmnHV+lS5flNL5+2OcsUGB34KhvBxYztu29CEx2vb8Yo1ezLKS6R4eEoBrilWopAFaWGbqaIcA16eWZKxvDSjCDfli1PXi5NhhUZIyaCgM6v7LtMIKS9V4DKWiJ6sFsHe3o6FyYUARJgzMg9/zJfgmTX1WNLlerSMeoyQGtUqnCH24znn7qZCotbjmXIFlArgq80teKrH3oUdTCYDrs7h4WXBMJrgcIxZji32AFo7gq9IgiOUIdyevkZG8M/DSpEfYQFMxqOlsQU3su/Qc62UP1QYYWl24m1PvNcquzKtAY+O02Az65gfr+irc5yArc2Ki3fS3+JA0AjpgTHWpEWFSKgYIowv1GMW/FhkCUKeCONVawQnVhbjMoUX34Yl0MWE+pR6nVgmhz4cTG5UL5x4kfIc/rK5j9jbxwjpKFaX7i8W4butzXiwS33vSVg198kxSojDUbQEI1jZ7kedL4zt/mhydc8LxpdigSKCjZ7MW9LoVQq8yNqi1Z0fIcLRo/JxIWvJbtjph73HPqQpYsyvykf1tkasSbcfEp7HazMLsKm2GXeyRuVk4XekCWDeT9nW4SX9QSOkB44QExfquGQ8NOtUGC+N7Y6JLB5OMsmg9btx9vpUVJeodHhgvC4ZE5us1gzxkMOkfD2OlyfgiWXfb1in1eBYVQw/NvuzTvkVCfsFi6L4ps6DdT2rP6/Au5NVeHyDDZ+nv8Drh5dgV30zbrGkEk6l3ohFo6X4uqEdz7WGe23/JJAo1HhlshEK1lYlhEWTfEFskygwNeDAb7Z4+pyiK9MZ8FiVBu6GJtzQFMs+4kr6RCOkhJADKk+vwx3jTThFzaHFZsffd3RMeYlj2S4rXnbEcGmFHjP7OfdWp9PhzklFeHJCDnTpYykcZuYq8WOdCz9FJDiySIWi9CM92WwO3L7Nhn/sbMejLRG4HU48WN2OB2tS5R0/sLHV021RoffaY5DLJFBFAvistXcyKnh0e3syGc2kTCeDGVGE2HuGPW48tK0N9/cs213YGgU8rENNyFCw1ebG4jYvK/7kokSJaATL2P0XrOFudUAu5mGQipEjSxWjmIO64z77r0Gy92F9F+sY1yXEmGyS9zlK6nc4cM1PDfjlmmZct8WG11r9+MGbSkYFQkcxHvTj2W1W3NGr2PCVP4HuV4bH8XVtG56qY8lo+kg36Y3xz9eJsIAlpU9MKcIrM0vx1swiROIiTMjToIoDpMKPHs+eSBMy2ISY2BEPxSwWd42JQjwUpqMKMbFDxOfpjImZ42EC61sceGiXE882uPB8xuLGt/44SwCjWGPJ9HiqPFfvwKO7MiSjglgAQakS84vl7DumrItwGGNSozJ53leM0wtV+GxHKx7MkowKIgEfIrEotlhdeGazBb/dYAWd1iACSkgJGQ54Ce6r1GGyLIHqZhv+Wu1DTbegEsViFvAUKi1+P0qN8l4DhxzyVXIcl6fDIxP1qBAWJ9IoMZqPYbPVjVe6zHWVqbX4hUmMxS4/3m4JQcwS4YXmPWW5YpxaqsW3zX507BYKiRIL8mV4o637mU5bOM6+Lfu8BAfW9x4YTobjjFKIQsFkv1To1K9sD+CbnsUZgZCuxw7cBBFC9ouS9PZNHe5e34w/bGjBNenyD2sEn2/ruN+Mq9bt/R6cMdZZXOZJQK9X4wRhmdxsEnE49/fwRDyKldnOD7GOdFMkkZym5wkEsbzViedYx/e61Q24pSmEuFKJk3Q8lCKOfbXMJ6oIGTpS8bBCFNkdE9PxUMQSUCEm7pbojIkDjof72bcsc8w3aXF6eoDta2cUYRGPYhb+DUYdTtZy3foKmSVwxWoLbqh24gN3rMuq9+RQRwkpIQc5o0GPeyfnwxiP4PvaNvylLoCMXdJIALWsr6ZXKzCpRydXGIE4tTwXfyzXwxQLY2VzOx7e2ISL1rTg9p1OtHbEGIkcvy3XoiwRgoXdrWl24COvCDNG5qQez0KiUmKagsMpYwvxcKUB5+fIMW+kAYeLI732Xbw0XwIuEoNbosCFYwyY3bHqbj8UmrWYy4Jls6N/18kQMqTxUtxaJMcAFr7dOxyPCTlalvBF8XlrAC6xAicWyJBqJjjohQuw+yRChVGDK8cYMe+AfNkEVglt0mYL7q5x4sVmH750hlAdTqCmzYUXaux40cUlR0gTMUpIydDWEQ8TLO52xMSOePhlffe9iHU6fWdMHGg83N/+2xKEn5dhuiF1Def3u1pw6Vo7PovL8csSFQwhX+flQ33x0FxbkgElpIQc5No9fqz2x/GSsJR7a7jLHqC9PVXvwRvVdrzbc+GTRBgft/mwwerExeta8X91Hnzh7X72kpcpcEWlCScp4lhVl55YJ1zfxhLW9XEZLtXzWRcaiPjcuH1NI96yhcGr1Th/TB5+a+IRC4bRNb6q1VqMYMnue9ubcV9jCFGVBteMNaQf7RsvV+PSYgU0sSC+bKHzruTgxrFk9PxxuSxIcywh5cBnyQmFhXyELY0GqkynxDklBtxSlY9/zyjC/43RJmcqONvd+MqXQLFZh9OE5JKT4lfsOUJi3GtqvoglsiwRfWx6Ee6vMOJkA49Epjn2+4Gwh/BX7gxDqJEg3m8LwcaJYWaNCSWkZKjriIdXbbZ3xsSOeFgfF3XGRCEeXj9a0xkTO+LhUX3NXjiALKx/8Pj2FtyVvmYUrK55WNs0tUiPo+VRfFvnSD6PkL1BixqRQUGLIey7G6aV4kjZXvREu4iHvZi3KuNVWyliCeaa1LhupAZ8LIKvd9nwuDWScZrNnVNLMFXOIRoOY63di/82epN7CUIkwkilFJUaOX5TqoU4HMSSBgdesbH3kcowT8kCsEmH001SqNlnnLWyucsUXh5zSk24qUCMnXYP3mxwY5nw4ayTfKqwKh8nQolRhSmyMF62czhVGcITmxz4kb3BFZNL2f2+fj8J1DQ245qGA9SDHqZoUaMDS6nV4/6xWpQgiuV1Nkwoy4cs6MdrtU4sj0lx/wQTZLEYLP4w6vwRtEcTCLEcjGdZqZwXJbd+eana1rnvsDk/F0+MVIBVTfYnn0AgHEG9L4xPW9xY74nsXmCsGxGOKs/DNblifO+O40itCLUNLbixKQJjrhkPlyugiEVR4wokFzRaZOveIiwYX4oL9rCo0XNr6rEhW+8jvajRJ+vqUZM+1BMvU+MW9nsys59JIRGSUQ6JcADPb7Zi8T6sNExoUaMDTViVWoiHk/UKTNVKkjHx4jVtyXh4Ur4SCncQZ481J+PhlzVWPGrvWKU2FQ//UCiDKhHDvWubUvEwE7EURxvELMbHEGK3jy3WY440iGdWW/Hh7gDbJ16mxf1TDBizD0NX9/9Yh2/2cI7oz6wvcwQfg21PW7mwvoRRKrRFtKjRvhiqixpRQkoGBQWyfXdCoQ75LKkKxRPYmzEBEcdBwrqLrzZn+7fgMKHAhD+VKiD2evAK6xB/5s/eXPBSOS4oM+I0HbCx3oZHW8LJ6TuFOTm4Y5QKBSyofddow5sWP2q6fOG/TS/FFCkQCgTw1k47Xu+1WBGHZw8rgt/ajn/W+bEz+TCHE8cU4fcmHlw8hpq2dvyx1g8hPxcWMxL8fkopjo848fstnl4LpYhYoL17kg6atjb8tpZ6rwNBCemBNyZXj7kRD15yxHDjpFzU7mzDovQs9EKdBmfnqzBZLYGJJWFiVo+7YR3V05c3pu8Il6bpcG+VCjuaXVjrDGCVP54xSeyFk+CM0WZcahLD73Xjgc1OrBR6gGI5TjVx2GINoCZLj/DXE0pxDufGDRud2N6ryUjtE9y2rQHfZWu4ODmunpyLT1lCmn3fYDF+Ob4Q52lYnY9EWHLsw3sNbnxPkyP2GSWkB9Yzh5Um42EgFMIqq6dbTJQoNbityoCqWPZ4OJHF5WtKZLjnp8Z0PMxEwuphPuZrhDkWwrmoOJqtdty505+83KZfeBlOzZdBzfoYHat6D4TQx/ipxY3aPbz2RqEP4LHj0u2+5NoO2ch1RjxepYan0YLrGrNvJUP6RgkpIV1QIDt4jDTp4LC5sq6a1x2HApkIbaGuZy9ZYpuvw8yYH89bu6+tKTDodFhoiOHjBi82Z4kwBqUECn+kWyAVFl2aJY2jxhPC1nDvZuzcUWZMYp/5xC5fr2tqheT57Hw55H4fXrLRCOlAUEL6vyVjnbpQljDNi0QwS3nkSkXJ50lEQoKawDft++skC4fz8hVYZ/NjywAWpJ6dr8d4LoSPmgMZOr88ppiV8Ng82Jmt98HJsGCUFj/ttGZ/DlOglkMTCaM21M8km/QLJaQH1gRWP4R4+D6Lh5k2KBJiYoHXlTUeCoSY6GAxsS/l+Sb8PodHvSeArU4fvhqiiwidW56DkSE/nm0K9HkNqkSpxAKTFCG3B+84aYR0b1FCSkgXFMgIOThRQkrI8EYJKSHD11BNSGlRI0IIIYQQQgghg4ISUkIIIYQQQgghg4ISUkIIIYQQQgghg4ISUkIIIYQQQgghg4ISUkIIIYQQQgghg+IgSUijaPz+Dbz5fQNSi9nH4W5pgbNjGXrfRnzw3LP418sfpw/0rfXHt/GvZ1/Gp1vdnfs3+mzNsLS0oa3NmqW0obGxFa6Mq2zHEPC64QsEEQqFBlSCfg+8gQGsp08IIYQQQgghw8TQ3fYl7sL7y9px3JwyqERRtCx/F23jz8YkjQhx5xZ89sEPsOom4denz0C0aRne+ngLxBNPw7mz8tJvkJ1j9WK8vYbHYQtOxSR16tjOr17GF9UB9PnLEBVhznk/x0RV+n4nHzZ8+DqWWfZmVyQR8qafjTOnGdL3Dw20XDwhByfa9oWQ4Y22fSFk+KJtXwZKpIJ92wqs3OVLjmJyHAe5jH3dqA0bvv8JDXETKiZVskfiCNgd8HFGjCg3JV+6J+ytGBF4Pnk3SczucPIyHDV/Ac5fkKn8AjzHQyxJv6AbCWRSHiJ5MY475th+l2NnjISafRmRWJx+H0IIIYQQQgg5dAzhKbtiTDIHUf3jStT60ofgR92Kr7GqTYlxx5yAWSM07FgIlhY7EroilBi6ZJgDxItE4MBDqtRCq81U1CyTTT85G16FMWNG97uU52tYKiu87Z7emBBCCCGEEEKGn6E5ZTdSjxVfbIFfLk8fAMKOekT0pVClc7dEPIpQSIzZxX6886MdhbOOx+TcHvk1e06YU6M0X4W2nz7CJ1u9LPHkkIgG4Q8BcpWcpaAJxGM8ThjD48MdBhx11hwUZ8xr43h10XeY+6ufoUqaPtQpjO2fL8LSXRGIWGLbf+yz4xzyZp6DeVN06WOHBprqQ8jBiabsEjK80ZRdQoavoTpld2gmpOEafPvBalhZuiiIBZxw+KNQ6ExQdc5uFZI5FQrijdjkime99pPPn4Xfnj4B7pp12NgWAc9ziNp2YnOTCKUTymAQCQkpMJKrx/sbHJ2LHGUkKsSc807NcA1pKiH9ujkHh08dmT7WP0JiLc4Zg3HFvd50WKNARsjBiRJSQoY3SkgJGb4oId1Lcfd2fPnht8lpuyJVISbPPQJTSzXpVDWMfz/7BgpnHoPJuakjgdof8OXmGCqOmo2RkiAC0KGyzJx8rINzzWK8tVqC2RecgvHpf5fm5W/hw+0azDh+EvKEQc5ECLU/LsWOSA5GVE5ERa4MsQigzi+AIcsI6dfWMlx6wVHpY6QvFMgIOThRQkrI8EYJKSHDFyWkeyNowU+ffYE1bjMmFPtgsXnR7pKgcNIROGpaMUSNP+D1tQqcfto0mNPTbIXtYT7epsWc80/uTDZ7ypSQCq/7pMaMYxcci1HJhDOMHV+8jqX1Bsw88xRM6fP6VEpICSGEEEIIIYeGQ2OVXWbF519ijU2OyjlzIST0E075OeaWSdG6dgne+2g5dvo1mDJzAoxdJtr6/QFAoYJ6AAvXxiIRIEtezqlzkKvpKxntIWrFxm+WYMkXX+KLL/dclixZgh9r6CwjIYQQQggh5NAzJEdI/XXf4YMlWyGf8nOcNL0Q8qgbu9atRmT0URijYzl03IvWtihy8vVwrPwv3tukwOz5J2O8CvjshedgH3US5h9Rgmw5aXKEdJUXOn0MTmcc5qmnYJL7c3xRL2PZvja58q2wiJG3rRH2uB6FncdS13xG5SMw+6jxyOnMU8PYvuS11Ajp+UemjxFCCCGEEELI8DPsR0iVIw7HcbMqUskoux+sW4Xv1jZAo0p/XZEaeSwZFRJOA/tlqKJtaGzwJx9qj/DQ55iyJqNC8rhmlwvxRAgh6QgcfsrZOG16LkKhMDhtGWafcBJ+9jNWTjwcZVoRRLpyzOk4xsrJp/wcpx3bNRlNicfiAD+AYVlCCCGEEEIIOcQN0Sm7YpgmHJVMRhF3Y+f2BvgTUuRmyPfE+SUoUkVgqamBOx6FV5SDggJZ+tEu4kHYatZg6eK3UW0Ps588H1NPPAoTizTJ5NUXiIOTyiDvSDQTUcTjCUAigWyPM3bDCEfY69lzN27ajM1btgy41Npj6fcihBBCCCGEkEPDkJyy69u8BIvXt0MkEjYdjSLg9iEskkOnTiWaiRhLAKMaVJ30c8zMA5qWvYOPtvCYdMocbFjZgrNPmwpjtyQygNqvF+OL7W7EeQ1+NkmJz9d1X9Toi5eeQ3PJ0Th1kgkSpRpqcTt+fO99bNIcgV+dVAlhnaOA2wZPTAWTQdE9k49ZseK9xdggn4V40w99bx2TRdnRF+Gkil7L9w5btDofIQcnWmWXkOGNVtklZPiiVXYHwF+zAt/V+qGU8/A07UCDR4XiimJohSww5kLDdgv8OVNxxhnTk6vrxuxr8MHiVXAotTBWnohTpxjS28LsFvfW4Mcfm6GfMA0Fls97rbL75rP/hmzGMTBt/wobXNlSShG0VT/D/COKu08JDtfgyze+gqXkeJw2owBqhQzizow1gmf/8w7yRk/FnMMrkJNhlDcW9sMdlcOgHKID1gcABTJCDk6UkBIyvFFCSsjwNVQT0iGZASnLD8NJx7Pk0F+PRo8BU08/Bz8/ci6OmFaMmKUZAfP0zmRUwOdMxOyJJsTcbowt0/VKRgUidTlmHz8XVXkZ/iGirXBqxmLaOC0kLGGUjDgKl196aa8ySsZBpdH2+qUFa3eiPqhCaVkx9KquyWgIDd+/izFHn4bTj0gno3E3nnn2ZXy0wY5o6kngpcpDKhklhBBCCCGEEMGQzoIa2mPg4nas/fhtvPfFcmz7cTl2BIwYP3N8ZzIqCFnW4PuNNrBsEcu+WoXGAZ20i8NbswGGkaOQnymT3aMgmpraEJGaUdDjItewZS1WbPNgZpkqfYQRaVGpjaDxp2+wsjGYPkgIIYQQQgghh54hnZCeuOACLDjjWBxWkYN46xYs3eGBSGeGQRxBxxJAYesmLF26HlZRPqadMA+8bR2++GwF6n39u5Iz7q7G8lV1qKoy97Eyb3Zx7y5UswxYkleEwuQqTCkxVzW++3YT3IYJUKaPdZh77HQU8nZs+nYZdrj35opTQgghhBBCCDn4DfF5omJo8kahqrIcRUYl1HodxM6tWLr4LSz+qQVRlpZ++uly1IUNGHfk0ZicK8exk/OAtvVY8uFXWG/xZ1xgiOOExZJYMumpxvdLfkCNV4TK5AWqA9e8YSMawnIUl49Aahw0BMeu1Vjy8bfYGcrFxOmjYG1rQ0tzM5oaG1C3qxbVNh75BVrAW4Pvv1qFJhooJYQQQgghhByChuSiRslptLXL8MqSbZBqC1BeOR6Tx4+AXpJ6NObYii8+/h67fAnMmfdrTMjtuc1LGG2bvsNXK5sgq5yLM2eXdx6v+epNLKkB8sbPxfGHjYRaFEc0ylJf4cLPaAuWv/shNioOw29+VpV+zW4fvfACAuNOwTmzC5OjqXF3LV55ewVKjj4Nx5R3TMuNomX999jkkkOv00CtViM/NxcqtTzDCGwAdd9+gK/bCnDhOUekjx0aaDEEQg5OtKgRIcMbLWpEyPA1VBc1GqIJqSCK1dUOjC03I9N6P0HLWqysV+HIw8ekj/QWdDgQ1RlY0pk+wATadsGvKkaOKsME3ZgNm5etQZN0FE6c1ZHE7rZp1SpEDGWYWG7sXDgp7PMhoVIhw86n/RMOwA8FlIfOji9JFMgIOThRQkrI8EYJKSHDFyWkhHRBgYyQgxMlpIQMb5SQEjJ8DdWEdIhfQ0oIIYQQQgghZLiihJQQQgghhBBCyKCghJSQYYxX6PDwrFIsPrwIf+m6ee8eSJQaXFdhxK/NMhRmaSVKjXrcN01471K8OcWUPjpYOLzHvscz5Qro00fKu35vqRb3s9/DBV22BCZkaOJwdHkBXpiajxt67G0t0Rjw2iQjjttfaw5wcvxhSqp9+FteetXAvTS+tADvHFaEhzoX+NtLnASXTGTfaVZB+kB/iPHrCaV497ACXKWnbg0ZSjg8OM6Mq8wSpGoYh9emF+DOAmn6/oExMt+Ef07Ixa3F/Z+eqZOLkZe+ncTq4q/H5uOuci2OUaZ2p+gfEc6uKsHbM4uhSR85EH43qYS1E0X4xwglRg7k65EhiVpuQoaxAoMcxRzHQiAHGd/fFpvDRJMKM41q/GJ0Hh6fVogz9WKo048KJDI5/lGhRaUogh/q23D1Olv6kWx4zCnQY36+Buf0sywo1OHXuTIY0u/QnRg/K8vDg6OUnQE0kQjh66YAnOw2r9Dg7+P0mJOO+HKlGEb247/tS90nZCiLciLopQk0OKPpIylmjRRWpxffhtMH9lUiCuEj4gE/3myLpA/uBZEcxxslrFbGsKHNnz64lxIJRBLsP+FQ+kB/xOGLJcDFI9jhob29ydAySitG2B9BRw2Ti2PYZAt33j8QnKx7X6KWQR7Zcz3SyGW4aXwhnp5cgL+WKZCTPs5LFZiolbIiAd+x+X+/pOqwhL3Ikz5yIHzc6MaqkAiVBaZkvJ97iC0OOtxQQkrIMHa0QQopoqhlidjEosypXW8JrK5vwUWrW/DQLjd+8CWwcGwhnp2Sh5tLNTi31IxHJuXC7XDhwY0tuMcSRPMel0bjMCZHiwvLjPhNv4oB881iWN0hONLv0F0MDSyaF5kMWGjiU6tex+NwCf13TooLynX4zuLFqnTEN6kkLLGNYCBdXEIGS8dagyzH6oLHbJ0UP7btz45sAmEh+YvF4d1jHc7OlKPBLDlgt7vw9r68UZrwDgNbbzGR+l3FEwju+8cTsn8lYrB37jfP/kDZ33bwAJ83ibK6EGFx0p6hQvyx0oy/jc3FPyYW4NnpJXiBxfZZSg5ufwitYhkmpk/kmgxyjBQlsMPqxtLQwCpWsj4mDuwPuavdhTs3tOJZawRijQon6DPsnkEOGrTKLhkUtDrfvhmZa8SFPaam2dodeMLW/TTm07NKofc4cHMdhyvG6fHEynrsSj82ECcWm3B2gRJFYmGslWGB5rfLG9CafLR/NBIR/JE4C5F94fHS4UUQedx4qtqJb/vKIFniefGEPMyTBPDkRjt+N9mEZ1e3wz0iF1ebOJy7wpJ+oghnjC3CQpkXZ67LnN6S/qNVdg80DnPKC3CjOYZXVrfijXT2KVHqcN8EHSS+ELINkHIiEZR8DFesTcdekRLXjNOiMBZLjiD2xiFHo8BILoL17t0jOF1xHAcF6+dta7DheXfm7sJlk0pwmjyM11nn8JV9/icXpt8W4hyxB2euZfVVJMEMHY9wmP0MrH+bYN9HJeEhCQWwurOTz2He2GIsVPrx/9ba8Q0Nku4TWmV3f+Lw3mFm/GdVG/6bDn7vsvv/XmXF4j2OOnKYVWrGBRrAFY0j2rX6sXoQcztxb7OQdvamNpvxr1ESLNvSjEdd3evtRRNKcLYqgfZgBI3+BApz5Ljtx3pYuj2Nx5lVhbhYFcTT66z4aEBnwTicXFGEKw0RnPFj716CjCWP52lF8LIfSBhJ7SAR89CztmipxY+d6eMSpRZ3VKqRy+53/ym6U7L+RZj1L7rPKUlhrQcWb7Lhvf13Ju+gNlRX2aWElAwKCmT7prAoD+d42zoDjVxvxLW8A/9n312d800m3Kv348/VfiQn1HISFhhzsWpXG+5rzT5aqJSIUa6UolIrx1iNDOM1Ejg9PvzY4sY77ZHUFByOx63j8zFNzUMUjWCDzYvbd+3d5JwctQpn5GtwbI4UmmgI569qRWc/M4srqnJZJzuOQJfW63CjDNvbQ2hP31dLgHV1dqzQ5eIfpRJsq7fhnZ6jNyyob3EF9/h5ZDdKSA+M0UY1ykRCJsWh0KTH2fo4lta4sS3gxzecHveN1UDjsOHCHfs4JbYbHgvGF+E8zoVrN7pQmz46EEKH8e3xamzzRvs9A8GgksNa34Q72rp0pXkeeSJh7gOP0yvzMU/sxeVb3JAJUw+1YiRYQuqJJ1Ceb8bCnBgWb7Ti8xgHf7KXzuHY0QX4FUtIH9voxMZoDM177OyTbCgh3RscjhtdiD+Ze4/SJWIBPN81IT28NDkDoOt5E+FUr5A4vbuhBc/3o4pXlLA64m3F/Y4eMS2tr4S0G16De2cYcAdLSLvGwXHs/f9eJIOkjyt9ttQ14WZLNJkQ8zINbqlUQcmSQoFaIccIaRybXOnTZ8KJJHEM3263YbHMiMeqVLDUNOKvbR3fTcwS5UKcmXDiqk1udJxO5mVa3D9FD2VrK67Y1b2FOWJkPi5iCfPz251Ylk42TzdJsdQW7pwqfOSoIlynD+KRNXZ8SSeqkighJaQLCmT7Zk8JqUShwe3jDPh+Yz0+6dKG3zy1FLOlUayqs+H/tYThTR/vKvkcOQuPrGnwBIJY2+7HpyIN/mIGqu1u/GuXDzXJj+FQqtdgQbEGs1liunRbAx7JEhz7cmZVCRbqEqi1uvCfeg/WpANLkU4Bgy/AOpep+139eVIhRnPpaXqMhCXRBSxyekIRONJBX8zFsKzWg5xRZhwj/Dypw71c+UMdGtK3yZ5RQnogcDhxTBGuNvVeeGxrgw2WHCOOkYbw6sY2vL5ff6X7mJBK5LiyygyNxYIHbLE9zH5I45W4ZYoJy9fW48suL5DrjHhzXM8lUBJotLTg6rrd05TPGFuCS9QBPLk9hnnjtCjOULG/21aP+9oH3haRFEpI945OJoE83nsW0HNTc/o1QsqzpE3M4m7vEzsimCRx2DpH+DjMHVWIcpsHY0aqkMP+1HvmWhzPo1jGYmIgCqGbIE4E8eomR+/ZA1kS0punlWJ62I27tnvQ1Ksq8Zg3Ng8tWxvwYcd3kipxxUglDOnnGtQKjJXG8EN7KiE1qJXsfhAvsN/DB0oDHhmnRkuWhPRSlpB2rErBy3V4YLIOqrZW9vfW/TcztyQXlxfKIfN78OhWB76LiFiyXwRruxMP7/BgE3vr48cU42p9CM+stuLDfjVQw99QTUjpGlJChhlepsQfK/WYLI52S0YF/9zhxOaYGNNH5uKeUWqMy7Dw7pO1LnzV7MAjm5pw8bo2/KPBixOMEshYyNtsC6STUUEC9U437t/YjNtqvFiZZTpfV1NL8/A0S5RP7rJiXyieQCIWwie70skoJ8ZxI/Nw71gzbmDfcVSGDucD6y24Yl0zrlrfjKuTAZMD+z/kLAld12jFH9nxy9dZsdGgxxxZHBvq2/C3za3J8khrmCWyEXy7sw33b7clF0EiZHAl8FNDK65Y3YjL1tiwTLheKx7EG+uaUKs34BjWf6ixRjFrYgnePCx7eXuyAZOznHmRqJQ4J0+FE40KHNVZZMhjbQDHizG+23ElTs7T4GRt9i4CL5XjskoTfqZM4NH+JqNMoVmNSRLg+x4viIQC+NdOG55qCiSvZ42H/Hix3oUv3bFunW2hk50IRVDDnv95Qzser7Yly+feOOKRABbX2LGCLiQlg8DF/i5bIzGWOHYt/R+Wi2VMRsU4dXQ+HqnqugaECIUyEWqj7PmxBIKxOPzRWPfCjgu1IMISZJ8wm4jd7zi3e1mJDucXpBcQzJVCx9qM04WFBIt0uGyEGlNFHGawZHJNixvrwj1/nhi8ShVmqTh805kgM2E/nmLx9J4dQrHjG78wMhzuvP+1X4jzCfgGWDVFrH0Ks88MsgB/uEZYL4LDseX5eHy8GSsarPh7XQABpQaXlCpQZjKyZjOA95t82C5V4JIyLWLhMLZ4owhTtjPk0T8RIcOIXqPF7eNycKQ8gWqLPX10N7/XjXu2u7A5IsKIXCPumpyXXi6dNfIjcvF31sFcaGRNvkiMiWYdrio34lpWZsmAIAusuWZ98n73osfP1MDsEUZcNyoHt1SY8dcSOeTJTxSIMStXg9NMcigScfBqDa6cUIC7ShQoZZ/dc47GdRPycXW+DCK/D1+7YllHNpPEclwyWs8CaBDxeBQtcRlOHZOHu0cokGc04LJ81vP1ebHIEsBKV5CVELzsHblEFLWOAL6x+w7oKoCE9JcjGEFTKAaHXIbRUuGvnoOI/U1/1ejC520uPG+JIMJx+MDixvsWDz5jncX3k7eF4sWOKHs+64h2Djj0IFOwhLTMhKsrc3F9ZzHjRNax5JVqXN7j+FXlBpyoydxFKNDrWDtjxmlqDg2tdvScYSiMatw/oxj/nmjEcV1nMPJyzM+XQ5kI9+p4x1hHcnGbHxbWA1UI7QL72d9scuFNYcqDTI6j0slxMWuLXIEwGkNBvNPkwSdWHyt+1Amd43gM26xefLU/ZzUTMqhiqPWzVJIlXZ1bsoikKJVz2Orz4O6NLbhuUytu3NzWrfytOYwge+2aenafPf6nzU4sS+fGJxdqcVaxDuckixKF7Jhw/yx2/JQ8JSr0ehY3fXjPnn4Br8Q14/NwHKt7Qjw/uUCFfJbe9hU7xUJ17dIWsRyX1c/ul9n0R8Tnwo2rm3D1rhCuH1eAB0bIEU2IUKTmEWEfsL3Fhn/WOVk7IcWVI5V4s9qOxb44ynM0OD5PD66lDTdtceDzrskzGZIoISVkmJCqDLi7So9pLGhYrG6sEavxR5Yw9iyXmkVYVtOO5SwyCFNdU7N+OWhkEhQrJShSdC/FGiW4cASNUREKezzWsyRfr5SyTqOIha00jseMApYclmmxrMGKP26041MfhwlFZvxjYscC88LTZJg/Op8l0zGsYEH0ug12PNcSwaxxxbhU2zst5WUKXDHWhFNVcSzb1c6CXwSfbG7FS44EygvMOF4axUaHHx/Vu7At/RqBScqzKMc67jR9hww5HCYa5MgR/txZp/PUCgO2OD14rMaNLRIewsSClxs92M4Su2NypPA53HiRJawvNvnRzPqOiXgi4zR8QTy96uaKnRZcs7bv8sfNbtSxdiHKOpCZCF9PLEqgrtWGv2eYthmLxZHgRdCxpHJLlyn3EtYuuFzC9ehZurKcFHN0kmTHRCRXIbm7MftZr6rKxbWjjThJCpSwz7V4w8kkWJfs9RIynCWw2WLHi/YYrswVQ5jUJFHIUMbqwt4u0XfRigb8YmUjLvipEXexGCvU8oXs9nkrG3DeOi9KStVY0eTGxs7kkYNRKUNTcvZtDCsbbHi4umO1hkw4SDnWSnQ52yy0GUL75B9gQtpBotIg4HbhifogHOx9hIUVUxKo9gFzy3QYgxAWpdeJ2Gax4h723CvHGtOJNBnq6BpSMijo2pN9059FjfYdj2NG5eFqM4cFy5uS13BJVHo8NFELpdWKhTv7+W/ISbBwQgHO4Nw4c333CbJysQTHlOfhd7oQnlptxWcJDjEh2HRKrZ7p2N7Q7dqXf80qRR4Xx06LDXeyoOPkxLirUovlLDH9MHkhDA8ZC5zCKMyEEQX4e14Mr6xtw5txNe6aakRJuxVXsO9PixkNHF1DeuDk55nxcJkc3mACZlkEb2wL4bT8KK7d6oXLmIOnKxT49fLG5HN1Wh3+WqmDvt2GhbXATVNNmOZrxyXsuZnSPbkhB09VyrFlu2WP11fySh0enKhDsL4RNwqZ7h7wMhUuKuBRa/XiG18cMV6Nu6cbUczq2e+qA71GULM5u6oYF6nC2BSWY5woAE4uw/ZGK+5sjKBqRB5uKBBDEvDgNtaONLKf58EKFa5dXs865rTK7v5E15DuLQ63jclBhHWru9awuUa++6JGswqxpsXfbbs0hUSMuMeFp9oyr3YtePKwUug8HqySaHAk78WZa4SkkMPMkfm4OV+M+qZW/LEhdc1mfxY1UrJ+w2NjNWAhHi6XE/9vuwtrMi5Tq8JtU3Pw0E/1WU94dSOS49rJuTgy4sRZG93CASwYV4zzeBf+vMGFRu0AriGVKXFlRQ5OUMVxNuuHCL/CVEyP4l82HheYpYh53HhmpxPfpaddJB9nbcWmXRa8ITbhhrwEPtpmxSv7YUuq4YCuISWEHEREmFliwuVmMcIeP47MUeI4Vo5U8xD2no6LxMn73UqW6X3ZaNRq/GFc5yQkyAxG3Du2f3ulPtTgww8NrKMqJKPsvj5HjzwWqlo698NIJaOCancYDpEMkww85GopivgEmn3CdCZChpbTc+VQhANY7k1lVMJ0tU+aWceV3RaJRcnruDu43C7cs7UND+xi6R7HQcaqn3AyZzC6XBXClPx8PS4bqWGJZPpgD38Zb8avNMI4SXY/14lgd/iwPfljRvF1gEMZa1uqRHGsrLfjv+4EWpwBbGc/pKPdhfeccZylTr6UkCEggbt22HBvtR33dZb23nUyEcGaRieeqd9d/rnThkf7SEYF/2aPy3RaHKMCrM6O0zwJrGx04ccwqyt5uvSx/uBxfJ4SxkgUTpZAB9U6XF+pw7T01Ca9SoYpsp71lUOpQY2T1H3XY2EdCB17n2C4YxoSB7HwEtY++VIH+o2l6WjzhbDOYk8mo51YTL/czGOXxYqbt6SSUZmYx6lFRlxiloCLBrGsPbWmxLUbKBk9GFBCSsiww8EgEZaQz04u4ZE9dImSe59dWySDWliqXavFnyrMqVKuRgE7lmcy7j6WLmewzmRfn9mJBasjS8x4cJwRc6W7T8dqWMRSq9S4b4QSo/bQMglTmO5pCqUXJBLjxFwFam1erM0wMhJ0+bGFBeuxOSpU6GQwss7AVhfN1yVDz/EqDo02D7Z2/h0nMGdsEd46rATPlykgZ3/rXRcxeqLKjDuns9vTjZjKKp/KYMTz7PiNxt4dRuEaLhH7X2WhCX8bK2yMn738ldXBXPZ8YQ/S/jjFJAUfDWBRtQsbMtRBoU2aqFHgXNZOzGc/Y0a8HLnxML5pCXV2PB9nnfvHdjqxUnjPRBQNoTjMOiUmJhuaKD5u8uL4ItYmCXcJGeZWNjhTC54l4mjydZ59ZVXBj0WWIAJiBXquU52NRK3BSXoRWh2B5P6jD9YHEdPocO0YbfKk0hHFrC2YWoRHRsg735OXa3DVaCMuK9dheh/BXqIQg+WKcIbS6TUnSp4wE6bsDnRMPRQK4vWaNtzOvp9BqcDZpSZcnCNm7Zmw1gWPiUVm/HNmCd6eVYo3ZhTjihI1ShMhfFrTjk+Sv6I4WsOUjB4MKCElZLjhpPjV+BK8NasEr7OGumd547BSvD4tByf23i4t6cKx+bi+UAYJ6wQm4iG8s6EJV65JFWF/sLpEAo3NrZ3HUsddiLBgs6c0b5xZjzsmFeDPRXLwHjce3NCSfgSwWe3400YbKgpMuHtCDs7pY8T1+WmFeHZKukzNw3wth4riPDydPvbvacW4vGM0Jh7EN84oJBoVjtRLkPAH8AMNj5IhRqLUQMGSuk9bw91Wlf2iyYVFdQ680x5lx6P4z652Vhx4lx1/MXmblTofdrEX2Z1uvFTnxKpMq8xyCbgCEbgSIih4EcboFahS8MnbQslVK2BI31aIErCy5/qFpav74TBZAvVtLnzcc6WiTgk83hpBWCLHeWOMOLHXNV08jhlphMPhxntdhlBCrK4uTY9syNRazGcd0ZBSjQsLpRDeIuTxQKVRYq68f9+TkIOZWi1HhTBFiSV4Ewu6n1IW6t+3LNs7U5k+0CcxTi1OJW5LWb0UalhNix0v22MQS3iwPBUzWfyNBnz4T0Ow8xKAWNCDFywhRFlb9duS3csW9iRXSpDD3tUa6DjhnEpIo6zvMLBTwRxG61U4p0iPa8bk4rlJZvymQA4l+16Lqq14td6F91u8+LrFjf82OPBijQ23rm/CRata8UR7/1f+JkMDJaSEHKROGleK92ePSJY3q7qcF03EwPIvwOfGgpUNPUojnmINtbDYQPeThhzGFZjx/KxSjHLbcfnyBtxjFTrACQTDUTQEU6UpGk/u/RmLxzuPJY/38wzkBDWHFTsaMY+9/8ItTnzDOrCpfe2FRRCAYMCPs5bX4wZLHBUGGcypl/Vy8WoLfrvWgt9t98Ih5hFut+Nidl849ve2GNQsaD/r6fhOCSyvacEjdhFOEvvx9FZXcsofIUNJPBzETautWNwjqXuj0Y23W32oi7MKEovgwzYfPmyPgNdpcUmZDuNiQXxoS+0p7A8E8HGrB0syXLTpt7fjD+ta8KdNrbielRCrFzUt1uTt6ze14TNfAq9tST12/aYWXL2uGXc0Z7qgrCsOU0cUoKGhBdfW794rNJNvapvxixUtWBxR4A9TS3vU7RiW7rTgoh3+DAu1cJhemo+XJ2iQaGnFZVt9UBXl419jVOw9Yjjzpza8Rdu8kMHG8SiV92uOUHYsDhYoxKnFvHrh8O8qNSLNrZi/vAUfxtW4oGvyGQ/h8fUWvNSPC7bvmVGIheowXlzfikWdJ2dj+HRHE85b78CyuBzjgi7cwm6v7jbjIYHNTa345Ton7KZczMl0UpuT4oICBeRBHz6wpV/Mfjd6YQov6z90e7s9SqDaFUa93483ap14v96Ou9Y24ndb2rHI6seiJhdeC/A4qlCNoqAXb7O2cb0/lrrOVbiOlbUz52ebkUGGHEpICTlILdvZgls2NifL7bU+8PvU7rJA02zFrdsd+JslhN4bxuwfb9Q68FFymT0Rjigx4a8VJlxgEIGLd0+Q620O3FMfgDV9PzMxTi3VokIUwbfN6SgsUWKBsGWMz9Pj7GgCtjALhQkOLH8lZMiJRSPY0kdvLUfCwnUs/YRoCC9ut+Fz1hmbO0Kf7MgK12gJ+xj2Dwd9IoLt7n0bQzDoDbgsT4KXhC1p0sf6FA/j5Z1OrGVP/l16xdC+CSfKTLi6QIqosOBLQwhepwdfuaOwsVx5D5ekEvI/w8vU+NPkIvx3VmmPUsL+insQKbBwRs/nleI99txnJhlxdIaKkZ9jRNzjxlONIQQTYbxW78VpIzQoTT+elNjTCSSGl6FKnMCOZicWZ5wpJKyAr8cPjW5szdKcxAIePNcYxEUlu6fzdpCplZgsB9o9AazvaM84YeZFqn3q2sSJRDxMko4igiRTfWbt1EpHGM1xEc4qVKG4x3OEJk84ce7t+aMn4vCy5u3jgW58SgYNJaSEHISEeOUOhLHBkyqb/WHY+jm9ri8WR89E7kCJY1OIQ5VRBS3rXC+td+LLAX6wsNH/NAXHckwJThlbiPNz5Jg30oDDxRF8WS+s7LebTqfHpfkSuCUKXDjGgNmS9AOEHAw4McxCby3apZJEg3h2px1PVTtZJE9dM96zw5cNL1ch5PHhi36tMCLGTIMUuzdoStFrdbhptBpFrHO8fgB9vljQi2caApherMPcPWSkR5aacVOpAtqwD/+pdmNL8nMieGtrM66v9aGG+ppkiIix+vhFgwNP7LT1KHaWLvUQD2NJTe/nPVXTjpcbOxb12q2IJaN/KVfhlZ0ubEw/5ne5oNJp8Rsz37+1GzrEQrhjhw1PWjLPaMjR6/G7AiledfZduWpbHcjPNeDXPbZkm2pWooiLYWN7cPfCgax9EtZH6v6OIkwpK8LzM4rTpQDz+losibVtsVAIazMm0Zm/q3D0f9OfIfsDJaSEHIwiEZaApm8zIbcbT3ZsYj0IlDIe4nSnuL/cDhce2d6GC1e34sG2SK+N8vck4nPj9jWNuGqzHW/Zwjh/TB5+a+JZhzeM+vjupk2t1uL60RqMSIRwX2MIUZUG14w14CjhWhxCDgacBHns71Wk1HZb1Ojl8Tm4ZGwh3pyixxjWlysrKsDrs0oxrY9+HcQyXDRKj08avNiVPtQnkQRHl+XhnxP0mJmuVjl6A/5WqUOVOIb1DQOfT9HY5sSnu5z4fg+9xQV5cuhYB/qd6nZ82qWBCPbjenVC/qeiIXxg8eBzm79X6S2G+vaez/Ph4zYvXm/yYUNnbOcxs9CMO0apUcLi1/vdkrE4amMcclTSfi9k1GGtPYDqDDmcnMXKG1isLI4HsXt1hywSEXxt9eKHQPc3OitHjJjfh0+7JLQ6tTS5tUy82wyOOKqbbXi8uqO04/se79ULe7gfY8DkIEUJKSEHoYa2dry+h2XMhRXo5hoUPYocxRnnxfQmTAEUnpltKjAvVeHmKUX4z7QiPDtWjbZgvO9OokiEiRoZpuvkmK1n30UjhpzjcFyuGmfmazC/QIvzi7S4uESPS0v1uHKkAX8oM+BwRV/fN4Emtw/vtfohbO/tCEQRVqhw2fhCCEsulBhZx3msHpP4CJbW2LGxyYpHm8MAS0qvHmfGL3UDOrdMyOBIxLDJ6sZ/G1143+LuVT6whZJ7fbY6PPio2Q1rlqYhT6vBzeNzMU8Vx4ud11j3TdiEfwRrMxSJODouCbM7nXiyzovvGu14oKVfk3V7iPRr0ZG/bGvHczuseGmP31WYEti/do2QgwOPY8pycX2pAuZYCO+yetDTAxuace2uQHq1+R7Syd9AakXQ68ZD2+z4d03vK7kzebDGgzXdqr8YY/k4NrV6k7MZhD1E/1KZhwdGq2BitX2Hc/d2a0Ly4fX78YnVlyqsDUueU2d9gv23SyY5mHAJJn17v2tuaUvfIqQ72lD7AOIkWDihAKcnXDhroyt9sAOHkyqKcJUhjBdXteHtAZ5ulKj0eGiiFuLmVlxR198xTRHK1GJwkShqQgMdxRXh3HFFcG1twOddXlqYk4M7RqlQwKJaIBTCKqsH9zXuPhMtrFj69mQDQoEA3tppx+uenp/LYWKBCdeUyHDPT43YOdCvdQgbyKbaVM/3BocjRxXiz6YIXmJ19K0+6qhEpcMDE3QoZ71Ov9+NBzc58WOXLK/UnIPrShQoloogicew1ebGqw2e5DWcPZXkmfE4+7cVRjFCsQRiwkJjyal2CVis7bhrpw+N6edmU1WSj7uLZMlrwRIsgd3R2IqbGvte7KiXdPs1T+LDvNV7GH1lz33/8MJk5zsUDuGzWhuec9Dqmvuqv3Wc6nd/cFg8KxevrmnFa8ltSDi8N8uMl1ndfvMADPctOnwE1KzOJlh9r251JPcptqQfy0iqxQNT9bj9x/rkSa3dxFgwrgC/1InYN04gHo1g3kphR+RMOFQVmHHrCDmWbGrAf7qcQJrOYn+1N4quPRFeJsVsJY9QMISVgX4GX5EC77Pfo3ASWshaonHhutE4wnGhJJJFaLfckRhC7HYwzmFEjgp/X1Xf7bPJwGL4nhTkC/8m+wclpGRQUCA7gDgpzi3XYVLcn1zsqKcijQIVkjhqnaHkVhEDIdPocNdoFXi7HdfVD3SS7d4QYYJJhaDd02OKEYcJ+TrMjPnxvjUMW/poV9eNVOPjBi8299E7NSglcPj3ZoTn0EUJ6YHGYXapGefrYvhsmx0fdNlusBeWkJ1cooEh4MO39hAae513kWD+2FycKYviwS1tWCXsYZgVhwtKdDCIRZCzRFTohIZjcexyerHEGe3RWc1MIkyHF7aDCIZR7fThs36+rjsecwo0GM+H8a8uJ5ky43BOnhLt7PPWuiNwHLDezKGFEtL9a36+ElusfmxMxiIOl5aqsNrixaoDkJD+LE+dPPlb7Qmiuh+hjZercf0YNR7e0LL7ms+0QpMBFxs4tPvD+Mnmw8o+2w/ApFLC4fMfoBNCPMaxP8vWcBxO4YRZ+mhWLIG9brIJ761tyDg9+VBGCSkhXVAgI+TgRAkpIcMbJaSEDF9DNSGla0gJIYQQQgghhAwKSkgJIYQQQgghhAwKSkgJIYQQQgghhAwKSkgJIYQQQgghhAwKSkgJIYQQQgghhAwKSkgJIYQQQgghhAwKSkgJIYQQQgghhAwKSkgJIYQQQgghhAwKSkgJIYQQQgghhAwKSkgJIYQQQgghhAwKSkgJIYQQQgghhAwKSkgJIYQQQgghhAwKLsGkb+93zS1t6VuEEEIIIYQQQoaDgvzc9K19RyOkhBBCCCGEEEIGBSWkhBBCCCGEEEIGBSWkhBBCCCGEEEIGBSWkhBBCCCGEEEIGBSWkhBBCCCGEEEIGBSWkhBBCCCGEEEIGBSWkhBBCCCGEEEIGBSWkhBBCCCGEEEIGBSWkhBBCCCGEEEIGBSWkhBBCCCGEEEIGBSWkhBBCCCGEEEIGBZdg0rcJIYQQQgghhJD/GRohJYQQQgghhBAyKCghJYQQQgghhBAyKCghJYQQQgghhBAyKCghJYQQQgghhBAyKCghJYQQQgghhBAyKCghJYQQQgghhBAyKCghJYQQQgghhBAyKCghJYQQQgghhBAyKCghJYQQQgghhBAyKCghJYQQQgghhBBCCCGEEEIIIYQcKoD/DyHZ5jtQxk3PAAAAAElFTkSuQmCC;" vertex="1" parent="1">
          <mxGeometry y="70" width="932" height="412" as="geometry" />
        </mxCell>
        <mxCell id="84pqxxeoyV_ZSP_-_f0e-3" value="智能合约层" style="text;strokeColor=none;fillColor=none;html=1;fontSize=24;fontStyle=1;verticalAlign=middle;align=center;" vertex="1" parent="1">
          <mxGeometry x="40" y="690" width="100" height="40" as="geometry" />
        </mxCell>
        <mxCell id="84pqxxeoyV_ZSP_-_f0e-6" value="脚本代码" style="rounded=1;whiteSpace=wrap;html=1;fillColor=#f8cecc;strokeColor=#b85450;fontSize=23;fontStyle=1" vertex="1" parent="1">
          <mxGeometry x="520" y="680" width="210" height="60" as="geometry" />
        </mxCell>
        <mxCell id="84pqxxeoyV_ZSP_-_f0e-7" value="EVM" style="rounded=1;whiteSpace=wrap;html=1;fillColor=#f8cecc;strokeColor=#b85450;fontSize=23;fontStyle=1" vertex="1" parent="1">
          <mxGeometry x="280" y="680" width="210" height="60" as="geometry" />
        </mxCell>
        <mxCell id="84pqxxeoyV_ZSP_-_f0e-8" value="分配机制" style="rounded=1;whiteSpace=wrap;html=1;fillColor=#f8cecc;strokeColor=#b85450;fontSize=23;fontStyle=1" vertex="1" parent="1">
          <mxGeometry x="520" y="770" width="210" height="60" as="geometry" />
        </mxCell>
        <mxCell id="84pqxxeoyV_ZSP_-_f0e-9" value="发行机制" style="rounded=1;whiteSpace=wrap;html=1;fillColor=#f8cecc;strokeColor=#b85450;fontSize=23;fontStyle=1" vertex="1" parent="1">
          <mxGeometry x="280" y="770" width="210" height="60" as="geometry" />
        </mxCell>
        <mxCell id="84pqxxeoyV_ZSP_-_f0e-10" value="DPOS" style="rounded=1;whiteSpace=wrap;html=1;fillColor=#f8cecc;strokeColor=#b85450;fontSize=23;fontStyle=1" vertex="1" parent="1">
          <mxGeometry x="640" y="860" width="210" height="60" as="geometry" />
        </mxCell>
        <mxCell id="84pqxxeoyV_ZSP_-_f0e-11" value="POS" style="rounded=1;whiteSpace=wrap;html=1;fillColor=#f8cecc;strokeColor=#b85450;fontSize=23;fontStyle=1" vertex="1" parent="1">
          <mxGeometry x="400" y="860" width="210" height="60" as="geometry" />
        </mxCell>
        <mxCell id="84pqxxeoyV_ZSP_-_f0e-12" value="POW" style="rounded=1;whiteSpace=wrap;html=1;fillColor=#f8cecc;strokeColor=#b85450;fontSize=23;fontStyle=1" vertex="1" parent="1">
          <mxGeometry x="160" y="860" width="210" height="60" as="geometry" />
        </mxCell>
        <mxCell id="84pqxxeoyV_ZSP_-_f0e-13" value="验证机制" style="rounded=1;whiteSpace=wrap;html=1;fillColor=#f8cecc;strokeColor=#b85450;fontSize=23;fontStyle=1" vertex="1" parent="1">
          <mxGeometry x="640" y="950" width="210" height="60" as="geometry" />
        </mxCell>
        <mxCell id="84pqxxeoyV_ZSP_-_f0e-14" value="传播机制" style="rounded=1;whiteSpace=wrap;html=1;fillColor=#f8cecc;strokeColor=#b85450;fontSize=23;fontStyle=1" vertex="1" parent="1">
          <mxGeometry x="400" y="950" width="210" height="60" as="geometry" />
        </mxCell>
        <mxCell id="84pqxxeoyV_ZSP_-_f0e-15" value="P2P网络" style="rounded=1;whiteSpace=wrap;html=1;fillColor=#f8cecc;strokeColor=#b85450;fontSize=23;fontStyle=1" vertex="1" parent="1">
          <mxGeometry x="160" y="950" width="210" height="60" as="geometry" />
        </mxCell>
        <mxCell id="84pqxxeoyV_ZSP_-_f0e-16" value="数字签名" style="rounded=1;whiteSpace=wrap;html=1;fillColor=#f8cecc;strokeColor=#b85450;fontSize=23;fontStyle=1" vertex="1" parent="1">
          <mxGeometry x="640" y="1040" width="210" height="60" as="geometry" />
        </mxCell>
        <mxCell id="84pqxxeoyV_ZSP_-_f0e-17" value="链式结构" style="rounded=1;whiteSpace=wrap;html=1;fillColor=#f8cecc;strokeColor=#b85450;fontSize=23;fontStyle=1" vertex="1" parent="1">
          <mxGeometry x="400" y="1040" width="210" height="60" as="geometry" />
        </mxCell>
        <mxCell id="84pqxxeoyV_ZSP_-_f0e-18" value="区块数据" style="rounded=1;whiteSpace=wrap;html=1;fillColor=#f8cecc;strokeColor=#b85450;fontSize=23;fontStyle=1" vertex="1" parent="1">
          <mxGeometry x="160" y="1040" width="210" height="60" as="geometry" />
        </mxCell>
        <mxCell id="84pqxxeoyV_ZSP_-_f0e-19" value="非对称加密" style="rounded=1;whiteSpace=wrap;html=1;fillColor=#f8cecc;strokeColor=#b85450;fontSize=23;fontStyle=1" vertex="1" parent="1">
          <mxGeometry x="640" y="1109" width="210" height="60" as="geometry" />
        </mxCell>
        <mxCell id="84pqxxeoyV_ZSP_-_f0e-20" value="默克尔树" style="rounded=1;whiteSpace=wrap;html=1;fillColor=#f8cecc;strokeColor=#b85450;fontSize=23;fontStyle=1" vertex="1" parent="1">
          <mxGeometry x="400" y="1109" width="210" height="60" as="geometry" />
        </mxCell>
        <mxCell id="84pqxxeoyV_ZSP_-_f0e-21" value="哈希函数" style="rounded=1;whiteSpace=wrap;html=1;fillColor=#f8cecc;strokeColor=#b85450;fontSize=23;fontStyle=1" vertex="1" parent="1">
          <mxGeometry x="160" y="1109" width="210" height="60" as="geometry" />
        </mxCell>
        <mxCell id="84pqxxeoyV_ZSP_-_f0e-26" value="激励层" style="text;strokeColor=none;fillColor=none;html=1;fontSize=24;fontStyle=1;verticalAlign=middle;align=center;" vertex="1" parent="1">
          <mxGeometry x="30" y="780" width="100" height="40" as="geometry" />
        </mxCell>
        <mxCell id="84pqxxeoyV_ZSP_-_f0e-27" value="共识层" style="text;strokeColor=none;fillColor=none;html=1;fontSize=24;fontStyle=1;verticalAlign=middle;align=center;" vertex="1" parent="1">
          <mxGeometry x="30" y="870" width="100" height="40" as="geometry" />
        </mxCell>
        <mxCell id="84pqxxeoyV_ZSP_-_f0e-28" value="网络层" style="text;strokeColor=none;fillColor=none;html=1;fontSize=24;fontStyle=1;verticalAlign=middle;align=center;" vertex="1" parent="1">
          <mxGeometry x="30" y="960" width="100" height="40" as="geometry" />
        </mxCell>
        <mxCell id="84pqxxeoyV_ZSP_-_f0e-29" value="数据层" style="text;strokeColor=none;fillColor=none;html=1;fontSize=24;fontStyle=1;verticalAlign=middle;align=center;" vertex="1" parent="1">
          <mxGeometry x="30" y="1085" width="100" height="40" as="geometry" />
        </mxCell>
      </root>
    </mxGraphModel>
  </diagram>
</mxfile>
